<?xml version="1.0" encoding="utf-8"?>
<!-- Generator: Adobe Illustrator 25.4.0, SVG Export Plug-In . SVG Version: 6.00 Build 0)  -->
<svg version="1.1" id="Layer_1" xmlns="http://www.w3.org/2000/svg" xmlns:xlink="http://www.w3.org/1999/xlink" x="0px" y="0px"
	 viewBox="0 0 480 160" style="enable-background:new 0 0 480 160;" xml:space="preserve">
<style type="text/css">
	.st0{fill:#FFFFFF;}
	.st1{fill:#FFFFFF;stroke:#070605;stroke-miterlimit:10;}
	.st2{fill:#2E3192;}
	.st3{fill:#4FBA58;}
	.st4{fill:#51B464;}
	.st5{fill:#111111;}
	.st6{fill:#0076FF;}
	.st7{fill:#303030;}
	.st8{opacity:0.7;}
	.st9{clip-path:url(#SVGID_00000112613351584555684040000006146111315749881231_);}
	.st10{opacity:0;fill:#FFFFFF;}
	.st11{opacity:0.0476;fill:#FDFBFB;}
	.st12{opacity:0.0952;fill:#FAF8F7;}
	.st13{opacity:0.1429;fill:#F8F4F4;}
	.st14{opacity:0.1905;fill:#F6F0F0;}
	.st15{opacity:0.2381;fill:#F3ECEC;}
	.st16{opacity:0.2857;fill:#F1E9E8;}
	.st17{opacity:0.3333;fill:#EFE5E4;}
	.st18{opacity:0.381;fill:#ECE1E1;}
	.st19{opacity:0.4286;fill:#EADEDD;}
	.st20{opacity:0.4762;fill:#E8DAD9;}
	.st21{opacity:0.5238;fill:#E5D6D5;}
	.st22{opacity:0.5714;fill:#E3D2D1;}
	.st23{opacity:0.619;fill:#E1CFCD;}
	.st24{opacity:0.6667;fill:#DECBCA;}
	.st25{opacity:0.7143;fill:#DCC7C6;}
	.st26{opacity:0.7619;fill:#DAC4C2;}
	.st27{opacity:0.8095;fill:#D7C0BE;}
	.st28{opacity:0.8571;fill:#D5BCBA;}
	.st29{opacity:0.9048;fill:#D3B8B7;}
	.st30{opacity:0.9524;fill:#D0B5B3;}
	.st31{fill:#CEB1AF;}
	.st32{opacity:0.3;}
	.st33{fill:#BABABA;}
	.st34{opacity:0.2;}
	.st35{opacity:0.5;}
	.st36{opacity:0.1;}
	.st37{opacity:0.4;}
	.st38{opacity:0.6;}
	.st39{opacity:0.8;}
	.st40{fill:#E6E6E6;}
	.st41{fill:#EFEFEF;}
	.st42{fill:#E8E8E8;}
	.st43{fill:#D4D4D4;}
	.st44{fill:#FAFAFA;}
	.st45{fill:#CCCCCC;}
	.st46{fill:#D5D5D5;}
	.st47{clip-path:url(#SVGID_00000050642194282739323530000003166746898712681872_);}
	.st48{fill:#E9E9E9;}
	.st49{clip-path:url(#SVGID_00000183963834962804665540000018136315337878652562_);}
	.st50{clip-path:url(#SVGID_00000046332913858029402780000013913183458198271165_);}
	.st51{fill:url(#SVGID_00000034782837508607589960000017283067641723735986_);}
	.st52{fill:url(#SVGID_00000015321114546519532230000017868257812205968525_);}
	.st53{fill:url(#SVGID_00000143595457139373862540000004370362258223201963_);}
	.st54{fill:url(#SVGID_00000078729302359315177190000012957824636145673149_);}
	.st55{fill:url(#SVGID_00000097487752726122617400000014609389321319305357_);}
	.st56{fill:url(#SVGID_00000052099084952854461410000016512456992287750547_);}
	.st57{fill:url(#SVGID_00000010301166156391345060000014730668289822128535_);}
	.st58{fill:url(#SVGID_00000029008937865200991400000018402567366269945990_);}
	.st59{opacity:0.7;fill:url(#SVGID_00000121270804915070479690000008596869050161456554_);}
	.st60{fill:url(#SVGID_00000009582439665506899110000008790905606498490036_);}
	.st61{fill:url(#SVGID_00000062151967704846517210000010420110671449279399_);}
	.st62{opacity:0.79;fill:url(#SVGID_00000103232329845190760640000004756613908147797426_);}
	.st63{opacity:0.79;fill:url(#SVGID_00000091705333039474435650000005586585728451474348_);}
	.st64{opacity:0.79;fill:url(#SVGID_00000071558667848280203760000006323748299181623736_);}
	.st65{opacity:0.79;fill:url(#SVGID_00000038395556593836271120000013633739381422494610_);}
	.st66{opacity:0.79;fill:url(#SVGID_00000043437946230749854650000002839312749687513765_);}
	.st67{opacity:0.79;fill:url(#SVGID_00000060751852936823049350000003887365787939917195_);}
	.st68{opacity:0.79;fill:url(#SVGID_00000146479632203425848460000010317549763131457940_);}
	.st69{opacity:0.79;fill:url(#SVGID_00000128447914774692517260000007507874307711783560_);}
	.st70{opacity:0.79;fill:url(#SVGID_00000128486355775661863690000017690115546756822936_);}
	.st71{opacity:0.79;fill:url(#SVGID_00000147924399321015492580000015835047195860147614_);}
	.st72{opacity:0.79;fill:url(#SVGID_00000059292734656829387700000014389289447921632896_);}
	.st73{opacity:0.79;fill:url(#SVGID_00000177447409930141180480000001151798139414366852_);}
	.st74{opacity:0.79;fill:url(#SVGID_00000134930251528096677830000016294900407788034994_);}
	.st75{opacity:0.79;fill:url(#SVGID_00000013157575194567407220000000476928081199376030_);}
	.st76{opacity:0.79;fill:url(#SVGID_00000096019086583696600890000016530521961008476332_);}
	.st77{opacity:0.79;fill:url(#SVGID_00000121966634911852798030000013715526500368725379_);}
	.st78{opacity:0.79;fill:url(#SVGID_00000013871185253183572320000015580143028847332488_);}
	.st79{opacity:0.79;fill:url(#SVGID_00000172420287912815498980000003223909709087335327_);}
	.st80{opacity:0.79;fill:url(#SVGID_00000148641695255435106690000006281382093576188311_);}
	.st81{opacity:0.79;fill:url(#SVGID_00000168803974301158585960000013995769612904928942_);}
	.st82{opacity:0.79;fill:url(#SVGID_00000150072330555792903390000011101806484632484754_);}
	.st83{opacity:0.79;fill:url(#SVGID_00000121990210739833522480000000360750639309108920_);}
	.st84{opacity:0.79;fill:url(#SVGID_00000150095662839219527910000013162730362558987144_);}
	.st85{opacity:0.79;fill:url(#SVGID_00000158015206025890152210000015232828884707606671_);}
	.st86{opacity:0.79;fill:url(#SVGID_00000061452089237371732110000012408863941645940908_);}
	.st87{opacity:0.79;fill:url(#SVGID_00000012446957365042893690000013595285039476548992_);}
	.st88{opacity:0.79;fill:url(#SVGID_00000086687010071088141380000018244397542192610201_);}
	.st89{opacity:0.7;fill:url(#SVGID_00000060726743437792461640000001892857365197476497_);}
	.st90{fill:url(#SVGID_00000177468599103847666450000001183248685765003191_);}
	.st91{fill:url(#SVGID_00000089532455707225467200000008758063570714382014_);}
	.st92{opacity:0.79;fill:url(#SVGID_00000019650427609144738930000009378382027004478116_);}
	.st93{opacity:0.79;fill:url(#SVGID_00000181804309617829085770000006209280180358806174_);}
	.st94{opacity:0.79;fill:url(#SVGID_00000070102372441522419240000001117051444351869876_);}
	.st95{opacity:0.79;fill:url(#SVGID_00000152961915425894251240000008904333333909816460_);}
	.st96{opacity:0.79;fill:url(#SVGID_00000067944719666780486660000002119686065083184788_);}
	.st97{opacity:0.79;fill:url(#SVGID_00000038397738112596764550000006624058040671743660_);}
	.st98{opacity:0.79;fill:url(#SVGID_00000105389398228515060680000008950484191469696178_);}
	.st99{opacity:0.79;fill:url(#SVGID_00000107548378141235817890000013324625005832658831_);}
	.st100{opacity:0.79;fill:url(#SVGID_00000072259652512699167820000001045359391926266249_);}
	.st101{opacity:0.79;fill:url(#SVGID_00000041265151541276246570000011425784555509356958_);}
	.st102{opacity:0.79;fill:url(#SVGID_00000091700948245421444260000016317804084595825050_);}
	.st103{opacity:0.79;fill:url(#SVGID_00000168093861201368934660000015796595231042248322_);}
	.st104{opacity:0.79;fill:url(#SVGID_00000143581822459691091280000006350365941130088353_);}
	.st105{opacity:0.79;fill:url(#SVGID_00000055669482535238387550000006772249452642247594_);}
	.st106{opacity:0.79;fill:url(#SVGID_00000125592164679797142990000015662712053182660506_);}
	.st107{opacity:0.79;fill:url(#SVGID_00000056391381756497645110000017465865444506769538_);}
	.st108{opacity:0.79;fill:url(#SVGID_00000009584941794789376740000018077682043557481918_);}
	.st109{opacity:0.79;fill:url(#SVGID_00000173875305591276843010000007707339711828231351_);}
	.st110{opacity:0.79;fill:url(#SVGID_00000127026322844647034800000016448134606881961880_);}
	.st111{opacity:0.79;fill:url(#SVGID_00000123436911644224084610000003413121834647047080_);}
	.st112{opacity:0.79;fill:url(#SVGID_00000064311582952771692730000003923084647891703942_);}
	.st113{opacity:0.79;fill:url(#SVGID_00000100372143802693140000000004508389951627413412_);}
	.st114{opacity:0.79;fill:url(#SVGID_00000029035058074427879330000003711972400355197105_);}
	.st115{opacity:0.79;fill:url(#SVGID_00000067216618607620720780000012096534797031088030_);}
	.st116{opacity:0.79;fill:url(#SVGID_00000007405170130780641850000014011672600778493110_);}
	.st117{opacity:0.79;fill:url(#SVGID_00000127756500005276798500000000056156382694118806_);}
	.st118{opacity:0.79;fill:url(#SVGID_00000067216617712502945350000001651619478314116745_);}
	.st119{opacity:0.7;fill:url(#SVGID_00000163757877998544594680000005682884890541810069_);}
	.st120{fill:none;}
	.st121{clip-path:url(#SVGID_00000110436590334885422410000012908414194448233890_);}
	.st122{fill:#FF0000;}
	.st123{fill:#00BA4F;}
	.st124{fill:none;stroke:#838383;stroke-width:0.5;stroke-miterlimit:10;}
	.st125{fill:#4FBA58;stroke:#838383;stroke-width:0.5;stroke-miterlimit:10;}
	.st126{fill:#FBFBFB;}
	.st127{fill:#848484;}
	.st128{stroke:#9E9E9E;stroke-miterlimit:10;}
	.st129{fill:#435BF2;}
	.st130{fill:#FCFCFC;stroke:#231F20;stroke-miterlimit:10;}
	.st131{fill:#232020;stroke:#231F20;stroke-width:0.5;stroke-miterlimit:10;}
</style>
<path class="st3" d="M74.24,32.12C47.8,32.12,26.37,53.56,26.37,80c0,26.44,21.44,47.88,47.88,47.88
	c26.44,0,47.87-21.43,47.87-47.88C122.12,53.56,100.68,32.12,74.24,32.12z M92.84,98.6H55.64V61.39h6.68v30.54h30.53V98.6z
	 M92.84,83.34H70.91v-6.67h21.94V83.34z M92.84,68.07H70.91v-6.68h21.94V68.07z"/>
<polygon class="st3" points="148.16,82.52 141.75,82.52 141.75,115.13 164.78,115.13 164.78,108.96 148.16,108.96 "/>
<polygon class="st3" points="185.87,101.77 201.97,101.77 201.97,95.63 185.87,95.63 185.87,88.66 203.87,88.66 203.87,82.52 
	179.44,82.52 179.44,115.13 204.07,115.13 204.07,108.99 185.87,108.99 "/>
<path class="st3" d="M230.76,82.31l-14.85,32.82h6.82l3.49-7.8h14.05l3.46,7.8h6.99l-14.86-32.82H230.76z M228.92,101.2l4.35-9.67
	l4.31,9.67H228.92z"/>
<path class="st3" d="M290.65,92.84c0-2.7-0.97-5.16-2.74-6.92c-2.19-2.19-5.56-3.4-9.48-3.4H264.2v32.61h6.43v-11.51l5.85-0.29
	l9.23,11.81h7.55l-9.56-12.7C288.08,100.87,290.65,97.36,290.65,92.84z M270.62,88.7h7.56c2.74,0,5.99,0.76,5.99,4.35
	c0,2.79-2.31,4.52-6.04,4.52h-7.51V88.7z"/>
<polygon class="st3" points="328,103.29 311.29,82.52 306.29,82.52 306.29,115.13 312.63,115.13 312.63,93.82 329.8,115.13 
	334.33,115.13 334.33,82.52 328,82.52 "/>
<polygon class="st3" points="378.95,82.52 372.66,82.9 363.69,96.09 354.13,82.52 346.76,82.52 360.44,102.12 360.44,115.13 
	366.9,115.13 366.75,102.56 380.55,82.52 "/>
<path class="st3" d="M403.96,95.71c-6.78-1.45-6.78-2.9-6.78-4.3c0-1.89,1.95-3.21,4.73-3.21c2.75,0,5.15,0.91,8.11,3.32l0.67,0.54
	l3.31-4.4l-0.02-1.08l-0.65-0.52c-3.46-2.78-6.86-3.96-11.34-3.96c-6.51,0-11.23,4.07-11.23,9.68c0,6.69,5.34,8.77,11.12,10.03
	c6.45,1.36,6.45,2.79,6.45,4.18c0,2.08-2.02,3.47-5.03,3.47c-3.48,0-6.11-1.1-9.61-4.26l-0.65-0.59l-3.55,4.19l-0.02,1.09l0.62,0.55
	c3.9,3.49,8.07,5.12,13.1,5.12c6.84,0,11.61-4.1,11.61-9.99C414.8,100.39,411.46,97.35,403.96,95.71z"/>
<polygon class="st3" points="427.36,82.52 427.36,88.7 437.26,88.7 437.26,115.13 443.73,115.13 443.73,88.7 453.63,88.7 
	453.63,82.52 "/>
<g>
	<path class="st0" d="M155.31,54.21c0,2.05-0.64,3.62-1.92,4.71c-1.28,1.09-3.1,1.63-5.47,1.63h-1.73v6.78h-4.04V48.26h6.09
		c2.31,0,4.07,0.5,5.27,1.49C154.71,50.75,155.31,52.23,155.31,54.21z M146.19,57.23h1.33c1.24,0,2.17-0.25,2.79-0.74
		c0.62-0.49,0.93-1.21,0.93-2.14c0-0.95-0.26-1.65-0.78-2.1c-0.52-0.45-1.33-0.68-2.43-0.68h-1.84V57.23z"/>
	<path class="st0" d="M178.95,57.76c0,3.15-0.78,5.58-2.35,7.27c-1.56,1.69-3.81,2.54-6.72,2.54c-2.92,0-5.16-0.85-6.73-2.54
		c-1.56-1.69-2.35-4.13-2.35-7.3c0-3.17,0.78-5.59,2.35-7.27c1.57-1.67,3.82-2.51,6.75-2.51c2.93,0,5.17,0.84,6.72,2.53
		S178.95,54.6,178.95,57.76z M165.04,57.76c0,2.13,0.4,3.73,1.21,4.81c0.81,1.08,2.02,1.62,3.62,1.62c3.22,0,4.83-2.14,4.83-6.42
		c0-4.29-1.6-6.44-4.81-6.44c-1.61,0-2.82,0.54-3.64,1.62C165.45,54.03,165.04,55.64,165.04,57.76z"/>
	<path class="st0" d="M204.21,67.32h-4.6l-2.58-10.01c-0.1-0.36-0.26-1.09-0.49-2.21c-0.23-1.12-0.36-1.87-0.4-2.25
		c-0.05,0.47-0.18,1.22-0.39,2.26c-0.21,1.04-0.37,1.78-0.48,2.22l-2.57,9.98h-4.59l-4.86-19.05h3.97l2.44,10.4
		c0.43,1.92,0.73,3.58,0.93,4.99c0.05-0.5,0.17-1.26,0.36-2.3c0.19-1.04,0.36-1.84,0.53-2.42l2.78-10.67h3.82l2.78,10.67
		c0.12,0.48,0.27,1.21,0.46,2.19c0.18,0.98,0.32,1.82,0.42,2.53c0.09-0.68,0.23-1.52,0.42-2.54c0.19-1.01,0.37-1.83,0.52-2.46
		l2.42-10.4h3.98L204.21,67.32z"/>
	<path class="st0" d="M225.18,67.32H214.2V48.26h10.97v3.31h-6.93v4.18h6.45v3.31h-6.45v4.91h6.93V67.32z"/>
	<path class="st0" d="M235.94,60.01v7.31h-4.04V48.26h5.55c2.59,0,4.5,0.47,5.75,1.41c1.24,0.94,1.86,2.38,1.86,4.29
		c0,1.12-0.31,2.12-0.93,2.99s-1.49,1.56-2.62,2.05c2.87,4.28,4.74,7.05,5.6,8.3h-4.48l-4.55-7.31H235.94z M235.94,56.72h1.3
		c1.28,0,2.22-0.21,2.83-0.64c0.61-0.43,0.91-1.09,0.91-2.01c0-0.9-0.31-1.55-0.93-1.93c-0.62-0.38-1.58-0.57-2.89-0.57h-1.22V56.72
		z"/>
	<path class="st0" d="M263.25,67.32h-10.97V48.26h10.97v3.31h-6.93v4.18h6.45v3.31h-6.45v4.91h6.93V67.32z"/>
	<path class="st0" d="M285.78,57.61c0,3.14-0.89,5.54-2.68,7.21c-1.79,1.67-4.36,2.5-7.74,2.5h-5.4V48.26h5.98
		c3.11,0,5.53,0.82,7.25,2.46C284.92,52.37,285.78,54.66,285.78,57.61z M281.58,57.71c0-4.09-1.81-6.14-5.42-6.14h-2.15v12.41h1.73
		C279.64,63.98,281.58,61.89,281.58,57.71z"/>
	<path class="st0" d="M302.16,48.26h5.93c2.7,0,4.66,0.38,5.88,1.15c1.22,0.77,1.83,1.99,1.83,3.67c0,1.14-0.27,2.07-0.8,2.8
		c-0.53,0.73-1.25,1.17-2.13,1.32v0.13c1.21,0.27,2.08,0.77,2.61,1.51c0.53,0.74,0.8,1.72,0.8,2.95c0,1.74-0.63,3.09-1.88,4.07
		c-1.26,0.97-2.96,1.46-5.12,1.46h-7.13V48.26z M306.2,55.81h2.35c1.09,0,1.89-0.17,2.38-0.51c0.49-0.34,0.74-0.9,0.74-1.68
		c0-0.73-0.27-1.25-0.8-1.57c-0.53-0.32-1.38-0.48-2.54-0.48h-2.12V55.81z M306.2,59.02v4.96h2.63c1.11,0,1.93-0.21,2.46-0.64
		s0.79-1.08,0.79-1.96c0-1.58-1.13-2.37-3.39-2.37H306.2z"/>
	<path class="st0" d="M328.77,56.11l3.97-7.85h4.35l-6.32,11.64v7.42h-4.01v-7.29l-6.32-11.77h4.38L328.77,56.11z"/>
</g>
</svg>
