<?xml version="1.0" encoding="utf-8"?>
<!-- Generator: Adobe Illustrator 25.4.0, SVG Export Plug-In . SVG Version: 6.00 Build 0)  -->
<svg version="1.1" id="Layer_1" xmlns="http://www.w3.org/2000/svg" xmlns:xlink="http://www.w3.org/1999/xlink" x="0px" y="0px"
	 viewBox="0 0 480 160" style="enable-background:new 0 0 480 160;" xml:space="preserve">
<style type="text/css">
	.st0{fill:#FFFFFF;}
	.st1{fill:#FFFFFF;stroke:#070605;stroke-miterlimit:10;}
	.st2{fill:#2E3192;}
	.st3{fill:#4FBA58;}
	.st4{fill:#51B464;}
	.st5{fill:#111111;}
	.st6{fill:#0076FF;}
	.st7{fill:#303030;}
	.st8{opacity:0.7;}
	.st9{clip-path:url(#SVGID_00000054967532250607936920000003498815964773266570_);}
	.st10{opacity:0;fill:#FFFFFF;}
	.st11{opacity:0.0476;fill:#FDFBFB;}
	.st12{opacity:0.0952;fill:#FAF8F7;}
	.st13{opacity:0.1429;fill:#F8F4F4;}
	.st14{opacity:0.1905;fill:#F6F0F0;}
	.st15{opacity:0.2381;fill:#F3ECEC;}
	.st16{opacity:0.2857;fill:#F1E9E8;}
	.st17{opacity:0.3333;fill:#EFE5E4;}
	.st18{opacity:0.381;fill:#ECE1E1;}
	.st19{opacity:0.4286;fill:#EADEDD;}
	.st20{opacity:0.4762;fill:#E8DAD9;}
	.st21{opacity:0.5238;fill:#E5D6D5;}
	.st22{opacity:0.5714;fill:#E3D2D1;}
	.st23{opacity:0.619;fill:#E1CFCD;}
	.st24{opacity:0.6667;fill:#DECBCA;}
	.st25{opacity:0.7143;fill:#DCC7C6;}
	.st26{opacity:0.7619;fill:#DAC4C2;}
	.st27{opacity:0.8095;fill:#D7C0BE;}
	.st28{opacity:0.8571;fill:#D5BCBA;}
	.st29{opacity:0.9048;fill:#D3B8B7;}
	.st30{opacity:0.9524;fill:#D0B5B3;}
	.st31{fill:#CEB1AF;}
	.st32{opacity:0.3;}
	.st33{fill:#BABABA;}
	.st34{opacity:0.2;}
	.st35{opacity:0.5;}
	.st36{opacity:0.1;}
	.st37{opacity:0.4;}
	.st38{opacity:0.6;}
	.st39{opacity:0.8;}
	.st40{fill:#E6E6E6;}
	.st41{fill:#EFEFEF;}
	.st42{fill:#E8E8E8;}
	.st43{fill:#D4D4D4;}
	.st44{fill:#FAFAFA;}
	.st45{fill:#CCCCCC;}
	.st46{fill:#D5D5D5;}
	.st47{clip-path:url(#SVGID_00000148637614114787619060000007078052065726744194_);}
	.st48{fill:#E9E9E9;}
	.st49{clip-path:url(#SVGID_00000131361315318668682740000012605326504240466563_);}
	.st50{clip-path:url(#SVGID_00000143594833024473207530000005391953489900523957_);}
	.st51{fill:url(#SVGID_00000181046798348411064910000010055622927982640570_);}
	.st52{fill:url(#SVGID_00000009586508183766560250000018237254617392258732_);}
	.st53{fill:url(#SVGID_00000048473127473618316250000017206369130842561215_);}
	.st54{fill:url(#SVGID_00000008117377033317047280000017161114836779849104_);}
	.st55{fill:url(#SVGID_00000083080179116045899260000006339679483932165816_);}
	.st56{fill:url(#SVGID_00000140008971613497845660000018433362878451270785_);}
	.st57{fill:url(#SVGID_00000104696225580813287990000000616186058478368135_);}
	.st58{fill:url(#SVGID_00000041296000198963723650000013759539300907343550_);}
	.st59{opacity:0.7;fill:url(#SVGID_00000167376057185483148310000001736082382283139986_);}
	.st60{fill:url(#SVGID_00000119833524524138767590000010611720211863443331_);}
	.st61{fill:url(#SVGID_00000130614935318021415040000015268337915552925877_);}
	.st62{opacity:0.79;fill:url(#SVGID_00000034061059219434698740000016429513547667457700_);}
	.st63{opacity:0.79;fill:url(#SVGID_00000015348324924762623570000013971406965214751148_);}
	.st64{opacity:0.79;fill:url(#SVGID_00000047042113991154752130000013086267981714188721_);}
	.st65{opacity:0.79;fill:url(#SVGID_00000059287430698842036510000009651903521661379744_);}
	.st66{opacity:0.79;fill:url(#SVGID_00000080208811082487413840000006013904926298708103_);}
	.st67{opacity:0.79;fill:url(#SVGID_00000098206532767600222940000005576331744202426815_);}
	.st68{opacity:0.79;fill:url(#SVGID_00000147222441675386393350000000077227232754436738_);}
	.st69{opacity:0.79;fill:url(#SVGID_00000147204687477768010920000012829636857266359224_);}
	.st70{opacity:0.79;fill:url(#SVGID_00000182522379592709291040000015007305255788479404_);}
	.st71{opacity:0.79;fill:url(#SVGID_00000026122419312484651660000002611187030241040527_);}
	.st72{opacity:0.79;fill:url(#SVGID_00000092414552081861192270000011001811427871066031_);}
	.st73{opacity:0.79;fill:url(#SVGID_00000080183789674854011960000018214222900699227553_);}
	.st74{opacity:0.79;fill:url(#SVGID_00000047751278591967010700000000450587575438745239_);}
	.st75{opacity:0.79;fill:url(#SVGID_00000014595403016411913020000014160015717276540818_);}
	.st76{opacity:0.79;fill:url(#SVGID_00000145029147252007884640000014252816046582813569_);}
	.st77{opacity:0.79;fill:url(#SVGID_00000048473413106812327570000009456432515302066306_);}
	.st78{opacity:0.79;fill:url(#SVGID_00000069355648796981558350000013549257384160019639_);}
	.st79{opacity:0.79;fill:url(#SVGID_00000133494088979370364820000003050245766349322172_);}
	.st80{opacity:0.79;fill:url(#SVGID_00000025434629749652526790000016644595185067436985_);}
	.st81{opacity:0.79;fill:url(#SVGID_00000029020964135145598600000013881926586503518870_);}
	.st82{opacity:0.79;fill:url(#SVGID_00000106137028547379582510000002069942763471370423_);}
	.st83{opacity:0.79;fill:url(#SVGID_00000015319972307263912060000013474700670668052874_);}
	.st84{opacity:0.79;fill:url(#SVGID_00000175296843403742991070000003323741470174706850_);}
	.st85{opacity:0.79;fill:url(#SVGID_00000050632339800472090080000010249925022058300095_);}
	.st86{opacity:0.79;fill:url(#SVGID_00000135683454341686888250000010908248854594832779_);}
	.st87{opacity:0.79;fill:url(#SVGID_00000118361261051259864790000015658601663809682593_);}
	.st88{opacity:0.79;fill:url(#SVGID_00000119116195342941450040000009788481528648169613_);}
	.st89{opacity:0.7;fill:url(#SVGID_00000103954423678120776850000018193644723519207608_);}
	.st90{fill:url(#SVGID_00000083775799566410841460000009957940356908524987_);}
	.st91{fill:url(#SVGID_00000096738555905676033280000016614810312967408061_);}
	.st92{opacity:0.79;fill:url(#SVGID_00000139977347245664940690000002009456971886621588_);}
	.st93{opacity:0.79;fill:url(#SVGID_00000080888051163289541290000008929409829244034179_);}
	.st94{opacity:0.79;fill:url(#SVGID_00000003795454529175959900000001532265910811347897_);}
	.st95{opacity:0.79;fill:url(#SVGID_00000054242429585368954570000001230669532760402342_);}
	.st96{opacity:0.79;fill:url(#SVGID_00000042699910721385988390000018443361678063213497_);}
	.st97{opacity:0.79;fill:url(#SVGID_00000026121591141160083050000002357560556523748490_);}
	.st98{opacity:0.79;fill:url(#SVGID_00000070109406236566648270000009089085088090368685_);}
	.st99{opacity:0.79;fill:url(#SVGID_00000072992884400863323060000002226790708795863954_);}
	.st100{opacity:0.79;fill:url(#SVGID_00000065035477728543986640000015854090335316842928_);}
	.st101{opacity:0.79;fill:url(#SVGID_00000157305317972712300400000001963492571178907324_);}
	.st102{opacity:0.79;fill:url(#SVGID_00000009588019454371368570000006480164479915278759_);}
	.st103{opacity:0.79;fill:url(#SVGID_00000083770051690281388480000010398605448296905394_);}
	.st104{opacity:0.79;fill:url(#SVGID_00000134939565204683696890000005795108229431908234_);}
	.st105{opacity:0.79;fill:url(#SVGID_00000154416031594336739880000017866766188176475288_);}
	.st106{opacity:0.79;fill:url(#SVGID_00000042723917906822023450000004452878115150521754_);}
	.st107{opacity:0.79;fill:url(#SVGID_00000139258225734908609990000010528687698484490374_);}
	.st108{opacity:0.79;fill:url(#SVGID_00000183210589079016418920000002121819110319526053_);}
	.st109{opacity:0.79;fill:url(#SVGID_00000131353862835163076980000009779523855637493652_);}
	.st110{opacity:0.79;fill:url(#SVGID_00000144303085823381586870000007570022765595619247_);}
	.st111{opacity:0.79;fill:url(#SVGID_00000150824949819346693290000013910358652930076591_);}
	.st112{opacity:0.79;fill:url(#SVGID_00000155849184548651106420000006903072647852659856_);}
	.st113{opacity:0.79;fill:url(#SVGID_00000127762391835717355100000003562831004113362847_);}
	.st114{opacity:0.79;fill:url(#SVGID_00000019665213758398816950000003682502207095404952_);}
	.st115{opacity:0.79;fill:url(#SVGID_00000134223983039853071470000005297898008132765370_);}
	.st116{opacity:0.79;fill:url(#SVGID_00000124149319602660841280000011063571034041212829_);}
	.st117{opacity:0.79;fill:url(#SVGID_00000066489363395849717630000003062158879503244223_);}
	.st118{opacity:0.79;fill:url(#SVGID_00000105410707880018422730000003617587259236311437_);}
	.st119{opacity:0.7;fill:url(#SVGID_00000027606970915470924080000011267761406299229315_);}
	.st120{fill:none;}
	.st121{clip-path:url(#SVGID_00000059288777845341571050000017682310154381410196_);}
	.st122{fill:#FF0000;}
	.st123{fill:#00BA4F;}
	.st124{fill:none;stroke:#838383;stroke-width:0.5;stroke-miterlimit:10;}
	.st125{fill:#4FBA58;stroke:#838383;stroke-width:0.5;stroke-miterlimit:10;}
	.st126{fill:#FBFBFB;}
	.st127{fill:#848484;}
	.st128{stroke:#9E9E9E;stroke-miterlimit:10;}
	.st129{fill:#435BF2;}
	.st130{fill:#FCFCFC;stroke:#231F20;stroke-miterlimit:10;}
	.st131{fill:#232020;stroke:#231F20;stroke-width:0.5;stroke-miterlimit:10;}
</style>
<ellipse class="st0" cx="74.23" cy="81.49" rx="33.83" ry="29.26"/>
<path class="st3" d="M74.24,32.12C47.8,32.12,26.37,53.56,26.37,80c0,26.44,21.44,47.88,47.88,47.88
	c26.44,0,47.87-21.43,47.87-47.88C122.12,53.56,100.68,32.12,74.24,32.12z M92.84,98.6H55.64V61.39h6.68v30.54h30.53V98.6z
	 M92.84,83.34H70.91v-6.67h21.94V83.34z M92.84,68.07H70.91v-6.68h21.94V68.07z"/>
<polygon class="st3" points="148.16,82.52 141.75,82.52 141.75,115.13 164.78,115.13 164.78,108.96 148.16,108.96 "/>
<polygon class="st3" points="185.87,101.77 201.97,101.77 201.97,95.63 185.87,95.63 185.87,88.66 203.87,88.66 203.87,82.52 
	179.44,82.52 179.44,115.13 204.07,115.13 204.07,108.99 185.87,108.99 "/>
<path class="st3" d="M230.76,82.31l-14.85,32.82h6.82l3.49-7.8h14.05l3.46,7.8h6.99l-14.86-32.82H230.76z M228.92,101.2l4.35-9.67
	l4.31,9.67H228.92z"/>
<path class="st3" d="M290.65,92.84c0-2.7-0.97-5.16-2.74-6.92c-2.19-2.19-5.56-3.4-9.48-3.4H264.2v32.61h6.43v-11.51l5.85-0.29
	l9.23,11.81h7.55l-9.56-12.7C288.08,100.87,290.65,97.36,290.65,92.84z M270.62,88.7h7.56c2.74,0,5.99,0.76,5.99,4.35
	c0,2.79-2.31,4.52-6.04,4.52h-7.51V88.7z"/>
<polygon class="st3" points="328,103.29 311.29,82.52 306.29,82.52 306.29,115.13 312.63,115.13 312.63,93.82 329.8,115.13 
	334.33,115.13 334.33,82.52 328,82.52 "/>
<polygon class="st3" points="378.95,82.52 372.66,82.9 363.69,96.09 354.13,82.52 346.76,82.52 360.44,102.12 360.44,115.13 
	366.9,115.13 366.75,102.56 380.55,82.52 "/>
<path class="st3" d="M403.96,95.71c-6.78-1.45-6.78-2.9-6.78-4.3c0-1.89,1.95-3.21,4.73-3.21c2.75,0,5.15,0.91,8.11,3.32l0.67,0.54
	l3.31-4.4l-0.02-1.08l-0.65-0.52c-3.46-2.78-6.86-3.96-11.34-3.96c-6.51,0-11.23,4.07-11.23,9.68c0,6.69,5.34,8.77,11.12,10.03
	c6.45,1.36,6.45,2.79,6.45,4.18c0,2.08-2.02,3.47-5.03,3.47c-3.48,0-6.11-1.1-9.61-4.26l-0.65-0.59l-3.55,4.19l-0.02,1.09l0.62,0.55
	c3.9,3.49,8.07,5.12,13.1,5.12c6.84,0,11.61-4.1,11.61-9.99C414.8,100.39,411.46,97.35,403.96,95.71z"/>
<polygon class="st3" points="427.36,82.52 427.36,88.7 437.26,88.7 437.26,115.13 443.73,115.13 443.73,88.7 453.63,88.7 
	453.63,82.52 "/>
<g>
	<path class="st7" d="M155.31,54.21c0,2.05-0.64,3.62-1.92,4.71c-1.28,1.09-3.1,1.63-5.47,1.63h-1.73v6.78h-4.04V48.26h6.09
		c2.31,0,4.07,0.5,5.27,1.49C154.71,50.75,155.31,52.23,155.31,54.21z M146.19,57.23h1.33c1.24,0,2.17-0.25,2.79-0.74
		c0.62-0.49,0.93-1.21,0.93-2.14c0-0.95-0.26-1.65-0.78-2.1c-0.52-0.45-1.33-0.68-2.43-0.68h-1.84V57.23z"/>
	<path class="st7" d="M178.95,57.76c0,3.15-0.78,5.58-2.35,7.27c-1.56,1.69-3.81,2.54-6.72,2.54c-2.92,0-5.16-0.85-6.73-2.54
		c-1.56-1.69-2.35-4.13-2.35-7.3c0-3.17,0.78-5.59,2.35-7.27c1.57-1.67,3.82-2.51,6.75-2.51c2.93,0,5.17,0.84,6.72,2.53
		S178.95,54.6,178.95,57.76z M165.05,57.76c0,2.13,0.4,3.73,1.21,4.81c0.81,1.08,2.02,1.62,3.62,1.62c3.22,0,4.83-2.14,4.83-6.42
		c0-4.29-1.6-6.44-4.81-6.44c-1.61,0-2.82,0.54-3.64,1.62C165.45,54.03,165.05,55.64,165.05,57.76z"/>
	<path class="st7" d="M204.21,67.32h-4.6l-2.58-10.01c-0.1-0.36-0.26-1.09-0.49-2.21c-0.23-1.12-0.36-1.87-0.4-2.25
		c-0.05,0.47-0.18,1.22-0.39,2.26c-0.21,1.04-0.37,1.78-0.48,2.22l-2.57,9.98h-4.59l-4.86-19.05h3.97l2.44,10.4
		c0.43,1.92,0.73,3.58,0.93,4.99c0.05-0.5,0.17-1.26,0.36-2.3c0.19-1.04,0.36-1.84,0.53-2.42l2.78-10.67h3.82l2.78,10.67
		c0.12,0.48,0.27,1.21,0.46,2.19c0.18,0.98,0.32,1.82,0.42,2.53c0.09-0.68,0.23-1.52,0.42-2.54c0.19-1.01,0.37-1.83,0.52-2.46
		l2.42-10.4h3.98L204.21,67.32z"/>
	<path class="st7" d="M225.18,67.32H214.2V48.26h10.97v3.31h-6.93v4.18h6.45v3.31h-6.45v4.91h6.93V67.32z"/>
	<path class="st7" d="M235.94,60.01v7.31h-4.04V48.26h5.55c2.59,0,4.5,0.47,5.75,1.41c1.24,0.94,1.86,2.38,1.86,4.29
		c0,1.12-0.31,2.12-0.93,2.99s-1.49,1.56-2.62,2.05c2.87,4.28,4.74,7.05,5.6,8.3h-4.48l-4.55-7.31H235.94z M235.94,56.72h1.3
		c1.28,0,2.22-0.21,2.83-0.64c0.61-0.43,0.91-1.09,0.91-2.01c0-0.9-0.31-1.55-0.93-1.93c-0.62-0.38-1.58-0.57-2.89-0.57h-1.22V56.72
		z"/>
	<path class="st7" d="M263.25,67.32h-10.97V48.26h10.97v3.31h-6.93v4.18h6.45v3.31h-6.45v4.91h6.93V67.32z"/>
	<path class="st7" d="M285.78,57.61c0,3.14-0.89,5.54-2.68,7.21c-1.79,1.67-4.36,2.5-7.74,2.5h-5.4V48.26h5.98
		c3.11,0,5.53,0.82,7.25,2.46C284.92,52.37,285.78,54.66,285.78,57.61z M281.58,57.71c0-4.09-1.81-6.14-5.42-6.14h-2.15v12.41h1.73
		C279.64,63.98,281.58,61.89,281.58,57.71z"/>
	<path class="st7" d="M302.16,48.26h5.93c2.7,0,4.66,0.38,5.88,1.15c1.22,0.77,1.83,1.99,1.83,3.67c0,1.14-0.27,2.07-0.8,2.8
		c-0.53,0.73-1.25,1.17-2.13,1.32v0.13c1.21,0.27,2.08,0.77,2.61,1.51c0.53,0.74,0.8,1.72,0.8,2.95c0,1.74-0.63,3.09-1.88,4.07
		c-1.26,0.97-2.96,1.46-5.12,1.46h-7.13V48.26z M306.2,55.81h2.35c1.09,0,1.89-0.17,2.38-0.51c0.49-0.34,0.74-0.9,0.74-1.68
		c0-0.73-0.27-1.25-0.8-1.57c-0.53-0.32-1.38-0.48-2.54-0.48h-2.12V55.81z M306.2,59.02v4.96h2.63c1.11,0,1.93-0.21,2.46-0.64
		s0.79-1.08,0.79-1.96c0-1.58-1.13-2.37-3.39-2.37H306.2z"/>
	<path class="st7" d="M328.77,56.11l3.97-7.85h4.35l-6.32,11.64v7.42h-4.01v-7.29l-6.32-11.77h4.38L328.77,56.11z"/>
</g>
</svg>
