<svg  id="svgItem" width="96" height="96" viewBox="0 0 96 96" fill="none" xmlns="http://www.w3.org/2000/svg">
<path d="M33 22.5C32.1716 22.5 31.5 23.1716 31.5 24C31.5 24.8284 32.1716 25.5 33 25.5V22.5ZM63 25.5C63.8284 25.5 64.5 24.8284 64.5 24C64.5 23.1716 63.8284 22.5 63 22.5V25.5ZM33 37.5C32.1716 37.5 31.5 38.1716 31.5 39C31.5 39.8284 32.1716 40.5 33 40.5V37.5ZM63 40.5C63.8284 40.5 64.5 39.8284 64.5 39C64.5 38.1716 63.8284 37.5 63 37.5V40.5ZM40 52.5C39.1716 52.5 38.5 53.1716 38.5 54C38.5 54.8284 39.1716 55.5 40 55.5V52.5ZM55 55.5C55.8284 55.5 56.5 54.8284 56.5 54C56.5 53.1716 55.8284 52.5 55 52.5V55.5ZM27 10.5H69V7.5H27V10.5ZM69 10.5C73.1421 10.5 76.5 13.8579 76.5 18H79.5C79.5 12.201 74.799 7.5 69 7.5V10.5ZM76.5 18V78H79.5V18H76.5ZM76.5 78C76.5 82.1421 73.1421 85.5 69 85.5V88.5C74.799 88.5 79.5 83.799 79.5 78H76.5ZM69 85.5H27V88.5H69V85.5ZM27 85.5C22.8579 85.5 19.5 82.1421 19.5 78H16.5C16.5 83.799 21.201 88.5 27 88.5V85.5ZM19.5 78V18H16.5V78H19.5ZM19.5 18C19.5 13.8579 22.8579 10.5 27 10.5V7.5C21.201 7.5 16.5 12.201 16.5 18H19.5ZM33 25.5H63V22.5H33V25.5ZM33 40.5H63V37.5H33V40.5ZM40 55.5H55V52.5H40V55.5Z" fill="#BABABA"/>
</svg>
