<svg width="46" height="81" viewBox="0 0 46 81" fill="none" xmlns="http://www.w3.org/2000/svg">
<path d="M10.0238 3.9725C10.0238 3.9725 9.01303 9.28485 9.79359 14.3639C10.4444 18.5074 12.1488 19.9034 14.6404 24.7755C15.7787 20.933 16.0098 16.7663 15.1148 13.5035C14.1934 10.1604 10.0238 3.9725 10.0238 3.9725Z" fill="#ED9E10"/>
<path d="M20.8779 15.6102C20.8779 15.6102 17.3842 20.4051 16.5395 24.3289C15.6948 28.2527 17.1606 29.1936 18.1303 33.7658C19.207 31.9 21.6813 28.0628 22.2015 25.046C22.8021 22.0029 20.8779 15.6102 20.8779 15.6102Z" fill="#ED9E10"/>
<path d="M5.84354 19.6646C5.84354 19.6646 5.65636 26.129 8.79682 29.187C13.1611 33.5323 15.1449 31.9907 16.736 34.9357C16.8668 35.6041 16.4152 28.5495 13.5419 25.4925C10.6687 22.4355 5.84354 19.6646 5.84354 19.6646Z" fill="#ED9E10"/>
<path d="M23.3473 25.8253C23.3473 25.8253 19.9019 31.8493 19.5686 34.8935C19.2089 37.8575 20.7383 42.7793 21.7202 44.4128C22.1646 40.3538 24.7059 39.696 25.1778 35.4502C25.6497 31.2043 23.3473 25.8253 23.3473 25.8253Z" fill="#ED9E10"/>
<path d="M8.30632 31.4826C8.30632 31.4826 14.042 33.7762 16.1444 35.8417C18.3271 37.8808 20.2799 43.8194 20.7285 45.1836C17.3186 42.6588 15.1511 43.3715 11.8249 40.0188C9.27271 36.8563 8.30632 31.4826 8.30632 31.4826Z" fill="#ED9E10"/>
<path d="M26.4017 36.7374C26.229 39.7288 24.2727 41.0835 23.2674 45.0601C23.0936 48.3187 23.8116 49.1498 26.5715 53.7558C26.5574 50.7369 28.9667 49.6779 29.1164 45.8047C29.2661 41.9316 27.1198 37.5684 26.4017 36.7374Z" fill="#ED9E10"/>
<path d="M11.6554 42.2088C14.1317 44.3292 19.0163 45.6577 20.3215 46.6514C21.6267 47.645 24.5528 50.8625 26.0602 54.6354C22.3281 52.4833 19.9463 53.3555 16.6969 50.7778C15.7117 49.9458 12.1732 46.2182 11.6554 42.2088Z" fill="#ED9E10"/>
<path d="M30.1842 46.0761C30.4106 49.4699 28.2893 51.946 28.5421 55.42C29.0127 57.9331 32.4676 62.4885 33.7717 63.7493C33.0978 58.7241 35.5027 58.7337 34.6122 54.4022C34.013 50.6864 30.9551 47.0677 30.1842 46.0761Z" fill="#ED9E10"/>
<path d="M16.7639 53.9572C16.7639 53.9572 23.2551 54.4906 25.8403 56.1306C28.4255 57.7705 31.9837 63.1812 32.4873 64.1716C28.5947 62.0723 26.0489 63.7987 22.826 61.3014C19.3633 58.616 16.7639 53.9572 16.7639 53.9572Z" fill="#ED9E10"/>
<path d="M36.3703 55.6916C36.3703 55.6916 35.5168 61.7526 36.0401 64.4262C36.5635 67.0998 37.3034 69.0797 37.3034 69.0797C37.3034 69.0797 35.278 67.7893 33.3052 66.6594C30.4001 64.8579 23.7792 63.389 23.7792 63.389C23.7792 63.389 26.4533 69.3571 31.1706 72.3413C35.888 75.3255 37.9818 73.0363 41.5028 74.5464C40.8244 70.5898 43.5341 68.0092 42.1607 64.1032C40.7874 60.1973 36.3703 55.6916 36.3703 55.6916Z" fill="#ED9E10"/>
</svg>
