<svg width="360" height="314" viewBox="0 0 360 314" fill="none" xmlns="http://www.w3.org/2000/svg">
<path opacity="0.2" fill-rule="evenodd" clip-rule="evenodd" d="M148.727 17.0274C188.209 4.31355 230.544 -2.33552 268.395 14.59C310.036 33.2106 349.109 66.0578 358.255 110.721C367.112 153.97 340.783 195.76 312.434 229.637C288.992 257.651 252.91 265.194 218.562 277.655C178.608 292.149 138.493 323.651 99.4461 306.903C58.7376 289.443 40.8811 241.458 32.7233 197.947C25.1891 157.761 35.3016 116.976 57.3814 82.5407C78.4002 49.7599 111.645 28.9686 148.727 17.0274Z" fill="#E6E6E6"/>
<path opacity="0.2" fill-rule="evenodd" clip-rule="evenodd" d="M178.694 1.21026C225.603 3.5534 272.544 17.3806 301.722 54.3158C330.807 91.1336 333.793 140.134 324.877 186.258C315.495 234.785 297.856 287.219 252.824 307.253C208.785 326.846 162.21 298.536 118.583 278.036C74.0174 257.095 23.1892 238.794 7.51529 191.983C-9.63851 140.752 3.24768 81.37 39.2854 41.2071C73.3112 3.28647 127.907 -1.32651 178.694 1.21026Z" fill="#E6E6E6"/>
</svg>
