<svg width="492" height="429" viewBox="0 0 492 429" fill="none" xmlns="http://www.w3.org/2000/svg">
<path opacity="0.1" fill-rule="evenodd" clip-rule="evenodd" d="M203.231 22.6419C257.181 5.26882 315.03 -3.81692 366.753 19.3113C423.654 44.7557 477.046 89.6404 489.544 150.671C501.647 209.769 465.669 266.875 426.931 313.167C394.898 351.446 345.594 361.754 298.658 378.781C244.062 398.587 189.247 441.634 135.89 418.748C80.263 394.889 55.8626 329.32 44.7152 269.862C34.4199 214.95 48.2384 159.219 78.4097 112.164C107.131 67.3698 152.56 38.9591 203.231 22.6419Z" fill="#B00020"/>
<path opacity="0.1" fill-rule="evenodd" clip-rule="evenodd" d="M244.179 1.02835C308.28 4.23018 372.423 23.1246 412.293 73.5954C452.037 123.906 456.118 190.863 443.934 253.89C431.115 320.201 407.011 391.85 345.477 419.226C285.299 445.999 221.655 407.315 162.04 379.302C101.142 350.687 31.6873 325.679 10.2694 261.713C-13.1707 191.707 4.43786 110.564 53.6823 55.6828C100.178 3.86543 174.782 -2.43806 244.179 1.02835Z" fill="#B00020"/>
</svg>
