<svg xmlns="http://www.w3.org/2000/svg" viewBox="0 0 500 500"><g id="freepik--background-simple--inject-173"><path d="M422.69,188.37a93.3,93.3,0,0,1-1,10.8C416.9,230,396.24,262,366.21,273c-17.89,6.53-37.67.42-56.7,1.08-23.93.84-46.76,13-67.89,23.09-28.53,13.65-56.66,24.1-87.73,13.49-25.83-8.83-47.85-30.1-52.27-57.63-4.21-26.19-.67-54.33,7.23-79.51,6.79-21.66,19.44-37,43.25-39.29,15.55-1.51,31,2.42,46.32,5.67,17.28,3.67,39.09,8,55.73-.12C270,132.06,280,114.69,294.3,104.6c23.57-16.65,57-16.28,81.94-1.79C405.88,120,424,154.47,422.69,188.37Z" style="fill:#7AD579"></path><path d="M422.69,188.37a93.3,93.3,0,0,1-1,10.8C416.9,230,396.24,262,366.21,273c-17.89,6.53-37.67.42-56.7,1.08-23.93.84-46.76,13-67.89,23.09-28.53,13.65-56.66,24.1-87.73,13.49-25.83-8.83-47.85-30.1-52.27-57.63-4.21-26.19-.67-54.33,7.23-79.51,6.79-21.66,19.44-37,43.25-39.29,15.55-1.51,31,2.42,46.32,5.67,17.28,3.67,39.09,8,55.73-.12C270,132.06,280,114.69,294.3,104.6c23.57-16.65,57-16.28,81.94-1.79C405.88,120,424,154.47,422.69,188.37Z" style="fill:#fff;opacity:0.9"></path></g><g id="freepik--Shadow--inject-173"><ellipse id="freepik--path--inject-173" cx="250" cy="416.24" rx="193.89" ry="11.32" style="fill:#f5f5f5"></ellipse></g><g id="freepik--Character--inject-173"><path d="M196.06,128.43c-6.25,7.63-5.14,14.58-3.37,21-7.73-4.66-14.38,5.81-12.25,10-9.85,6.74-1.33,19.16,9.19,16.15,5,11.53,29.57,12.51,29.45,5.85,20.2,4.53,11.5-17.74,5.38-19.78,8.43-1.6,7.19-11.9,1.42-15.36,6.74-8,3.4-17.66-5.18-18.9C212.88,118.43,201.15,122.22,196.06,128.43Z" style="fill:#263238"></path><path d="M235.16,187.6c0,4,.16,8.14.46,12.16a75.19,75.19,0,0,0,1.62,11.73c.09.47.22.91.35,1.35l.33,1.15a2,2,0,0,0,.31.7c.22.38,1.61.8,3.29.7a39.91,39.91,0,0,0,11.14-2.79l2.44,4.13c-1,.74-1.85,1.34-2.82,2s-1.94,1.17-3,1.69a27.38,27.38,0,0,1-6.75,2.46,15.71,15.71,0,0,1-4.15.33,10.5,10.5,0,0,1-4.86-1.52,9.69,9.69,0,0,1-3.63-4.18l-.25-.57-.16-.42-.32-.85c-.21-.56-.42-1.13-.58-1.69A68.5,68.5,0,0,1,226,200.62c-.22-2.2-.41-4.39-.48-6.59s-.13-4.34-.05-6.65Z" style="fill:#7f3e3b"></path><path d="M230.67,176.69c8.18,7.17,7,19.57,7,19.57L222,198.93s-3.9-12.8-1.68-17.25C222.66,177,226.06,172.66,230.67,176.69Z" style="fill:#7AD579"></path><path d="M230.67,176.69c8.18,7.17,7,19.57,7,19.57L222,198.93s-3.9-12.8-1.68-17.25C222.66,177,226.06,172.66,230.67,176.69Z" style="fill:#fff;opacity:0.30000000000000004"></path><path d="M226.29,188.16l-5.88,4.07c.69,3.64,1.62,6.7,1.62,6.7l5.36-.91A48.44,48.44,0,0,0,226.29,188.16Z" style="fill:#7AD579;opacity:0.4"></path><path d="M251.75,213.46l6-5.3,2.48,9.07s-5,2.26-9.37-.47Z" style="fill:#7f3e3b"></path><polygon points="265.69 207.8 266.27 214.88 260.27 217.23 257.79 208.16 265.69 207.8" style="fill:#7f3e3b"></polygon><polygon points="167.57 408.57 176.37 409.42 182.42 388.75 173.61 387.9 167.57 408.57" style="fill:#7f3e3b"></polygon><polygon points="111.52 373.74 117.62 380.28 132.69 365.76 126.58 359.22 111.52 373.74" style="fill:#7f3e3b"></polygon><path d="M119.07,380.25l-4.31-9.13a.73.73,0,0,0-.86-.39l-7.72,2.37a1.45,1.45,0,0,0-.83,2c1.56,3.16,2.47,4.6,4.37,8.62,1.16,2.47,3.38,8.11,5,11.52s5.07,2,4.71.44c-1.64-7-1-10.82-.21-13.82A2.32,2.32,0,0,0,119.07,380.25Z" style="fill:#263238"></path><path d="M177.3,406.74H166.63a.88.88,0,0,0-.84.65l-2.32,8.43a1.33,1.33,0,0,0,1.3,1.69c3.76,0,5.54,0,10.23,0h14.34c3.9,0,4.71-3.94,3.1-4.3-7.23-1.6-11.4-3.8-13.63-5.91A2.18,2.18,0,0,0,177.3,406.74Z" style="fill:#263238"></path><polygon points="182.42 388.75 179.3 399.41 170.24 399.41 173.6 387.91 182.42 388.75" style="opacity:0.2"></polygon><polygon points="126.58 359.22 132.69 365.76 124.92 373.24 118.81 366.7 126.58 359.22" style="opacity:0.2"></polygon><path d="M228.15,175.25s3.78,2-12.68,52.82l-36.1-5.53c2.86-14.6,4.26-23.65,1.85-54.87a108,108,0,0,1,15.64.32,117.12,117.12,0,0,1,16.39,2.51A153.54,153.54,0,0,1,228.15,175.25Z" style="fill:#7AD579"></path><path d="M228.15,175.25s3.78,2-12.68,52.82l-36.1-5.53c2.86-14.6,4.26-23.65,1.85-54.87a108,108,0,0,1,15.64.32,117.12,117.12,0,0,1,16.39,2.51A153.54,153.54,0,0,1,228.15,175.25Z" style="fill:#fff;opacity:0.30000000000000004"></path><path d="M201.31,149.79c.23,5.43-.22,15.25-4.45,18.2,0,0,8.43,10.75,12.33,21.49,4.92-6.15,4.06-19,4.06-19-5.67-2.3-4.85-6.64-3.19-10.58Z" style="fill:#7f3e3b"></path><path d="M204.87,153.92l5.18,6a18.1,18.1,0,0,0-1,2.83c-2.2-.67-5.27-3.2-5.15-5.59A9.66,9.66,0,0,1,204.87,153.92Z" style="opacity:0.2"></path><path d="M197.12,141.05c1.68,8.76,2.21,12.5,7.25,16.46,7.6,6,18,2,19-7.12.87-8.18-2-21.14-11.13-23.53A12.16,12.16,0,0,0,197.12,141.05Z" style="fill:#7f3e3b"></path><path d="M195.23,132.51c-3.45,5.67,22.2-1.18,23.85-3.55-2.9-3.88-7.93-4.73-13-3.61S196.71,130.08,195.23,132.51Z" style="fill:#263238"></path><path d="M201.86,130.68c2.7,3.4,4.77,12.75-3.33,17.29-5.07-5.05-4.95-7.83-5.07-10.55S198.9,127,201.86,130.68Z" style="fill:#263238"></path><path d="M195.93,148.31a6.53,6.53,0,0,0,3.61,3.42c2.14.8,3.41-1.07,3-3.19-.39-1.91-2-4.63-4.2-4.52A2.93,2.93,0,0,0,195.93,148.31Z" style="fill:#7f3e3b"></path><path d="M215.47,228.07s8.71,55.13-2,92.9c-7.18,25.29-30.38,75.82-30.38,75.82l-15.46-1.42s18.56-53.4,23.06-74.58C198.4,284.55,189,224,189,224Z" style="fill:#263238"></path><path d="M200.59,238.11,192,249.81a374.39,374.39,0,0,1,1.56,44C205.77,275.06,202.33,248.59,200.59,238.11Z" style="opacity:0.2"></path><polygon points="185.3 397.13 166.13 396.64 167.24 390.75 186.8 391.67 185.3 397.13" style="fill:#7AD579"></polygon><path d="M207.57,227S194.42,282,179.05,313.7c-12.42,25.57-50.48,59.38-50.48,59.38l-8-9.43s26.4-36.23,35.65-53.23c22.67-41.68,9.15-73.54,23.17-87.88Z" style="fill:#263238"></path><polygon points="129.37 374.33 118.97 362.77 122.99 358 133.99 370.53 129.37 374.33" style="fill:#7AD579"></polygon><path d="M179.16,220.34l-2.12,3c-.17.23.09.54.51.6l37.85,5.79c.33,0,.62-.07.67-.27l.82-3.18c.06-.22-.2-.45-.55-.51l-36.55-5.59A.66.66,0,0,0,179.16,220.34Z" style="fill:#7AD579"></path><path d="M183.44,225.18l-1-.15c-.19,0-.33-.15-.29-.27l1.1-4.13c0-.12.22-.2.41-.17l1,.15c.2,0,.33.16.3.28L183.85,225C183.82,225.14,183.64,225.21,183.44,225.18Z" style="fill:#263238"></path><path d="M212.6,229.64l-1-.15c-.2,0-.33-.15-.3-.27l1.1-4.13c0-.12.22-.19.42-.16l1,.14c.2,0,.33.16.3.28l-1.1,4.13C213,229.6,212.79,229.67,212.6,229.64Z" style="fill:#263238"></path><path d="M198,227.41l-1-.15c-.2,0-.33-.15-.3-.27l1.11-4.13c0-.12.21-.2.41-.17l1,.15c.19,0,.33.16.29.28l-1.1,4.13C198.4,227.37,198.21,227.44,198,227.41Z" style="fill:#263238"></path><path d="M211.72,141.71c.09.72.55,1.25,1,1.19s.78-.69.68-1.41-.55-1.25-1-1.19S211.63,141,211.72,141.71Z" style="fill:#263238"></path><path d="M219.85,140.66c.09.72.55,1.25,1,1.19s.78-.69.68-1.41-.55-1.25-1-1.19S219.76,139.94,219.85,140.66Z" style="fill:#263238"></path><path d="M220.33,139.31l1.66-.72S221.28,140.06,220.33,139.31Z" style="fill:#263238"></path><path d="M217,142.25a19.65,19.65,0,0,0,3.16,4.26,3.1,3.1,0,0,1-2.5.81Z" style="fill:#630f0f"></path><path d="M214.12,150.49a5.91,5.91,0,0,1-3.94-1.81.18.18,0,1,1,.27-.23,5.8,5.8,0,0,0,5,1.64.17.17,0,0,1,.2.15.17.17,0,0,1-.15.2A7.72,7.72,0,0,1,214.12,150.49Z" style="fill:#263238"></path><path d="M207.65,138.05a.36.36,0,0,1-.18-.07.35.35,0,0,1-.09-.49,4.15,4.15,0,0,1,3.33-1.86.36.36,0,0,1,.35.37.36.36,0,0,1-.37.34A3.45,3.45,0,0,0,208,137.9.36.36,0,0,1,207.65,138.05Z" style="fill:#263238"></path><path d="M222.87,135.63a.34.34,0,0,1-.17,0,3.49,3.49,0,0,0-3.12-.42.36.36,0,0,1-.47-.18.35.35,0,0,1,.18-.46,4.12,4.12,0,0,1,3.79.46.36.36,0,0,1,.11.49A.36.36,0,0,1,222.87,135.63Z" style="fill:#263238"></path><path d="M185.53,181.6c-1.5,2.17-3.09,4.39-4.58,6.62s-3,4.43-4.49,6.68-2.86,4.48-4.13,6.73c-.64,1.12-1.25,2.24-1.78,3.33l-.38.81-.1.2,0,.1s0,.09,0,0a1.31,1.31,0,0,0,.06-.27,1.42,1.42,0,0,0,0-.36,2.55,2.55,0,0,0-.34-1.46c-.21-.32-.3-.37-.31-.37a2.41,2.41,0,0,0,.69.47,13.49,13.49,0,0,0,1.44.62,33.43,33.43,0,0,0,3.52,1c2.48.64,5.1,1.1,7.74,1.54,5.28.84,10.71,1.55,16.08,2.17l-.08,4.8a141.93,141.93,0,0,1-16.76.14,84.48,84.48,0,0,1-8.54-.84,39.21,39.21,0,0,1-4.46-1,18.58,18.58,0,0,1-2.41-.82,10.81,10.81,0,0,1-2.82-1.64,7,7,0,0,1-1.65-1.93,6.09,6.09,0,0,1-.79-3.42,6.42,6.42,0,0,1,.12-.88c.06-.25.13-.51.21-.76l.08-.23.06-.14.1-.27.41-1.09c.58-1.41,1.18-2.76,1.83-4.06,1.3-2.59,2.66-5.09,4.12-7.5s2.95-4.78,4.48-7.11,3.13-4.6,4.85-6.87Z" style="fill:#7f3e3b"></path><path d="M196.24,210.39l7.32-3.29-.25,7.91s-5.07,1.47-7.85-1Z" style="fill:#7f3e3b"></path><polygon points="207.84 207.95 206.32 214.88 203.31 215.01 203.56 207.1 207.84 207.95" style="fill:#7f3e3b"></polygon><path d="M186.38,184.42l-4,3.31c.09,3,.11,5.68.08,8.16C184.88,194.25,186.75,187.63,186.38,184.42Z" style="fill:#7AD579;opacity:0.4"></path><path d="M181.22,167.67c-4.5.49-11.57,12.85-11.57,12.85l12.51,12.85s7.6-11.12,7.51-17C189.59,171.47,187,167,181.22,167.67Z" style="fill:#7AD579"></path><path d="M181.22,167.67c-4.5.49-11.57,12.85-11.57,12.85l12.51,12.85s7.6-11.12,7.51-17C189.59,171.47,187,167,181.22,167.67Z" style="fill:#fff;opacity:0.30000000000000004"></path><path d="M120.48,385.1a.81.81,0,0,1-.34-.08c-1-.43-1.61-2.44-1.86-3.61a.16.16,0,0,1,.07-.18.17.17,0,0,1,.19,0c.32.19,3.06,1.89,3.08,3a.69.69,0,0,1-.34.61A1.28,1.28,0,0,1,120.48,385.1Zm-1.76-3.34c.39,1.61,1,2.69,1.55,2.93a.82.82,0,0,0,.81-.12.36.36,0,0,0,.19-.31C121.25,383.57,119.66,382.37,118.72,381.76Z" style="fill:#7AD579"></path><path d="M121.1,382.36a6.43,6.43,0,0,1-2.75-.84.16.16,0,0,1-.07-.16.15.15,0,0,1,.1-.14c.1-.05,2.43-1.14,3.61-.63a1.06,1.06,0,0,1,.62.67.7.7,0,0,1-.21.86A2,2,0,0,1,121.1,382.36Zm-2.26-1c.94.48,2.79.85,3.35.44.09-.07.18-.18.09-.47a.71.71,0,0,0-.43-.45C121.05,380.57,119.5,381.13,118.84,381.4Z" style="fill:#7AD579"></path><path d="M182,408.46a14.32,14.32,0,0,1-2.91-.37.18.18,0,0,1-.14-.15.17.17,0,0,1,.1-.18c.44-.21,4.31-2,5.28-1.33a.57.57,0,0,1,.26.54,1.3,1.3,0,0,1-.53,1A3.47,3.47,0,0,1,182,408.46Zm-2.3-.6c1.15.21,3.27.49,4.15-.17a.94.94,0,0,0,.38-.74c0-.14,0-.2-.09-.23C183.62,406.35,181.33,407.15,179.73,407.86Z" style="fill:#7AD579"></path><path d="M179.16,408.1a.28.28,0,0,1-.12,0,.18.18,0,0,1,0-.18c0-.16.91-4,3-3.73.53.06.67.32.7.53.13,1-2.31,2.93-3.48,3.4Zm2.65-3.61c-1.34,0-2.12,2.22-2.38,3.11,1.26-.66,3-2.25,2.92-2.88,0,0,0-.18-.39-.22Z" style="fill:#7AD579"></path><path d="M212.2,140.36l1.66-.72S213.15,141.11,212.2,140.36Z" style="fill:#263238"></path></g><g id="freepik--Book--inject-173"><path d="M270.17,125.06l108.53,15.6a4,4,0,0,1,3.39,4.53L343,417a4,4,0,0,1-4.53,3.39L230,404.84a4,4,0,0,1-3.39-4.53l39.07-271.86A4,4,0,0,1,270.17,125.06Z" style="fill:#7AD579"></path><path d="M270.17,125.06l108.53,15.6a4,4,0,0,1,3.39,4.53L343,417a4,4,0,0,1-4.53,3.39L230,404.84a4,4,0,0,1-3.39-4.53l39.07-271.86A4,4,0,0,1,270.17,125.06Z" style="opacity:0.2"></path><path d="M378.19,140.59l.51.07a4,4,0,0,1,3.39,4.53L343,417a4,4,0,0,1-4.53,3.39l-.51-.07a4,4,0,0,1-3.39-4.53L373.66,144A4,4,0,0,1,378.19,140.59Z" style="opacity:0.30000000000000004"></path><rect x="254" y="137.66" width="104.87" height="270.78" transform="matrix(0.99, 0.14, -0.14, 0.99, 41.96, -40.81)" style="fill:#fff"></rect><polygon points="273.79 131.58 374.79 146.09 336.49 412.57 235.27 399.61 273.79 131.58" style="fill:#7AD579;opacity:0.2"></polygon><polygon points="273.79 131.58 372.76 142.52 334.24 410.55 235.27 399.61 273.79 131.58" style="fill:#fff"></polygon><polygon points="273.79 131.58 370.02 142.13 330.84 408.82 235.27 399.61 273.79 131.58" style="fill:#7AD579;opacity:0.2"></polygon><polygon points="273.79 131.58 369.05 140.71 329.55 407.4 235.27 399.61 273.79 131.58" style="fill:#fff"></polygon><polygon points="273.79 131.58 365.18 140.34 326.4 405.71 235.27 399.61 273.79 131.58" style="fill:#7AD579;opacity:0.2"></polygon><polygon points="273.79 131.58 362.22 139.24 323 404.64 235.27 399.61 273.79 131.58" style="fill:#fff"></polygon><polygon points="273.79 131.58 355.87 138.69 316.64 404.27 235.27 399.61 273.79 131.58" style="fill:#7AD579;opacity:0.2"></polygon><rect x="297.02" y="119.4" width="1.06" height="6.58" transform="translate(154.92 411.22) rotate(-86.1)" style="fill:#7AD579"></rect><rect x="316.27" y="114.28" width="1.06" height="19.44" transform="translate(171.56 431.65) rotate(-86.1)" style="fill:#7AD579"></rect><path d="M348.47,129.36l-86.7-5.9a5.69,5.69,0,0,0-6,4.86L217.17,396.81a5.69,5.69,0,0,0,5.24,6.48l86.7,5.91a5.69,5.69,0,0,0,6-4.87l38.59-268.48A5.7,5.7,0,0,0,348.47,129.36Z" style="fill:#7AD579"></path><path d="M302.94,400.91h-.24l-77.09-5.25a3.58,3.58,0,0,1-3.29-4.07l37.22-258.95a3.56,3.56,0,0,1,3.77-3l77.09,5.25a3.56,3.56,0,0,1,3.29,4.07L306.48,397.84A3.59,3.59,0,0,1,302.94,400.91ZM263.07,130.63a2.52,2.52,0,0,0-2.48,2.15l-37.22,259a2.53,2.53,0,0,0,2.32,2.86l77.08,5.25a2.54,2.54,0,0,0,2.66-2.15l37.21-258.94a2.48,2.48,0,0,0-.53-1.93,2.51,2.51,0,0,0-1.78-.93l-77.09-5.25Z" style="fill:#fff;opacity:0.2"></path></g></svg>