<svg xmlns="http://www.w3.org/2000/svg" viewBox="0 0 500 500"><g id="freepik--background-simple--inject-65"><path d="M99.92,232.61,272.78,87a59.36,59.36,0,0,1,86.05,10.19l61.28,83.17a59.38,59.38,0,0,1-23.27,89.29L184.18,366.1A79.68,79.68,0,0,1,75.35,317.77h0A79.68,79.68,0,0,1,99.92,232.61Z" style="fill:#7AD579"></path><path d="M99.92,232.61,272.78,87a59.36,59.36,0,0,1,86.05,10.19l61.28,83.17a59.38,59.38,0,0,1-23.27,89.29L184.18,366.1A79.68,79.68,0,0,1,75.35,317.77h0A79.68,79.68,0,0,1,99.92,232.61Z" style="fill:#fff;opacity:0.9"></path></g><g id="freepik--Shadow--inject-65"><ellipse id="freepik--path--inject-65" cx="245.18" cy="412.39" rx="193.89" ry="11.32" style="fill:#f5f5f5"></ellipse></g><g id="freepik--Device--inject-65"><path d="M296.9,378,275,329.45h-51.2l7.86,45.43a4.1,4.1,0,0,1-4,4.8H205.18a2.17,2.17,0,0,0-2.17,2.17v2.42a2.17,2.17,0,0,0,2.17,2.17h90.14a2.36,2.36,0,0,0,2.36-2.36v-2.51A8.78,8.78,0,0,0,296.9,378Zm-23.71-6H248.61a3.28,3.28,0,0,1-3.24-2.73l-3.71-21.43a3.29,3.29,0,0,1,3.25-3.85H263.5a3.3,3.3,0,0,1,3,1.93l9.69,21.43A3.3,3.3,0,0,1,273.19,372Z" style="fill:#7AD579"></path><path d="M296.9,378,275,329.45h-51.2l7.86,45.43a4.1,4.1,0,0,1-4,4.8H205.18a2.17,2.17,0,0,0-2.17,2.17v2.42a2.17,2.17,0,0,0,2.17,2.17h90.14a2.36,2.36,0,0,0,2.36-2.36v-2.51A8.78,8.78,0,0,0,296.9,378Zm-23.71-6H248.61a3.28,3.28,0,0,1-3.24-2.73l-3.71-21.43a3.29,3.29,0,0,1,3.25-3.85H263.5a3.3,3.3,0,0,1,3,1.93l9.69,21.43A3.3,3.3,0,0,1,273.19,372Z" style="fill:#fff;opacity:0.2"></path><path d="M247.8,343.94h-2.89a3.29,3.29,0,0,0-3.25,3.85l3.71,21.43a3.28,3.28,0,0,0,3.24,2.73h2.9a3.28,3.28,0,0,1-3.24-2.73l-3.71-21.43A3.29,3.29,0,0,1,247.8,343.94Z" style="fill:#7AD579"></path><path d="M299.8,378l-21.92-48.51H275L296.9,378a8.78,8.78,0,0,1,.78,3.61v2.51a2.36,2.36,0,0,1-2.36,2.36h2.9a2.36,2.36,0,0,0,2.36-2.36v-2.51A8.78,8.78,0,0,0,299.8,378Z" style="fill:#7AD579"></path><g style="opacity:0.2"><path d="M247.8,343.94h-2.89a3.29,3.29,0,0,0-3.25,3.85l3.71,21.43a3.28,3.28,0,0,0,3.24,2.73h2.9a3.28,3.28,0,0,1-3.24-2.73l-3.71-21.43A3.29,3.29,0,0,1,247.8,343.94Z"></path><path d="M299.8,378l-21.92-48.51H275L296.9,378a8.78,8.78,0,0,1,.78,3.61v2.51a2.36,2.36,0,0,1-2.36,2.36h2.9a2.36,2.36,0,0,0,2.36-2.36v-2.51A8.78,8.78,0,0,0,299.8,378Z"></path></g><polygon points="274.98 329.45 223.78 329.45 225.79 341.04 280.22 341.04 274.98 329.45" style="opacity:0.2"></polygon><path d="M348.43,334.54H130a7.19,7.19,0,0,1-7.28-8l13.8-157.84a8.89,8.89,0,0,1,8.69-8H363.64a7.19,7.19,0,0,1,7.28,8L357.11,326.55A8.88,8.88,0,0,1,348.43,334.54Z" style="fill:#7AD579"></path><path d="M348.43,334.54H130a7.19,7.19,0,0,1-7.28-8l13.8-157.84a8.89,8.89,0,0,1,8.69-8H363.64a7.19,7.19,0,0,1,7.28,8L357.11,326.55A8.88,8.88,0,0,1,348.43,334.54Z" style="fill:#fff;opacity:0.5"></path><path d="M124.2,309.49l-1.49,17.06a7.19,7.19,0,0,0,7.28,8H348.43a8.88,8.88,0,0,0,8.68-8l1.5-17.06Z" style="fill:#7AD579"></path><path d="M124.2,309.49l-1.49,17.06a7.19,7.19,0,0,0,7.28,8H348.43a8.88,8.88,0,0,0,8.68-8l1.5-17.06Z" style="fill:#fff;opacity:0.7000000000000001"></path><path d="M350.9,304.66H132.75a3.9,3.9,0,0,1-3.95-4.33l11.41-130.45a4.82,4.82,0,0,1,4.71-4.33H363.07a3.9,3.9,0,0,1,3.95,4.33L355.61,300.33A4.82,4.82,0,0,1,350.9,304.66Z" style="fill:#7AD579"></path><path d="M350.9,304.66H132.75a3.9,3.9,0,0,1-3.95-4.33l11.41-130.45a4.82,4.82,0,0,1,4.71-4.33H363.07a3.9,3.9,0,0,1,3.95,4.33L355.61,300.33A4.82,4.82,0,0,1,350.9,304.66Z" style="fill:#fff;opacity:0.8"></path><path d="M368.47,160.73h-4.83a7.19,7.19,0,0,1,7.28,8L357.11,326.55a8.88,8.88,0,0,1-8.68,8h4.83a8.88,8.88,0,0,0,8.68-8l13.81-157.84A7.19,7.19,0,0,0,368.47,160.73Z" style="fill:#7AD579"></path><path d="M368.47,160.73h-4.83a7.19,7.19,0,0,1,7.28,8L357.11,326.55a8.88,8.88,0,0,1-8.68,8h4.83a8.88,8.88,0,0,0,8.68-8l13.81-157.84A7.19,7.19,0,0,0,368.47,160.73Z" style="fill:#fff;opacity:0.2"></path><path d="M236.77,244.89a30,30,0,0,0,.07-4l5.26-2.79a34.17,34.17,0,0,0-.84-4.68l-5.74.1a26.75,26.75,0,0,0-3.41-6.95l3.37-4.92a30.75,30.75,0,0,0-3.13-3.43l-5.17,2.95a26.8,26.8,0,0,0-6.6-4l.6-5.73a32.72,32.72,0,0,0-4.57-1.25l-3.23,5a29,29,0,0,0-4-.27,30,30,0,0,0-4,.27l-2.35-5a37,37,0,0,0-4.79,1.25l-.41,5.73a33.7,33.7,0,0,0-7.3,4l-4.66-2.95a41.75,41.75,0,0,0-3.73,3.43l2.52,4.92a33.52,33.52,0,0,0-4.63,6.95l-5.72-.1a38.23,38.23,0,0,0-1.66,4.68l4.77,2.79a31.29,31.29,0,0,0-.63,4,30.14,30.14,0,0,0-.08,4l-5.25,2.78a32.22,32.22,0,0,0,.84,4.68l5.74-.09a26.75,26.75,0,0,0,3.41,7l-3.38,4.91a30.92,30.92,0,0,0,3.14,3.43l5.17-2.94a26.74,26.74,0,0,0,6.59,4l-.59,5.73a32.72,32.72,0,0,0,4.57,1.25l3.23-5a30.45,30.45,0,0,0,4,.27,31.75,31.75,0,0,0,4-.27l2.35,5a37,37,0,0,0,4.79-1.25l.41-5.73a33.94,33.94,0,0,0,7.3-4l4.65,2.94a39.07,39.07,0,0,0,3.73-3.43l-2.51-4.91a33.52,33.52,0,0,0,4.63-7l5.72.09a37.08,37.08,0,0,0,1.66-4.68l-4.77-2.78A31.45,31.45,0,0,0,236.77,244.89Zm-30.89,10.2a9.19,9.19,0,0,1-9.31-10.2,11.36,11.36,0,0,1,11.09-10.2,9.2,9.2,0,0,1,9.31,10.2A11.35,11.35,0,0,1,205.88,255.09Z" style="fill:#7AD579"></path><path d="M236.77,244.89a30,30,0,0,0,.07-4l5.26-2.79a34.17,34.17,0,0,0-.84-4.68l-5.74.1a26.75,26.75,0,0,0-3.41-6.95l3.37-4.92a30.75,30.75,0,0,0-3.13-3.43l-5.17,2.95a26.8,26.8,0,0,0-6.6-4l.6-5.73a32.72,32.72,0,0,0-4.57-1.25l-3.23,5a29,29,0,0,0-4-.27,30,30,0,0,0-4,.27l-2.35-5a37,37,0,0,0-4.79,1.25l-.41,5.73a33.7,33.7,0,0,0-7.3,4l-4.66-2.95a41.75,41.75,0,0,0-3.73,3.43l2.52,4.92a33.52,33.52,0,0,0-4.63,6.95l-5.72-.1a38.23,38.23,0,0,0-1.66,4.68l4.77,2.79a31.29,31.29,0,0,0-.63,4,30.14,30.14,0,0,0-.08,4l-5.25,2.78a32.22,32.22,0,0,0,.84,4.68l5.74-.09a26.75,26.75,0,0,0,3.41,7l-3.38,4.91a30.92,30.92,0,0,0,3.14,3.43l5.17-2.94a26.74,26.74,0,0,0,6.59,4l-.59,5.73a32.72,32.72,0,0,0,4.57,1.25l3.23-5a30.45,30.45,0,0,0,4,.27,31.75,31.75,0,0,0,4-.27l2.35,5a37,37,0,0,0,4.79-1.25l.41-5.73a33.94,33.94,0,0,0,7.3-4l4.65,2.94a39.07,39.07,0,0,0,3.73-3.43l-2.51-4.91a33.52,33.52,0,0,0,4.63-7l5.72.09a37.08,37.08,0,0,0,1.66-4.68l-4.77-2.78A31.45,31.45,0,0,0,236.77,244.89Zm-30.89,10.2a9.19,9.19,0,0,1-9.31-10.2,11.36,11.36,0,0,1,11.09-10.2,9.2,9.2,0,0,1,9.31,10.2A11.35,11.35,0,0,1,205.88,255.09Z" style="fill:#fff;opacity:0.4"></path><path d="M318.63,213a28.51,28.51,0,0,0,.1-3l8.74-4.63a36.45,36.45,0,0,0-.69-3.83l-9.55.16a25,25,0,0,0-2.6-5.29l5.62-8.18a33.84,33.84,0,0,0-2.56-2.8l-8.6,4.9a25.33,25.33,0,0,0-5-3.06l1-9.53a34.85,34.85,0,0,0-3.74-1L296,185a27.59,27.59,0,0,0-3-.17,28.43,28.43,0,0,0-3.07.17l-3.9-8.33a39.35,39.35,0,0,0-3.91,1l-.68,9.53a31.64,31.64,0,0,0-5.56,3.06l-7.75-4.9c-1.06.89-2.07,1.82-3,2.8l4.18,8.18a32.43,32.43,0,0,0-3.52,5.29l-9.52-.16c-.51,1.25-1,2.52-1.36,3.83l7.93,4.63a30.66,30.66,0,0,0-.43,3,28.78,28.78,0,0,0-.1,3.06l-8.74,4.63a33.86,33.86,0,0,0,.69,3.82l9.54-.15a25.49,25.49,0,0,0,2.6,5.29l-5.62,8.17a34.12,34.12,0,0,0,2.56,2.81l8.6-4.91a24.94,24.94,0,0,0,5,3.06l-1,9.53a32.53,32.53,0,0,0,3.73,1L285,241a27.73,27.73,0,0,0,3,.17,28.28,28.28,0,0,0,3.07-.17l3.91,8.34a37.46,37.46,0,0,0,3.91-1l.68-9.53a31.35,31.35,0,0,0,5.56-3.06l7.74,4.91c1.06-.89,2.08-1.82,3.05-2.81l-4.19-8.17a31.19,31.19,0,0,0,3.52-5.29l9.52.15a38.46,38.46,0,0,0,1.36-3.82l-7.93-4.63A27.83,27.83,0,0,0,318.63,213ZM289.41,225A10.76,10.76,0,0,1,278.52,213a13.29,13.29,0,0,1,13-11.94A10.77,10.77,0,0,1,302.4,213,13.29,13.29,0,0,1,289.41,225Z" style="fill:#7AD579"></path><path d="M318.63,213a28.51,28.51,0,0,0,.1-3l8.74-4.63a36.45,36.45,0,0,0-.69-3.83l-9.55.16a25,25,0,0,0-2.6-5.29l5.62-8.18a33.84,33.84,0,0,0-2.56-2.8l-8.6,4.9a25.33,25.33,0,0,0-5-3.06l1-9.53a34.85,34.85,0,0,0-3.74-1L296,185a27.59,27.59,0,0,0-3-.17,28.43,28.43,0,0,0-3.07.17l-3.9-8.33a39.35,39.35,0,0,0-3.91,1l-.68,9.53a31.64,31.64,0,0,0-5.56,3.06l-7.75-4.9c-1.06.89-2.07,1.82-3,2.8l4.18,8.18a32.43,32.43,0,0,0-3.52,5.29l-9.52-.16c-.51,1.25-1,2.52-1.36,3.83l7.93,4.63a30.66,30.66,0,0,0-.43,3,28.78,28.78,0,0,0-.1,3.06l-8.74,4.63a33.86,33.86,0,0,0,.69,3.82l9.54-.15a25.49,25.49,0,0,0,2.6,5.29l-5.62,8.17a34.12,34.12,0,0,0,2.56,2.81l8.6-4.91a24.94,24.94,0,0,0,5,3.06l-1,9.53a32.53,32.53,0,0,0,3.73,1L285,241a27.73,27.73,0,0,0,3,.17,28.28,28.28,0,0,0,3.07-.17l3.91,8.34a37.46,37.46,0,0,0,3.91-1l.68-9.53a31.35,31.35,0,0,0,5.56-3.06l7.74,4.91c1.06-.89,2.08-1.82,3.05-2.81l-4.19-8.17a31.19,31.19,0,0,0,3.52-5.29l9.52.15a38.46,38.46,0,0,0,1.36-3.82l-7.93-4.63A27.83,27.83,0,0,0,318.63,213ZM289.41,225A10.76,10.76,0,0,1,278.52,213a13.29,13.29,0,0,1,13-11.94A10.77,10.77,0,0,1,302.4,213,13.29,13.29,0,0,1,289.41,225Z" style="fill:#fff;opacity:0.30000000000000004"></path><path d="M279.2,269.37a20,20,0,0,0,.07-2l5.81-3.08c-.11-.86-.27-1.71-.46-2.54l-6.34.11a17.44,17.44,0,0,0-1.73-3.52l3.73-5.43a21.28,21.28,0,0,0-1.7-1.86l-5.71,3.25a17.11,17.11,0,0,0-3.34-2l.66-6.33a22.66,22.66,0,0,0-2.48-.68l-3.56,5.54a16.86,16.86,0,0,0-2-.11,17.2,17.2,0,0,0-2,.11l-2.59-5.54a25.45,25.45,0,0,0-2.6.68l-.45,6.33a21.43,21.43,0,0,0-3.7,2L245.61,251c-.71.59-1.38,1.21-2,1.86l2.78,5.43a21.26,21.26,0,0,0-2.33,3.52l-6.33-.11c-.34.83-.64,1.68-.9,2.54l5.27,3.08a19.07,19.07,0,0,0-.29,2,19.77,19.77,0,0,0-.07,2l-5.81,3.07a25.36,25.36,0,0,0,.46,2.54l6.35-.1a16.89,16.89,0,0,0,1.72,3.52l-3.73,5.43a23,23,0,0,0,1.7,1.86l5.71-3.26a16.64,16.64,0,0,0,3.34,2l-.66,6.34c.81.26,1.63.49,2.48.68l3.56-5.54a19.23,19.23,0,0,0,2,.11,19.61,19.61,0,0,0,2-.11l2.6,5.54c.88-.19,1.74-.42,2.6-.68l.44-6.34a20.77,20.77,0,0,0,3.7-2l5.14,3.26c.71-.59,1.38-1.21,2-1.86l-2.78-5.43a21.31,21.31,0,0,0,2.34-3.52l6.32.1a23.86,23.86,0,0,0,.9-2.54l-5.27-3.07A19.84,19.84,0,0,0,279.2,269.37Zm-19.68,11.06a10,10,0,0,1-10.09-11.06,12.32,12.32,0,0,1,12-11.06,10,10,0,0,1,10.09,11.06A12.32,12.32,0,0,1,259.52,280.43Z" style="fill:#7AD579"></path><path d="M279.2,269.37a20,20,0,0,0,.07-2l5.81-3.08c-.11-.86-.27-1.71-.46-2.54l-6.34.11a17.44,17.44,0,0,0-1.73-3.52l3.73-5.43a21.28,21.28,0,0,0-1.7-1.86l-5.71,3.25a17.11,17.11,0,0,0-3.34-2l.66-6.33a22.66,22.66,0,0,0-2.48-.68l-3.56,5.54a16.86,16.86,0,0,0-2-.11,17.2,17.2,0,0,0-2,.11l-2.59-5.54a25.45,25.45,0,0,0-2.6.68l-.45,6.33a21.43,21.43,0,0,0-3.7,2L245.61,251c-.71.59-1.38,1.21-2,1.86l2.78,5.43a21.26,21.26,0,0,0-2.33,3.52l-6.33-.11c-.34.83-.64,1.68-.9,2.54l5.27,3.08a19.07,19.07,0,0,0-.29,2,19.77,19.77,0,0,0-.07,2l-5.81,3.07a25.36,25.36,0,0,0,.46,2.54l6.35-.1a16.89,16.89,0,0,0,1.72,3.52l-3.73,5.43a23,23,0,0,0,1.7,1.86l5.71-3.26a16.64,16.64,0,0,0,3.34,2l-.66,6.34c.81.26,1.63.49,2.48.68l3.56-5.54a19.23,19.23,0,0,0,2,.11,19.61,19.61,0,0,0,2-.11l2.6,5.54c.88-.19,1.74-.42,2.6-.68l.44-6.34a20.77,20.77,0,0,0,3.7-2l5.14,3.26c.71-.59,1.38-1.21,2-1.86l-2.78-5.43a21.31,21.31,0,0,0,2.34-3.52l6.32.1a23.86,23.86,0,0,0,.9-2.54l-5.27-3.07A19.84,19.84,0,0,0,279.2,269.37Zm-19.68,11.06a10,10,0,0,1-10.09-11.06,12.32,12.32,0,0,1,12-11.06,10,10,0,0,1,10.09,11.06A12.32,12.32,0,0,1,259.52,280.43Z" style="fill:#fff;opacity:0.5"></path><path d="M237.67,190.16a8.85,8.85,0,0,1-8.65,8,7.17,7.17,0,0,1-7.26-8,8.85,8.85,0,0,1,8.65-8A7.17,7.17,0,0,1,237.67,190.16Z" style="fill:#7AD579"></path><path d="M237.67,190.16a8.85,8.85,0,0,1-8.65,8,7.17,7.17,0,0,1-7.26-8,8.85,8.85,0,0,1,8.65-8A7.17,7.17,0,0,1,237.67,190.16Z" style="fill:#fff;opacity:0.4"></path><path d="M313.85,285.56a8.87,8.87,0,0,1-8.66,8,7.18,7.18,0,0,1-7.26-8,8.85,8.85,0,0,1,8.65-8A7.18,7.18,0,0,1,313.85,285.56Z" style="fill:#7AD579"></path><path d="M313.85,285.56a8.87,8.87,0,0,1-8.66,8,7.18,7.18,0,0,1-7.26-8,8.85,8.85,0,0,1,8.65-8A7.18,7.18,0,0,1,313.85,285.56Z" style="fill:#fff;opacity:0.7000000000000001"></path><ellipse cx="320.26" cy="259.31" rx="12.61" ry="11.56" transform="translate(-90.4 293.45) rotate(-43.75)" style="fill:#7AD579"></ellipse><ellipse cx="320.26" cy="259.31" rx="12.61" ry="11.56" transform="translate(-90.4 293.45) rotate(-43.75)" style="fill:#fff;opacity:0.6000000000000001"></ellipse><ellipse cx="172.25" cy="194.31" rx="18.39" ry="16.85" transform="translate(-86.54 173.05) rotate(-43.75)" style="fill:#7AD579"></ellipse><ellipse cx="172.25" cy="194.31" rx="18.39" ry="16.85" transform="translate(-86.54 173.05) rotate(-43.75)" style="fill:#fff;opacity:0.6000000000000001"></ellipse><g style="opacity:0.30000000000000004"><polygon points="277.12 165.55 268.73 165.55 239.16 304.67 247.55 304.67 277.12 165.55" style="fill:#fff"></polygon><polygon points="230.68 304.67 260.25 165.55 228.73 165.55 199.16 304.67 230.68 304.67" style="fill:#fff"></polygon></g><path d="M169.17,157.77H220a.38.38,0,0,0,0-.75H169.17a.38.38,0,0,0,0,.75Z" style="fill:#7AD579"></path><path d="M227.34,157.77h9.18a.38.38,0,0,0,0-.75h-9.18a.38.38,0,0,0,0,.75Z" style="fill:#7AD579"></path><path d="M212.83,310.1H263.7a.38.38,0,0,0,0-.75H212.83a.38.38,0,0,0,0,.75Z" style="fill:#7AD579"></path><path d="M271,310.1h9.18a.38.38,0,0,0,0-.75H271a.38.38,0,0,0,0,.75Z" style="fill:#7AD579"></path></g><g id="freepik--character-1--inject-65"><path d="M146.42,196.31l3-5.59s-1.61-3.45-.85-5.81,2.27-2.24,2.72-3.92,2.77-1.92,2.77-1.92,5.35,5.84,4.26,8.37-4.49,5.54-4.49,5.54l-3.12,7.2Z" style="fill:#ffb573"></path><path d="M114.75,167.81s5.33-.52,8.83,6.48,12.67,27.18,15.5,26.93,7.77-7.41,7.77-7.41,2.07-.19,5.57,4.81c0,0-6,13.17-15.34,13.17-8.12,0-17.16-15.83-17.16-15.83S111.92,175.32,114.75,167.81Z" style="fill:#263238"></path><path d="M118.77,192.78c.67,1.95,1.15,3.18,1.15,3.18a62.44,62.44,0,0,0,6,8.43c-2.06-9.27-6.65-23.68-6.65-23.68Z" style="opacity:0.2"></path><path d="M88.94,166c3-3.44,2-10.26,1.14-15l9.41,8c-.95,3.83-1.11,6.06,4.4,7.38l6.47,1.38,1.67,6.74s-3.09,3.59-4.34,4-9.33.5-9.33.5l-5.26-.83s-6.74-4.5-6.91-4.92a40.6,40.6,0,0,0-3-3.25l-.45-2.63L88,166.5A1.64,1.64,0,0,0,88.94,166Z" style="fill:#ffb573"></path><path d="M93.9,154.24l5.53,4.8a14.74,14.74,0,0,0-.47,2.72c-2.11-.31-5.41-2.1-5.86-4.38A6.6,6.6,0,0,1,93.9,154.24Z" style="opacity:0.2;isolation:isolate"></path><path d="M84,143.41c2.11,7.75,2.84,11.07,7.64,14.27,7.23,4.82,16.28.52,16.53-7.7.22-7.4-3.28-18.87-11.62-20.35A11,11,0,0,0,84,143.41Z" style="fill:#ffb573"></path><path d="M96.94,142.86c.14.64.58,1.09,1,1s.65-.68.52-1.32-.59-1.09-1-1S96.84,142.25,96.94,142.86Z" style="fill:#263238"></path><path d="M104.16,141.38c.14.65.58,1.08,1,1s.65-.68.52-1.32-.59-1.08-1-1S104,140.74,104.16,141.38Z" style="fill:#263238"></path><path d="M102.17,143a17.4,17.4,0,0,0,3.14,3.6,2.82,2.82,0,0,1-2.2.9Z" style="fill:#ed893e"></path><path d="M103,151.69a6,6,0,0,0,.95-.13.2.2,0,0,0,.16-.22h0a.19.19,0,0,0-.23-.15,5.19,5.19,0,0,1-4.54-1.12.19.19,0,1,0-.27.27A5.37,5.37,0,0,0,103,151.69Z" style="fill:#263238"></path><path d="M93.73,142a.39.39,0,0,0,.36-.29,4.54,4.54,0,0,1,2.61-2.51.39.39,0,0,0,.24-.5.38.38,0,0,0-.48-.23h0a5.25,5.25,0,0,0-3.1,3,.38.38,0,0,0,.27.46h0A.25.25,0,0,0,93.73,142Z" style="fill:#263238"></path><path d="M105.63,137.6a.4.4,0,0,0,.33-.21.38.38,0,0,0-.16-.52,3.76,3.76,0,0,0-3.54-.1.37.37,0,0,0-.16.49l0,0a.38.38,0,0,0,.51.15h0a3.08,3.08,0,0,1,2.77.12A.42.42,0,0,0,105.63,137.6Z" style="fill:#263238"></path><path d="M94.55,242.4c3.46,30.73,13.23,57,16,76.34,2.7,19.07.24,21.71,14.94,80.57l12.61-3.15-9.36-81.62s-4-36.64-7.73-81.75C121,232.79,93.74,235.19,94.55,242.4Z" style="fill:#7AD579"></path><path d="M100.55,275.58c2.13,9.06,4.38,17.51,6.28,25.25,3.94-20.86,1.34-53.12,1.34-53.12Z" style="opacity:0.1"></path><path d="M82.87,237.36c-4.09,30.65-1.57,58.49-3,77.93-1.47,20-3.33,24.33-3.33,85h13l9-84.67s6.67-36.66,14-81.33C112.53,234.29,83.83,230.17,82.87,237.36Z" style="fill:#7AD579"></path><path d="M84.92,167s4.66,9.66,15.66,8.66,6.67-8.66,6.67-8.66,8-.67,12,2.33,2,65.67,2,65.67-19,4-38.67,1.66c0,0-10.33-67-4-68.33Z" style="fill:#263238"></path><path d="M79.31,212.63l1-31.92-3.58,5.46C77.24,194.26,78.26,203.93,79.31,212.63Z" style="opacity:0.4"></path><polygon points="79 395.93 78.58 408.89 85.41 408.58 86.42 396.85 79 395.93" style="fill:#ffb573"></polygon><path d="M86.94,408.85a.18.18,0,0,1-.17-.13.21.21,0,0,1,.07-.21c.12-.08,2.69-1.92,4-1.7a1,1,0,0,1,.63.38.71.71,0,0,1,.1.81,3.38,3.38,0,0,1-2.25.83A13,13,0,0,1,86.94,408.85Zm.57-.31c1.48,0,3.46-.18,3.77-.73,0-.07.09-.18-.07-.4a.52.52,0,0,0-.39-.22,1.15,1.15,0,0,0-.37,0A8.76,8.76,0,0,0,87.51,408.54Z" style="fill:#7AD579"></path><path d="M86.84,408.85a.18.18,0,0,1-.1-.16c0-.1,0-2.23.91-3.16a1.38,1.38,0,0,1,1-.42c.52,0,.7.24.74.45.26.87-1.45,2.76-2.35,3.27a.1.1,0,0,1-.07,0A.15.15,0,0,1,86.84,408.85Zm1.72-3.38a1,1,0,0,0-.62.3,4.45,4.45,0,0,0-.79,2.52c.91-.68,2-2.14,1.91-2.66,0-.05-.06-.18-.39-.18l-.11,0Z" style="fill:#7AD579"></path><path d="M86,407.84l-8.57.88a.69.69,0,0,0-.62.6L76,416.45a1.15,1.15,0,0,0,1,1.29h.25c3.08-.37,5.81-.83,9.66-1.21,4.54-.47,3.44.19,8.78-.28,3.22-.28,3.44-4,2.06-4-6.32-.15-7.16-2-9.8-4A2.74,2.74,0,0,0,86,407.84Z" style="fill:#263238"></path><polygon points="78.94 397.97 78.78 402.83 85.88 403.16 86.22 399.26 78.94 397.97" style="opacity:0.1"></polygon><polygon points="75 395.16 75.36 400.81 90.67 401.63 91.81 395.84 75 395.16" style="fill:#263238"></polygon><polygon points="127.3 394.19 129.72 406.93 136.31 405.14 134.74 393.47 127.3 394.19" style="fill:#ffb573"></polygon><path d="M138.31,404.94a.2.2,0,0,1-.18-.12.18.18,0,0,1,.05-.21c.1-.09,2.5-2.17,3.86-2.07a1,1,0,0,1,.67.31.71.71,0,0,1,.17.8c-.24.48-1.2.85-2.16,1A15,15,0,0,1,138.31,404.94Zm.54-.37c1.48-.1,3.43-.5,3.69-1.08,0-.07.06-.19-.12-.39a.49.49,0,0,0-.41-.18,1.09,1.09,0,0,0-.36,0A8.65,8.65,0,0,0,138.85,404.57Z" style="fill:#7AD579"></path><path d="M138.21,405a.2.2,0,0,1-.12-.15c0-.1-.21-2.23.61-3.24a1.41,1.41,0,0,1,1-.51c.52-.05.73.17.79.38.33.84-1.2,2.88-2,3.48l-.08,0A.17.17,0,0,1,138.21,405Zm1.4-3.53a1,1,0,0,0-.59.35,4.41,4.41,0,0,0-.56,2.58c.85-.76,1.81-2.31,1.66-2.83,0,0-.07-.17-.41-.13l-.1,0Z" style="fill:#7AD579"></path><path d="M137.3,404l-8.45,1.67a.68.68,0,0,0-.56.66l-.17,7.18a1.16,1.16,0,0,0,1.12,1.19l.24,0c3-.66,5.71-1.36,9.51-2.1,4.47-.88,3.44-.12,8.72-1.09,3.18-.58,3-4.3,1.67-4.21-6.31.44-7.31-1.3-10.12-3A2.78,2.78,0,0,0,137.3,404Z" style="fill:#263238"></path><polygon points="127.68 396.2 128.59 400.97 135.59 399.75 135.06 395.87 127.68 396.2" style="opacity:0.1"></polygon><polygon points="123.23 394.31 124.81 399.75 139.93 397.21 139.77 391.31 123.23 394.31" style="fill:#263238"></polygon><path d="M85.5,147.51s3-3.35,2.78-6.29c0,0,2.39-1.37,3.47-5.45,0,0,13.62-.72,14.25-3.84s-3.44-2.52-3.44-2.52,4.38-1.68,1.59-4.21-6.12.73-6.12.73,2.94-5-1.12-5.17c-3.84-.15-4,6.33-6.11,6.13-1.33-.13-.63-5.89-5.3.6s-3.59,8.89-3.59,8.89-5.64.54-5.52,3.87,2,2.52,2.52,3.42-1.51,2,.2,3.84S85.5,147.51,85.5,147.51Z" style="fill:#263238"></path><path d="M83.12,149.89a5.74,5.74,0,0,0,3.53,2.62c2,.47,2.88-1.31,2.27-3.14-.56-1.64-2.25-3.86-4.2-3.55a2.59,2.59,0,0,0-1.6,4.07Z" style="fill:#ffb573"></path><path d="M82.35,137a4.44,4.44,0,0,1-.88-3.08c.08-2-2-1.4-1.76.28A3.19,3.19,0,0,0,82.35,137Z" style="fill:#263238"></path><path d="M160.64,194.06l2.57-.69,2.54,2.54a4.36,4.36,0,0,0-5.24-5.24l-4.77-4.77-3.82-3.82-4.77-4.77a4.36,4.36,0,0,0-5.24-5.24l2.54,2.54-.69,2.57-2.57.69-2.54-2.54a4.36,4.36,0,0,0,5.24,5.24l4.77,4.77,3.82,3.81,4.77,4.77a4.37,4.37,0,0,0,5.24,5.25L160,196.63Z" style="fill:#263238"></path><path d="M160.64,194.06l2.57-.69,2.54,2.54a4.36,4.36,0,0,0-5.24-5.24l-4.77-4.77-3.82-3.82-4.77-4.77a4.36,4.36,0,0,0-5.24-5.24l2.54,2.54-.69,2.57-2.57.69-2.54-2.54a4.36,4.36,0,0,0,5.24,5.24l4.77,4.77,3.82,3.81,4.77,4.77a4.37,4.37,0,0,0,5.24,5.25L160,196.63Z" style="fill:#fff;opacity:0.4"></path><path d="M99.54,225.67l3.75-4.28L101,219.05l-4.28,3.74-.54,1.05a3.81,3.81,0,0,1-.63.86l-5.18,5.18L92.46,232l5.18-5.18a3.6,3.6,0,0,1,.86-.63Z" style="fill:#263238"></path><path d="M99.54,225.67l3.75-4.28L101,219.05l-4.28,3.74-.54,1.05a3.81,3.81,0,0,1-.63.86l-5.18,5.18L92.46,232l5.18-5.18a3.6,3.6,0,0,1,.86-.63Z" style="fill:#fff;opacity:0.7000000000000001"></path><path d="M103.23,221.46l.06-.07L101,219.05l-.07,0c-.18.34.11,1,.72,1.64S102.9,221.64,103.23,221.46Z" style="fill:#263238"></path><path d="M103.23,221.46l.06-.07L101,219.05l-.07,0c-.18.34.11,1,.72,1.64S102.9,221.64,103.23,221.46Z" style="fill:#fff;opacity:0.4"></path><path d="M90.46,234.76,92,233.2l.09.1a.58.58,0,0,0,.81,0,.57.57,0,0,0,0-.82l-3.06-3.07a.58.58,0,0,0-.82.82l.1.09-1.56,1.56a1.68,1.68,0,0,0-1.55.55l-9,9c-1.07,1.07-.53,2.28.53,3.35s2.28,1.6,3.35.53l9-9A1.71,1.71,0,0,0,90.46,234.76Z" style="fill:#7AD579"></path><path d="M90.46,234.76,92,233.2l.09.1a.58.58,0,0,0,.81,0,.57.57,0,0,0,0-.82l-3.06-3.07a.58.58,0,0,0-.82.82l.1.09-1.56,1.56a1.68,1.68,0,0,0-1.55.55l-9,9c-1.07,1.07-.53,2.28.53,3.35s2.28,1.6,3.35.53l9-9A1.71,1.71,0,0,0,90.46,234.76Z" style="fill:#fff;opacity:0.4"></path><path d="M73.87,228.7l4.86,4.09s3.71-.86,5.85.37,1.73,2.68,3.28,3.46,1.3,3.12,1.3,3.12-6.81,4-9.07,2.44-4.49-5.55-4.49-5.55l-6.4-4.53Z" style="fill:#ffb573"></path><path d="M80.89,167.81s-11.47.65-16.64,14-11.83,25.5-8,36,13.33,16.83,13.33,16.83,5.23-2.5,7-7c0,0-10-8.33-8.53-15.5S79.25,188,79.25,188,91.52,172.32,80.89,167.81Z" style="fill:#263238"></path></g></svg>