<svg xmlns="http://www.w3.org/2000/svg" viewBox="0 0 500 500"><g id="freepik--background-simple--inject-108"><path d="M294.25,161.29C336.67,168.87,371.43,162.5,405,202c31.76,37.31,27.27,71.94,1.49,102.81-67.35,80.64-151.42-13.17-246.37-24C77.4,271.33,40.43,137,105.9,86.16,127,69.78,170,53.48,198.45,72.63,238.3,99.47,236,150.87,294.25,161.29Z" style="fill:#7AD579"></path><path d="M294.25,161.29C336.67,168.87,371.43,162.5,405,202c31.76,37.31,27.27,71.94,1.49,102.81-67.35,80.64-151.42-13.17-246.37-24C77.4,271.33,40.43,137,105.9,86.16,127,69.78,170,53.48,198.45,72.63,238.3,99.47,236,150.87,294.25,161.29Z" style="fill:#fff;opacity:0.9"></path></g><g id="freepik--Shadow--inject-108"><ellipse id="freepik--path--inject-108" cx="250" cy="416.24" rx="193.89" ry="11.32" style="fill:#f5f5f5"></ellipse></g><g id="freepik--Character--inject-108"><path d="M257.12,65.62l1.43-1.1a3.08,3.08,0,0,1,4.16.39l2.47,2.74a3.09,3.09,0,0,1,.45,3.46L265,72.43a5.78,5.78,0,0,1-4.42,3.09l-4,.51a7,7,0,0,1-5.76-1.92l-.94-.9C251.69,68.88,257.12,65.62,257.12,65.62Z" style="fill:#ffc3bd"></path><path d="M210.14,130.17l.07-1.37.08-1.25c.07-.82.16-1.64.25-2.45.18-1.62.43-3.22.7-4.83a87.8,87.8,0,0,1,2.2-9.51,73.42,73.42,0,0,1,3.36-9.3,59.36,59.36,0,0,1,4.77-8.91,19.68,19.68,0,0,1,2.05-2.61c.64-.71,1.27-1.31,1.9-1.9,1.24-1.15,2.48-2.2,3.71-3.21,2.47-2,5-3.85,7.52-5.65a182.83,182.83,0,0,1,15.64-9.88,3.47,3.47,0,0,1,4.11,5.52l0,0c-4.33,4.2-8.79,8.31-13.1,12.42-2.16,2-4.28,4.13-6.31,6.18-1,1-2,2.06-2.86,3.07-.42.5-.84,1-1.18,1.45a6.55,6.55,0,0,0-.68,1,68.16,68.16,0,0,0-5.6,15.36c-.66,2.71-1.22,5.47-1.67,8.25-.23,1.39-.42,2.78-.6,4.17l-.24,2.08-.11,1-.08.91,0,.35a6.95,6.95,0,0,1-13.86-1Z" style="fill:#ffc3bd"></path><path d="M272.15,97c17.08,14.41-5.45,27.8,10.44,43.23s27.79,26.55,14.76,42.07c-10.49,12.49-41.44,18.81-64.33-1.48s12.68-34.78-3.75-46.9,4.4-39.09,10.4-41.51C239.21,79.29,266.52,77.51,272.15,97Z" style="fill:#263238"></path><path d="M312.66,178.89a.59.59,0,0,1-.22,0c-10.48-5-12.23-12.87-13.92-20.5-1.61-7.25-3.26-14.75-12.15-20.44-13.09-8.38-10.4-16.06-8-22.84,2.25-6.43,4.2-12-6.92-17.51a.51.51,0,0,1-.23-.68.53.53,0,0,1,.69-.23c11.92,5.93,9.74,12.16,7.43,18.76s-4.8,13.69,7.61,21.64c9.24,5.92,10.95,13.62,12.6,21.08,1.71,7.73,3.33,15,13.36,19.79a.51.51,0,0,1,.24.68A.5.5,0,0,1,312.66,178.89Z" style="fill:#263238"></path><path d="M193.68,176.59s-14.21,43.77-22.37,75.11a45.53,45.53,0,0,0-1.46,11.8c.31,32.24,1,96.42,1,96.42l7.67,1.05s18.84-70,14.17-96.28c26.6-47.39,34.56-71.81,34.56-71.81Z" style="fill:#263238"></path><path d="M206.21,213.3l7.36,11.49q-4.53,9.47-10.94,21.67a96,96,0,0,0-2.6-28.38Z" style="opacity:0.2"></path><path d="M198.5,203c-3.46,6.51-1.92,13.9,1.49,20.43,6.52,12.47,21.57,33.25,28.93,52.55,6.25,16.4,71.49,46.28,78.75,52.3L313,323s-44-50.57-62.55-53.76c-5.39-63.13-24.08-79.91-24.08-79.91C213.28,186.94,204.31,192.08,198.5,203Z" style="fill:#263238"></path><path d="M316.67,321.85c-2.33-.58-4.37-2.58-8.25-6a1.28,1.28,0,0,0-2.06.48,48.84,48.84,0,0,1-4,8.34,1.29,1.29,0,0,0,.24,1.73c9.17,7.54,8,9.1,8.4,12.29.53,3.92-1.22,11.18,1.6,10.48,4-1,6.37-6.08,6.09-10.17-.24-3.49.09-7.68,1.15-10.29C320.76,326.5,320,322.69,316.67,321.85Z" style="fill:#7AD579"></path><path d="M181.5,364.27c-1-2.35-1-4.26,1.86-12.78a1.29,1.29,0,0,0-1-1.7c-2.83-.4-8.85-1.16-12-.86a1.29,1.29,0,0,0-1.18,1.42c.63,6.41-2.81,17.35-10.4,22.44-3.24,2.17-1.05,4,1.79,3.56,4.64-.65,7.74-3.12,11.29-5,2.26-1.21,4.71-.82,7.35-1.68A3.76,3.76,0,0,0,181.5,364.27Z" style="fill:#7AD579"></path><path d="M208.77,132.46c-1.53,3.55-10.93,8.93-6.41,16.88-2.61,7.42-5,14.82-8.68,27.25l35.38,17.17c3.38-10.68,9.2-21.88,24.77-42a9.94,9.94,0,0,0-2.66-14.53c-1.34-.83-2.78-1.68-4.28-2.49a124.24,124.24,0,0,0-16.06-7.79c-1.81-.69-3.71-1.34-5.54-1.93A13.51,13.51,0,0,0,208.77,132.46Z" style="fill:#7AD579"></path><path d="M230.83,126.91c-4.18-1.78-7.74-8.62-6.06-14.21-5.76.37-12.55,4-14.92,9.28-.94,5.4-1,16.14-1,16.14Z" style="fill:#7AD579"></path><path d="M332.5,141.74l1.45-1.07a3.08,3.08,0,0,0,.76-4.11l-2-3.12a3.08,3.08,0,0,0-3.21-1.38l-1.45.28a5.77,5.77,0,0,0-4.18,3.41l-1.58,3.69a7,7,0,0,0,.27,6.06l.62,1.15C327.88,146.07,332.5,141.74,332.5,141.74Z" style="fill:#ffc3bd"></path><path d="M250,139.39l18.72,2c3.11.31,6.22.65,9.3.92l4.59.36c1.49.11,3.13.2,4.15.19,2.77-.12,6-.4,9.05-.73l9.4-1c6.3-.67,12.65-1.34,19-1.82h0a3.47,3.47,0,0,1,1.34,6.76c-6.14,2-12.31,3.7-18.55,5.25-3.12.78-6.26,1.5-9.44,2.18s-6.32,1.31-9.89,1.73c-2.17.2-3.71.21-5.4.24s-3.32,0-5,0c-3.27-.07-6.52-.19-9.75-.4-6.48-.4-12.85-1-19.29-1.9a7,7,0,0,1,1.67-13.81Z" style="fill:#ffc3bd"></path><path d="M232.85,184.85c1.52,1-2.1,7.38-.72,10s2,4,.74,4.36-26.76-4.85-40.73-15.42a2,2,0,0,1-.75-1.72c.42-5.54,3-13.05,4.6-13.16S227.22,181.21,232.85,184.85Z" style="fill:#7AD579"></path><path d="M232.85,184.85c1.52,1-2.1,7.38-.72,10s2,4,.74,4.36-26.76-4.85-40.73-15.42a2,2,0,0,1-.75-1.72c.42-5.54,3-13.05,4.6-13.16S227.22,181.21,232.85,184.85Z" style="fill:#fff;opacity:0.4"></path><path d="M254.08,115.84c-3.52,4.67-9.13,13.65-7.19,18.86,0,0-12.64-3.84-25,3,.65-10.26,8.9-10.83,8.9-10.83,6.43,1.41,8.36-2.93,9.3-7.44Z" style="fill:#ffc3bd"></path><path d="M248.39,117.32l-8.25,2.15a18.08,18.08,0,0,1-.89,3.09c2.36.75,6.55-.2,7.91-2.39A8.56,8.56,0,0,0,248.39,117.32Z" style="opacity:0.2"></path><path d="M263.49,110.06c-6.1,7.43-8.42,11.58-15.26,11.9-11.7.54-16-9-13.09-15.89,3.48-8.14,12-19.31,21.67-17S269.58,102.63,263.49,110.06Z" style="fill:#ffc3bd"></path><path d="M247.1,86.64c.53,5.77,11.06,13.82,14.41,15.72-4.44,2.12-6.42,11.59,1.63,12.39S278.32,82.89,247.1,86.64Z" style="fill:#263238"></path><path d="M238.48,105.2s3.16.71,11.22,4.38c-2,1.72-4.63,2.68-8.75.77S238.48,105.2,238.48,105.2Z" style="fill:#263238"></path><path d="M243.7,109.53a9.19,9.19,0,0,0-5-1,5.13,5.13,0,0,0,2.26,1.82,9,9,0,0,0,5,1A5,5,0,0,0,243.7,109.53Z" style="fill:#ed847e"></path><path d="M238.87,105.3a1.72,1.72,0,0,0,.74,1.65,53,53,0,0,0,7.4,2.7,2.61,2.61,0,0,0,2.34-.23A80.14,80.14,0,0,0,238.87,105.3Z" style="fill:#fff"></path><path d="M245.23,99a20.92,20.92,0,0,1-5.17,2.4c.27,1.39,1.94,2.06,1.94,2.06Z" style="fill:#ed847e"></path><path d="M261.06,117.44a6.14,6.14,0,0,1-5,.53c-2.08-.76-1.57-3.28.31-4.85,1.69-1.42,4.8-2.72,6.26-1.09S263.09,116.32,261.06,117.44Z" style="fill:#ffc3bd"></path><path d="M254.14,102.7a.45.45,0,0,1,0-.36A3.6,3.6,0,0,0,254,99a.46.46,0,0,1,.13-.63.44.44,0,0,1,.63.12,4.55,4.55,0,0,1,.24,4.18.46.46,0,0,1-.6.24A.41.41,0,0,1,254.14,102.7Z" style="fill:#263238"></path><path d="M250.38,103a.33.33,0,0,1-.1-.23,2.53,2.53,0,0,0-1-2.09.32.32,0,0,1-.08-.44.31.31,0,0,1,.44-.09,3.16,3.16,0,0,1,1.25,2.62.33.33,0,0,1-.33.32A.31.31,0,0,1,250.38,103Z" style="fill:#263238"></path><path d="M244.05,97.39a.32.32,0,0,1-.24-.08,2.55,2.55,0,0,0-2.22-.6.31.31,0,0,1-.39-.21.32.32,0,0,1,.21-.4,3.13,3.13,0,0,1,2.81.73.32.32,0,0,1,0,.45A.36.36,0,0,1,244.05,97.39Z" style="fill:#263238"></path><path d="M243.91,92.57a.43.43,0,0,1-.25-.23.47.47,0,0,1,.23-.61,4.53,4.53,0,0,1,4.18.11.46.46,0,0,1,.15.63.47.47,0,0,1-.64.15,3.59,3.59,0,0,0-3.31-.05A.45.45,0,0,1,243.91,92.57Z" style="fill:#263238"></path><path d="M216.44,148.58a25.09,25.09,0,0,0,10.64,12.3C218.48,159.22,216.16,152.41,216.44,148.58Z" style="opacity:0.2"></path><path d="M246.89,134.7c4.64,3.09,17.39,4.24,21.63,4.54a.77.77,0,0,1,.6,1.23c-1.92,2-8.19,10.86-8.44,15.3a2.06,2.06,0,0,1-1.6,1.89c-12.32,2.69-17.94,1.23-20.25-1.95C236.41,152.38,246.89,134.7,246.89,134.7Z" style="fill:#7AD579"></path></g></svg>