<svg xmlns="http://www.w3.org/2000/svg" viewBox="0 0 500 500"><g id="freepik--background-simple--inject-68"><path d="M74.83,95.34c-95.72,62,62.1,91.13,102.84,124.74,29.23,24.11,18.83,76.33,63.89,105.36,47.35,30.5,117,30,152.29,12.78,53.27-26,52.21-142.65-34.62-184.19-65.85-31.5-115.21,15.39-182.86-9.76C133.83,128.47,126.94,61.59,74.83,95.34Z" style="fill:#7AD579"></path><path d="M74.83,95.34c-95.72,62,62.1,91.13,102.84,124.74,29.23,24.11,18.83,76.33,63.89,105.36,47.35,30.5,117,30,152.29,12.78,53.27-26,52.21-142.65-34.62-184.19-65.85-31.5-115.21,15.39-182.86-9.76C133.83,128.47,126.94,61.59,74.83,95.34Z" style="fill:#fff;opacity:0.9"></path></g><g id="freepik--Shadow--inject-68"><ellipse id="freepik--path--inject-68" cx="250" cy="416.24" rx="193.89" ry="11.32" style="fill:#f5f5f5"></ellipse></g><g id="freepik--question-marks--inject-68"><path d="M157.61,247.44l-.92-.39a18,18,0,0,0,1.45-5l1,.11A18.94,18.94,0,0,1,157.61,247.44ZM157.22,236a13.33,13.33,0,0,0-10.43-7.77l.16-1a14.31,14.31,0,0,1,11.18,8.35Z" style="fill:#7AD579"></path><path d="M152,257.5,142.14,262l-.44-1a13.27,13.27,0,0,1-1.29-4.33,10,10,0,0,1,.39-3.64,58.94,58.94,0,0,1,3-6.86q1.32-2.67.67-4.09a3.16,3.16,0,0,0-1.85-1.83,4,4,0,0,0-2.91.37,4.56,4.56,0,0,0-2.49,2.61q-.65,1.75.4,4.94L127,251.49a15,15,0,0,1,0-10.75q2-5,9.22-8.27c3.76-1.72,7.16-2.31,10.19-1.8a10.78,10.78,0,0,1,8.57,6.35,9,9,0,0,1,.72,4.8,23,23,0,0,1-2.7,7.26,14.49,14.49,0,0,0-1.78,4.83A7.49,7.49,0,0,0,152,257.5Zm-9,7.24L153.54,260l4.23,9.29L147.23,274Z" style="fill:#7AD579"></path><path d="M127.64,279.73l-5,6.8L122,286a10.64,10.64,0,0,1-2.53-2.47,7.67,7.67,0,0,1-1.11-2.63,42.47,42.47,0,0,1-.57-5.81c-.08-1.55-.45-2.56-1.1-3a2.46,2.46,0,0,0-2-.55,3.08,3.08,0,0,0-1.84,1.36,3.54,3.54,0,0,0-.71,2.72,6.09,6.09,0,0,0,2.15,3.22l-6,6.31a11.79,11.79,0,0,1-4.11-7.32q-.55-4.14,3.14-9.15a13.64,13.64,0,0,1,6.26-5.09,8.39,8.39,0,0,1,8.26,1.06,7,7,0,0,1,2.32,3,18.12,18.12,0,0,1,.92,6,11.36,11.36,0,0,0,.62,4A5.76,5.76,0,0,0,127.64,279.73Zm-3.37,8.36,5.36-7.28,6.42,4.73-5.36,7.28Z" style="fill:#7AD579"></path></g><g id="freepik--Character--inject-68"><path d="M234.09,412.64a4.5,4.5,0,0,1-4-2.43c-4-7.76-9.07-16.87-18.15-26.73a4.45,4.45,0,0,1-1-4.28c3.37-11.71,8.67-27.72,8.72-27.88a4.49,4.49,0,1,1,8.52,2.82c-.05.15-4.62,13.94-7.93,25.15a126.54,126.54,0,0,1,17.82,26.8,4.5,4.5,0,0,1-4,6.55Z" style="fill:#7AD579"></path><polygon points="241.56 416.24 206.77 416.24 225.21 405.78 240.66 406.38 241.56 416.24" style="fill:#263238"></polygon><ellipse cx="230.8" cy="350.34" rx="30.04" ry="24.9" transform="translate(-94.01 84.81) rotate(-17.36)" style="fill:#263238"></ellipse><path d="M151.65,334a4.49,4.49,0,0,1-1.72-8.63,5,5,0,0,0,3-3.77,4.48,4.48,0,0,1,3.67-4,33.55,33.55,0,0,0,3.3-.85c6.08-1.77,13.61-4,37.31,2.66,23.38-13.07,23.65-37.59,23.65-38.65a4.5,4.5,0,0,1,4.47-4.5h0a4.49,4.49,0,0,1,4.49,4.45c0,1.31-.14,32.09-30,47.5a4.45,4.45,0,0,1-3.3.32c-22.6-6.52-29-4.66-34.07-3.17l-1.38.4a13.83,13.83,0,0,1-7.64,7.89A4.51,4.51,0,0,1,151.65,334Z" style="fill:#263238"></path><path d="M204.08,301.89c-8.51-33.82-31.18-121.06,41.47-126.39,65.18-4.79,83.06,82,87.41,112a351.65,351.65,0,0,1,3.54,45.82,33.29,33.29,0,0,1-26.76,33c-35.51,7.22-69.11,8.24-91.75-.69a14.86,14.86,0,0,1-9.23-15.21C209.63,340.74,209.65,324,204.08,301.89Z" style="fill:#7AD579"></path><path d="M333,287.52c-4.1-28.32-20.22-107-76.66-112a16.39,16.39,0,0,0-16.07,8.51c-2.52,4.88-2.44,10.79,1.33,16.64C254,220,283.67,286.67,279.19,323c-2,16.53-12.41,29.73-3.39,48.31a291.16,291.16,0,0,0,33.94-5,33.29,33.29,0,0,0,26.76-33A351.65,351.65,0,0,0,333,287.52Z" style="opacity:0.1"></path><path d="M323.24,333.79a.45.45,0,0,1-.45-.44,348.57,348.57,0,0,0-3.53-45.76c-10.8-74.66-39.87-112.41-84.1-109.15a.45.45,0,0,1-.48-.42.46.46,0,0,1,.42-.48c44.75-3.3,74.17,34.72,85,109.92a352.14,352.14,0,0,1,3.54,45.88.45.45,0,0,1-.45.45Z" style="fill:#263238"></path><ellipse cx="315.12" cy="352.73" rx="30.04" ry="24.9" transform="translate(-90.88 110.07) rotate(-17.36)" style="fill:#263238"></ellipse><path d="M325.3,412.64a4.49,4.49,0,0,1-4-2.43c-4-7.76-9.07-16.87-18.16-26.73a4.5,4.5,0,0,1-1-4.28c3.38-11.71,8.67-27.72,8.73-27.88a4.48,4.48,0,1,1,8.51,2.82c-.05.15-4.61,13.94-7.92,25.15a126.07,126.07,0,0,1,17.81,26.8,4.5,4.5,0,0,1-4,6.55Z" style="fill:#7AD579"></path><path d="M315.88,275.91a4.49,4.49,0,0,1-2.1-8.46h0c.86-.46,20.39-11.13,25.87-36.77-13-5.44-36.42-17.73-41.54-23.91a4.62,4.62,0,0,1-1-2.08,22.37,22.37,0,0,1,1-11l-2.36-4.56a4.49,4.49,0,0,1,8-4.12l3.39,6.56A4.46,4.46,0,0,1,307,196a11,11,0,0,0-1.12,5.91c5.77,5.21,29,17.54,40.43,21.77a4.48,4.48,0,0,1,2.87,4.89c-5.07,32.77-30.14,46.27-31.2,46.83A4.48,4.48,0,0,1,315.88,275.91Z" style="fill:#263238"></path><path d="M301.57,206.15a2.25,2.25,0,0,1-1.88-3.47c.16-.24,3.86-5.83,9.5-7.34a2.24,2.24,0,1,1,1.16,4.33c-3.93,1.06-6.88,5.42-6.9,5.46A2.24,2.24,0,0,1,301.57,206.15Z" style="fill:#263238"></path><polygon points="332.77 416.24 297.98 416.24 316.42 405.78 331.87 406.38 332.77 416.24" style="fill:#263238"></polygon><ellipse cx="258.01" cy="260.82" rx="23.92" ry="21.53" transform="translate(-21.99 23.76) rotate(-5.06)" style="fill:#fff"></ellipse><ellipse cx="252.18" cy="262.92" rx="6.57" ry="11.96" transform="translate(-62.39 79.17) rotate(-15.9)" style="fill:#263238"></ellipse><path d="M230.8,264.86c15.1-1.94,45-10.47,49.93-13.91-3.88-11.36-22-21.08-38.12-15.6C228,240.28,230.8,264.86,230.8,264.86Z" style="fill:#263238"></path><path d="M233.73,272.16c18.75-3.56,43.12-9.54,50.09-13.37-.43,12.22-4,24.61-23.12,28.8C245.06,291,233.73,272.16,233.73,272.16Z" style="fill:#263238"></path><ellipse cx="208.01" cy="268.36" rx="14.72" ry="18.63" transform="translate(-113.55 159.34) rotate(-33.49)" style="fill:#fff"></ellipse><path d="M208.34,268.68c1.13,5.36.15,9.83-2.2,10s-5.17-4.06-6.31-9.42-.15-9.82,2.19-10S207.2,263.32,208.34,268.68Z" style="fill:#263238"></path><path d="M189.75,266.63c10.13,1.19,30.25-.14,33.59-2C220.87,255,208.89,244,198,245.4,188.18,246.66,189.75,266.63,189.75,266.63Z" style="fill:#263238"></path><path d="M191.63,272.94c12.59.57,29,.25,33.68-1.52-.43,9.61-2.95,18.77-15.81,18.62C199,289.92,191.63,272.94,191.63,272.94Z" style="fill:#263238"></path><path d="M264.09,229.3A56.43,56.43,0,0,1,232,219.5a4.48,4.48,0,0,1,5.41-7.15,49,49,0,0,0,35.84,7.11,4.48,4.48,0,1,1,1.67,8.81A58.41,58.41,0,0,1,264.09,229.3Z" style="fill:#263238"></path><path d="M183.88,221.57a4.5,4.5,0,0,1-4.22-6c2.37-6.62,6.32-10.91,11.72-12.77,9.78-3.37,20.32,3.18,20.77,3.46a4.49,4.49,0,0,1-4.78,7.6c-2-1.27-8.37-4.21-13.1-2.57-2.72.95-4.74,3.34-6.17,7.32A4.49,4.49,0,0,1,183.88,221.57Z" style="fill:#263238"></path><path d="M219.23,297.25a1.19,1.19,0,0,1-.37-.06,1.33,1.33,0,0,1-.92-1.64,8.74,8.74,0,0,1,4.56-4.93c5.14-2.65,13-2.1,23.31,1.63a1.34,1.34,0,0,1,.8,1.73,1.33,1.33,0,0,1-1.72.8c-11.83-4.28-18-3.36-21-1.82a6.25,6.25,0,0,0-3.32,3.33A1.35,1.35,0,0,1,219.23,297.25Z" style="fill:#263238"></path><path d="M176.88,292.32a119.22,119.22,0,0,0-44.78,13.15c7.72-1.46,35.35,32.73,42.45,59.09,13.11-4.85,28.39-8.16,44.68-10.75C209.36,326.64,191.31,295.85,176.88,292.32Z" style="fill:#7AD579"></path><path d="M176.88,292.32a119.22,119.22,0,0,0-44.78,13.15c7.72-1.46,35.35,32.73,42.45,59.09,13.11-4.85,28.39-8.16,44.68-10.75C209.36,326.64,191.31,295.85,176.88,292.32Z" style="fill:#fff;opacity:0.6000000000000001"></path><path d="M176.88,292.32c-17.08-1.93-44.81,12.37-44.81,12.37-4.91,3.13-3.58,9-.9,11.49,2.57-3.69,31.23-13.29,42-14.58C167.82,296.64,172.8,293,176.88,292.32Z" style="fill:#7AD579"></path><path d="M176.88,292.32c-17.08-1.93-44.81,12.37-44.81,12.37-4.91,3.13-3.58,9-.9,11.49,2.57-3.69,31.23-13.29,42-14.58C167.82,296.64,172.8,293,176.88,292.32Z" style="fill:#fff;opacity:0.2"></path><path d="M151.66,334a4.52,4.52,0,0,1-3.77-2c-3.25-5-1.22-12.59-.78-14.07a4.49,4.49,0,0,1,8.6,2.56c-.73,2.51-.88,5.72-.3,6.6a4.49,4.49,0,0,1-1.31,6.21A4.38,4.38,0,0,1,151.66,334Z" style="fill:#263238"></path></g><g id="freepik--bad-request--inject-68"><path d="M162.29,97V74.74h8.36a10.3,10.3,0,0,1,4.09.68,5.23,5.23,0,0,1,2.42,2.08,5.53,5.53,0,0,1,.88,2.94,5,5,0,0,1-.78,2.69,5.61,5.61,0,0,1-2.34,2,5.82,5.82,0,0,1,3.11,2,5.43,5.43,0,0,1,1.08,3.37,6.48,6.48,0,0,1-.66,2.91,5.63,5.63,0,0,1-1.63,2.08,6.78,6.78,0,0,1-2.44,1.1,14.78,14.78,0,0,1-3.59.37Zm3-12.92h4.82a10.44,10.44,0,0,0,2.81-.26,3.12,3.12,0,0,0,1.69-1.1,3.22,3.22,0,0,0,.57-1.95,3.52,3.52,0,0,0-.53-2,2.66,2.66,0,0,0-1.52-1.16,12.63,12.63,0,0,0-3.39-.31h-4.45Zm0,10.29h5.55a13,13,0,0,0,2-.1,4.78,4.78,0,0,0,1.7-.61,3.25,3.25,0,0,0,1.13-1.24,3.92,3.92,0,0,0,.44-1.88,3.65,3.65,0,0,0-.64-2.16,3.25,3.25,0,0,0-1.77-1.29,10.85,10.85,0,0,0-3.26-.38h-5.15Z" style="fill:#263238"></path><path d="M193.36,95a10.44,10.44,0,0,1-2.93,1.83,8.56,8.56,0,0,1-3,.53,5.83,5.83,0,0,1-4.08-1.3,4.27,4.27,0,0,1-1.43-3.32A4.5,4.5,0,0,1,183.85,89a6.45,6.45,0,0,1,2-.9,19.45,19.45,0,0,1,2.43-.41,25.08,25.08,0,0,0,4.88-.94c0-.38,0-.61,0-.72a3,3,0,0,0-.77-2.35,4.58,4.58,0,0,0-3.12-.93,4.87,4.87,0,0,0-2.85.68A4.18,4.18,0,0,0,185,85.85l-2.67-.36a6.59,6.59,0,0,1,1.2-2.78A5.3,5.3,0,0,1,186,81.09a10.84,10.84,0,0,1,3.67-.57A9.81,9.81,0,0,1,193,81a4.44,4.44,0,0,1,1.9,1.23,4.32,4.32,0,0,1,.85,1.86,15.39,15.39,0,0,1,.14,2.52v3.65a38.26,38.26,0,0,0,.17,4.82,6.17,6.17,0,0,0,.69,1.94H193.9A5.81,5.81,0,0,1,193.36,95Zm-.23-6.11a20,20,0,0,1-4.47,1,10.61,10.61,0,0,0-2.39.54,2.5,2.5,0,0,0-1.08.89,2.43,2.43,0,0,0,.45,3.13,3.62,3.62,0,0,0,2.43.73,5.66,5.66,0,0,0,2.81-.7,4.28,4.28,0,0,0,1.81-1.89,6.69,6.69,0,0,0,.44-2.74Z" style="fill:#263238"></path><path d="M210.61,97V95a5,5,0,0,1-4.52,2.4,6.32,6.32,0,0,1-3.54-1.07,6.93,6.93,0,0,1-2.51-3,10.14,10.14,0,0,1-.89-4.38,11.63,11.63,0,0,1,.8-4.39,6.35,6.35,0,0,1,2.42-3,6.46,6.46,0,0,1,3.6-1,5.37,5.37,0,0,1,2.6.61,5.49,5.49,0,0,1,1.86,1.61v-8h2.72V97ZM202,89a7,7,0,0,0,1.31,4.63,3.92,3.92,0,0,0,3.08,1.54,3.87,3.87,0,0,0,3.05-1.47,6.74,6.74,0,0,0,1.25-4.47,7.63,7.63,0,0,0-1.27-4.87,3.94,3.94,0,0,0-3.15-1.55,3.82,3.82,0,0,0-3,1.49A7.39,7.39,0,0,0,202,89Z" style="fill:#263238"></path><path d="M226.49,97V74.74h9.88a13.13,13.13,0,0,1,4.53.6,5,5,0,0,1,2.48,2.12,6.3,6.3,0,0,1,.93,3.36,5.6,5.6,0,0,1-1.54,4A7.75,7.75,0,0,1,238,86.88,7.75,7.75,0,0,1,239.81,88a15.2,15.2,0,0,1,2.45,3L246.13,97h-3.71l-2.95-4.63c-.86-1.34-1.57-2.36-2.12-3.07a6.67,6.67,0,0,0-1.5-1.49,4.48,4.48,0,0,0-1.35-.6,9,9,0,0,0-1.64-.1h-3.42V97Zm2.95-12.45h6.34a9.48,9.48,0,0,0,3.16-.41,3.43,3.43,0,0,0,1.74-1.34,3.65,3.65,0,0,0,.59-2,3.32,3.32,0,0,0-1.15-2.6,5.36,5.36,0,0,0-3.62-1h-7.06Z" style="fill:#263238"></path><path d="M259.63,91.83l2.83.34A6.88,6.88,0,0,1,260,96a8.4,8.4,0,0,1-10.24-.81,8.56,8.56,0,0,1-2.07-6.12,8.9,8.9,0,0,1,2.1-6.32,7.08,7.08,0,0,1,5.44-2.25,6.91,6.91,0,0,1,5.29,2.2,8.8,8.8,0,0,1,2.05,6.2c0,.16,0,.41,0,.73h-12A6.25,6.25,0,0,0,252,93.72a4.46,4.46,0,0,0,3.37,1.42,4.16,4.16,0,0,0,2.57-.79A5.31,5.31,0,0,0,259.63,91.83Zm-9-4.43h9a5.49,5.49,0,0,0-1-3.05,4.18,4.18,0,0,0-3.39-1.58A4.34,4.34,0,0,0,252.07,84,5,5,0,0,0,250.65,87.4Z" style="fill:#263238"></path><path d="M276.18,103.21v-7.9a5,5,0,0,1-1.78,1.49,5.32,5.32,0,0,1-2.44.59,6.45,6.45,0,0,1-4.95-2.3,9,9,0,0,1-2.08-6.29,10.8,10.8,0,0,1,.85-4.36,6.31,6.31,0,0,1,2.45-2.93,6.53,6.53,0,0,1,3.51-1A5.42,5.42,0,0,1,276.46,83V80.88h2.46v22.33Zm-8.43-14.3a7.15,7.15,0,0,0,1.3,4.67,4,4,0,0,0,3.14,1.56,3.84,3.84,0,0,0,3-1.48,6.78,6.78,0,0,0,1.27-4.51,7.58,7.58,0,0,0-1.33-4.85A4,4,0,0,0,272,82.67a3.76,3.76,0,0,0-3,1.52A7.36,7.36,0,0,0,267.75,88.91Z" style="fill:#263238"></path><path d="M293.78,97V94.65a5.89,5.89,0,0,1-5.12,2.74,6.48,6.48,0,0,1-2.67-.55,4.37,4.37,0,0,1-1.83-1.37,5,5,0,0,1-.85-2,14,14,0,0,1-.17-2.56v-10h2.74v9a16,16,0,0,0,.17,2.89,2.83,2.83,0,0,0,1.09,1.7,3.41,3.41,0,0,0,2.07.61,4.51,4.51,0,0,0,2.31-.63,3.49,3.49,0,0,0,1.53-1.72,8.54,8.54,0,0,0,.45-3.15V80.88h2.73V97Z" style="fill:#263238"></path><path d="M311.57,91.83l2.83.34A6.93,6.93,0,0,1,311.92,96a8.4,8.4,0,0,1-10.24-.81,8.56,8.56,0,0,1-2.07-6.12,8.94,8.94,0,0,1,2.09-6.32,7.12,7.12,0,0,1,5.45-2.25,6.91,6.91,0,0,1,5.29,2.2,8.8,8.8,0,0,1,2.05,6.2c0,.16,0,.41,0,.73h-12a6.2,6.2,0,0,0,1.51,4.07,4.44,4.44,0,0,0,3.37,1.42,4.16,4.16,0,0,0,2.57-.79A5.31,5.31,0,0,0,311.57,91.83Zm-9-4.43h9a5.49,5.49,0,0,0-1-3.05,4.2,4.2,0,0,0-3.39-1.58A4.34,4.34,0,0,0,304,84,5,5,0,0,0,302.59,87.4Z" style="fill:#263238"></path><path d="M316.74,92.21l2.7-.43a3.8,3.8,0,0,0,1.27,2.49,4.43,4.43,0,0,0,2.91.87,4.29,4.29,0,0,0,2.8-.77,2.28,2.28,0,0,0,.91-1.8,1.68,1.68,0,0,0-.8-1.46,12.38,12.38,0,0,0-2.8-.93,24.64,24.64,0,0,1-4.17-1.31,4,4,0,0,1-2.37-3.7,4.15,4.15,0,0,1,.5-2A4.47,4.47,0,0,1,319,81.64a5.89,5.89,0,0,1,1.74-.8,8.59,8.59,0,0,1,2.37-.32,9.41,9.41,0,0,1,3.33.54,4.49,4.49,0,0,1,2.12,1.49,5.79,5.79,0,0,1,1,2.5l-2.68.36a2.91,2.91,0,0,0-1.06-2,3.88,3.88,0,0,0-2.47-.69,4.46,4.46,0,0,0-2.69.62,1.82,1.82,0,0,0-.8,1.46,1.55,1.55,0,0,0,.33,1,2.47,2.47,0,0,0,1.05.73c.27.1,1.08.33,2.42.69a34.72,34.72,0,0,1,4.05,1.27,4.16,4.16,0,0,1,1.8,1.44,4,4,0,0,1,.65,2.34,4.63,4.63,0,0,1-.79,2.58A5.22,5.22,0,0,1,327,96.73a8.38,8.38,0,0,1-3.4.66,7.6,7.6,0,0,1-4.8-1.31A6,6,0,0,1,316.74,92.21Z" style="fill:#263238"></path><path d="M339.37,94.58l.4,2.41a9.75,9.75,0,0,1-2.07.25,4.57,4.57,0,0,1-2.31-.48,2.64,2.64,0,0,1-1.16-1.23,10,10,0,0,1-.33-3.23V83h-2V80.88h2v-4l2.72-1.64v5.64h2.75V83h-2.75v9.44a5,5,0,0,0,.14,1.5,1.23,1.23,0,0,0,.47.54,1.86,1.86,0,0,0,.94.19A9,9,0,0,0,339.37,94.58Z" style="fill:#263238"></path></g></svg>