<svg xmlns="http://www.w3.org/2000/svg" viewBox="0 0 500 500"><g id="freepik--background-simple--inject-23"><path d="M373.7,154.92C365.19,93.61,302,55.38,244.12,77.2a136.11,136.11,0,0,0-17,7.75c-42.7,23.13-72.46,65.74-88.4,111.61-5.67,16.31-10.25,33.95-22.56,46-9.86,9.7-23.51,14.56-34.24,23.29A58.17,58.17,0,0,0,60.73,306.7a55.15,55.15,0,0,0,16.49,42.78c19.71,18.88,50.64,19.76,77.33,14s52.42-16.84,79.68-18c30.32-1.33,59.6,9.71,89.23,16.26s63.26,7.86,87.61-10.25c16.61-12.36,26.5-32.64,28.07-53.28s-4.72-41.46-15.68-59c-7.78-12.45-17.76-23.32-27.32-34.49a97.08,97.08,0,0,1-22.44-49.8Z" style="fill:#7AD579"></path><g style="opacity:0.9"><path d="M373.7,154.92C365.19,93.61,302,55.38,244.12,77.2a136.11,136.11,0,0,0-17,7.75c-42.7,23.13-72.46,65.74-88.4,111.61-5.67,16.31-10.25,33.95-22.56,46-9.86,9.7-23.51,14.56-34.24,23.29A58.17,58.17,0,0,0,60.73,306.7a55.15,55.15,0,0,0,16.49,42.78c19.71,18.88,50.64,19.76,77.33,14s52.42-16.84,79.68-18c30.32-1.33,59.6,9.71,89.23,16.26s63.26,7.86,87.61-10.25c16.61-12.36,26.5-32.64,28.07-53.28s-4.72-41.46-15.68-59c-7.78-12.45-17.76-23.32-27.32-34.49a97.08,97.08,0,0,1-22.44-49.8Z" style="fill:#fff"></path></g></g><g id="freepik--Shadow--inject-23"><ellipse id="freepik--path--inject-23" cx="250" cy="415.69" rx="193.89" ry="11.32" style="fill:#f5f5f5"></ellipse></g><g id="freepik--Star--inject-23"><path d="M385.11,211l-48.34,43.42-14.94,13.42a5.86,5.86,0,0,0-2,4.78l1.09,22.93,3,62.73c.37,4.41-4.56,7.78-8.34,5.69l-17.28-9.6-25.27-14L254.42,330,273,340.29l25.31,13.94,3.63,2c3.78,2.09,8.71-1.28,8.34-5.68l-1.89-22.48h0l-4.85-57.77a5.83,5.83,0,0,1,2-4.79l41.24-37,22-19.79c3.47-3.12,2.19-8.57-2.19-9.21l-8.22-1.21-24.5-3.61-46.83-6.89a4.79,4.79,0,0,1-3.81-3L273.6,161h0l-4.38-10.78-6-14.8h0l-2.38-5.87h0l-3.92-9.67-3.28-8.08a4.72,4.72,0,0,0-3-2.78L265,111.13l2.11.31.47.45,2.3,2.23L277,131.6l1.34,3.3,2.72,6.7,18.5,45.54a4.82,4.82,0,0,0,3.81,3l30.56,4.5,24.5,3.6,24.5,3.61C387.3,202.45,388.59,207.9,385.11,211Z" style="fill:#7AD579"></path><path d="M385.11,211l-48.34,43.42-14.94,13.42a5.86,5.86,0,0,0-2,4.78l1.09,22.93,3,62.73c.37,4.41-4.56,7.78-8.34,5.69l-17.28-9.6-25.27-14L254.42,330,273,340.29l25.31,13.94,3.63,2c3.78,2.09,8.71-1.28,8.34-5.68l-1.89-22.48h0l-4.85-57.77a5.83,5.83,0,0,1,2-4.79l41.24-37,22-19.79c3.47-3.12,2.19-8.57-2.19-9.21l-8.22-1.21-24.5-3.61-46.83-6.89a4.79,4.79,0,0,1-3.81-3L273.6,161h0l-4.38-10.78-6-14.8h0l-2.38-5.87h0l-3.92-9.67-3.28-8.08a4.72,4.72,0,0,0-3-2.78L265,111.13l2.11.31.47.45,2.3,2.23L277,131.6l1.34,3.3,2.72,6.7,18.5,45.54a4.82,4.82,0,0,0,3.81,3l30.56,4.5,24.5,3.6,24.5,3.61C387.3,202.45,388.59,207.9,385.11,211Z" style="opacity:0.5"></path><polygon points="267.14 111.44 267.14 111.44 267.14 111.44 267.14 111.44" style="fill:#263238"></polygon><path d="M269.91,114.12l-2.77-2.68A4.65,4.65,0,0,1,269.91,114.12Z" style="fill:#263238"></path><path d="M265,111.13a5.33,5.33,0,0,1,2.11.3Z" style="fill:#263238"></path><path d="M243,323.75l-39.81,20h0l-18.85,9.47-11.76,5.91-.24.11a7.75,7.75,0,0,1-5.37,0l-.31.16-16.26-2.51h0a5.64,5.64,0,0,0,2.38-.63l9.3-4.67,16.39-8.23L187,339l4.13-2.07,18.19-9.15,18.84-9.46a5.39,5.39,0,0,1,5,0Z" style="fill:#7AD579"></path><path d="M243,323.75l-39.81,20h0l-18.85,9.47-11.76,5.91-.24.11a7.75,7.75,0,0,1-5.37,0l-.31.16-16.26-2.51h0a5.64,5.64,0,0,0,2.38-.63l9.3-4.67,16.39-8.23L187,339l4.13-2.07,18.19-9.15,18.84-9.46a5.39,5.39,0,0,1,5,0Z" style="opacity:0.5"></path><path d="M263.2,135.4l-7.33-13.78L249,108.76h0l1.54.23a4.72,4.72,0,0,1,3,2.78l3.28,8.08Z" style="fill:#263238"></path><path d="M187,339,162.1,351.56l-9.3,4.67a5.64,5.64,0,0,1-2.38.63L167,326.13l1.43.92Z" style="fill:#263238"></path><path d="M368.82,208.67l-22,19.79h0l-41.24,37a5.83,5.83,0,0,0-2,4.79l4.85,57.77h0l1.89,22.48c.37,4.4-4.56,7.77-8.34,5.68l-3.63-2L273,340.29,254.42,330l-.37-.21-11-6.07-9.8-5.4a5.39,5.39,0,0,0-5,0l-18.84,9.46L191.16,337,187,339l-8.54,4.3-16.39,8.23-9.3,4.67a5.64,5.64,0,0,1-2.38.63,4.91,4.91,0,0,1-5-6.31l1.25-4.83,19.53-75.43a5.06,5.06,0,0,0-1.13-4.79l-53.34-56.83c-2.92-3.12-.68-8.57,3.8-9.21l81.61-11.71a6.06,6.06,0,0,0,4.33-3l42.42-73a6,6,0,0,1,1.17-1.44,5.79,5.79,0,0,1,2.72-1.43,5.55,5.55,0,0,1,1.21-.14h0a4.45,4.45,0,0,1,1,.11,4.21,4.21,0,0,1,.51.12,4.72,4.72,0,0,1,3,2.78l3.28,8.08,3.92,9.68,2.38,5.87h0l6,14.8L273.6,161h0l9.67,23.8a4.79,4.79,0,0,0,3.81,3l46.83,6.89,24.5,3.61,8.22,1.21C371,200.1,372.29,205.55,368.82,208.67Z" style="fill:#7AD579"></path><path d="M260.82,129.53l-.31.81-79,205.13-3,7.86-16.39,8.23-9.3,4.67a5.64,5.64,0,0,1-2.38.63,4.91,4.91,0,0,1-5-6.31l1.25-4.83L245.1,110.33a5.79,5.79,0,0,1,2.72-1.43l1.28,0h1a4.21,4.21,0,0,1,.51.12,4.72,4.72,0,0,1,3,2.78l3.28,8.08Z" style="fill:#fff;opacity:0.4"></path><polygon points="273.6 160.98 273.6 160.99 209.35 327.81 191.16 336.96 269.22 150.2 273.6 160.98" style="fill:#fff;opacity:0.2"></polygon><path d="M358.43,198.2l0,.05-11.63,30.21h0l-41.24,37a5.83,5.83,0,0,0-2,4.79l4.85,57.77h0l-10.08,26.16-.06.16-25.27-14,0-.06,60.88-145.65,0,0Z" style="fill:#fff;opacity:0.30000000000000004"></path></g><g id="freepik--speech-bubble-1--inject-23"><path d="M194.43,98.66v39.07a3.69,3.69,0,0,1-3.69,3.69h-58l-11.51,11.17a1.56,1.56,0,0,1-1.21.44c-1.51,0-1.7-1.23-1.7-2.74l.41-8.87h-6.9a3.69,3.69,0,0,1-3.69-3.69V98.65A3.69,3.69,0,0,1,111.86,95h78.89A3.68,3.68,0,0,1,194.43,98.66Z" style="fill:#fff"></path><path d="M120.05,153.53c-2.2,0-2.2-2.19-2.2-3.24l.39-8.37h-6.38a4.2,4.2,0,0,1-4.19-4.19V98.65a4.21,4.21,0,0,1,1.24-3,4.13,4.13,0,0,1,3-1.21h78.88a4.18,4.18,0,0,1,4.18,4.17v39.07a4.2,4.2,0,0,1-4.2,4.19H133l-11.36,11A2.07,2.07,0,0,1,120.05,153.53Zm-8.2-58a3.18,3.18,0,0,0-3.18,3.17v39.07a3.2,3.2,0,0,0,3.19,3.19h7.42l-.43,9.39c0,1.88.39,2.22,1.2,2.22a1.09,1.09,0,0,0,.91-.34l11.6-11.27h58.17a3.2,3.2,0,0,0,3.2-3.19V98.66a3.18,3.18,0,0,0-3.18-3.17h-78.9Z" style="fill:#7AD579"></path><path d="M129.15,104.88l-2.1,1.88-.64.58a.24.24,0,0,0-.09.21l.05,1,.12,2.72a.25.25,0,0,1-.36.24l-.74-.41-1.1-.61-.8-.45.8.45,1.1.6.16.09a.26.26,0,0,0,.36-.25l-.09-1h0l-.21-2.5a.27.27,0,0,1,.09-.21l1.79-1.61,1-.85a.23.23,0,0,0-.09-.4l-.36,0-1.06-.16-2-.3a.18.18,0,0,1-.16-.13l-.42-1h0l-.19-.46-.26-.65h0l-.11-.25h0l-.17-.42-.14-.35a.2.2,0,0,0-.13-.12l.63.09.09,0,0,0,.1.09.3.76.06.14.12.29.8,2a.22.22,0,0,0,.17.12l1.32.2,1.06.15,1.06.16A.23.23,0,0,1,129.15,104.88Z" style="fill:#7AD579"></path><path d="M129.15,104.88l-2.1,1.88-.64.58a.24.24,0,0,0-.09.21l.05,1,.12,2.72a.25.25,0,0,1-.36.24l-.74-.41-1.1-.61-.8-.45.8.45,1.1.6.16.09a.26.26,0,0,0,.36-.25l-.09-1h0l-.21-2.5a.27.27,0,0,1,.09-.21l1.79-1.61,1-.85a.23.23,0,0,0-.09-.4l-.36,0-1.06-.16-2-.3a.18.18,0,0,1-.16-.13l-.42-1h0l-.19-.46-.26-.65h0l-.11-.25h0l-.17-.42-.14-.35a.2.2,0,0,0-.13-.12l.63.09.09,0,0,0,.1.09.3.76.06.14.12.29.8,2a.22.22,0,0,0,.17.12l1.32.2,1.06.15,1.06.16A.23.23,0,0,1,129.15,104.88Z" style="opacity:0.5"></path><path d="M124.16,100.68l-.12-.11A.21.21,0,0,1,124.16,100.68Z" style="fill:#263238"></path><path d="M124,100.55l.09,0Z" style="fill:#263238"></path><path d="M123,109.76l-1.72.87h0l-.82.41-.51.25h0a.36.36,0,0,1-.23,0h0l-.71-.11h0l.11,0,.4-.21.71-.35.37-.19.18-.09.78-.39.82-.41a.22.22,0,0,1,.22,0Z" style="fill:#7AD579"></path><path d="M123,109.76l-1.72.87h0l-.82.41-.51.25h0a.36.36,0,0,1-.23,0h0l-.71-.11h0l.11,0,.4-.21.71-.35.37-.19.18-.09.78-.39.82-.41a.22.22,0,0,1,.22,0Z" style="opacity:0.5"></path><path d="M123.87,101.6l-.32-.59-.3-.56h.07a.2.2,0,0,1,.13.12l.14.35Z" style="fill:#263238"></path><path d="M120.57,110.42l-1.08.54-.4.21-.11,0,.72-1.33.06,0Z" style="fill:#263238"></path><path d="M128.44,104.78l-1,.85h0l-1.79,1.61a.27.27,0,0,0-.09.21l.21,2.5h0l.09,1a.26.26,0,0,1-.36.25l-.16-.09-1.1-.6-.8-.45h0l-.48-.26-.42-.23a.22.22,0,0,0-.22,0l-.82.41-.78.39-.18.09-.37.19-.71.35-.4.21-.11,0a.21.21,0,0,1-.21-.27l0-.21.85-3.26a.22.22,0,0,0,0-.21l-2.31-2.46a.25.25,0,0,1,.16-.4l3.54-.51a.28.28,0,0,0,.19-.13l1.83-3.16,0-.06a.34.34,0,0,1,.12-.06h.12a.2.2,0,0,1,.13.12l.14.35.17.42.11.25h0l.26.65.19.46h0l.42,1a.18.18,0,0,0,.16.13l2,.3,1.06.16.36,0A.23.23,0,0,1,128.44,104.78Z" style="fill:#7AD579"></path><path d="M123.76,101.35v0l-3.42,8.88-.13.34-.71.35-.4.21-.11,0a.21.21,0,0,1-.21-.27l0-.21,4.26-10.19a.34.34,0,0,1,.12-.06h.12a.2.2,0,0,1,.13.12l.14.35Z" style="fill:#fff;opacity:0.4"></path><polygon points="124.32 102.71 124.32 102.71 121.53 109.94 120.75 110.33 124.13 102.25 124.32 102.71" style="fill:#fff;opacity:0.2"></polygon><path d="M128,104.32h0l-.5,1.3h0l-1.79,1.61a.27.27,0,0,0-.09.21l.21,2.5h0l-.43,1.13h0l-1.1-.61h0l2.64-6.31h0Z" style="fill:#fff;opacity:0.30000000000000004"></path><path d="M143.17,104.88l-2.09,1.88-.65.58a.24.24,0,0,0-.08.21l.05,1,.12,2.72a.25.25,0,0,1-.36.24l-.75-.41-1.09-.61-.8-.45.8.45,1.1.6.15.09a.26.26,0,0,0,.37-.25l-.09-1h0l-.21-2.5a.27.27,0,0,1,.09-.21l1.78-1.61,1-.85a.23.23,0,0,0-.1-.4l-.35,0-1.06-.16-2-.3a.21.21,0,0,1-.17-.13l-.41-1h0l-.19-.46-.26-.65h0l-.11-.25h0l-.17-.42-.14-.35a.2.2,0,0,0-.13-.12l.62.09.1,0,0,0,.1.09.3.76.06.14.12.29.8,2a.22.22,0,0,0,.16.12l1.33.2,1.06.15,1.06.16A.22.22,0,0,1,143.17,104.88Z" style="fill:#7AD579"></path><path d="M143.17,104.88l-2.09,1.88-.65.58a.24.24,0,0,0-.08.21l.05,1,.12,2.72a.25.25,0,0,1-.36.24l-.75-.41-1.09-.61-.8-.45.8.45,1.1.6.15.09a.26.26,0,0,0,.37-.25l-.09-1h0l-.21-2.5a.27.27,0,0,1,.09-.21l1.78-1.61,1-.85a.23.23,0,0,0-.1-.4l-.35,0-1.06-.16-2-.3a.21.21,0,0,1-.17-.13l-.41-1h0l-.19-.46-.26-.65h0l-.11-.25h0l-.17-.42-.14-.35a.2.2,0,0,0-.13-.12l.62.09.1,0,0,0,.1.09.3.76.06.14.12.29.8,2a.22.22,0,0,0,.16.12l1.33.2,1.06.15,1.06.16A.22.22,0,0,1,143.17,104.88Z" style="opacity:0.5"></path><path d="M138.19,100.68l-.12-.11A.21.21,0,0,1,138.19,100.68Z" style="fill:#263238"></path><path d="M138,100.55l.1,0Z" style="fill:#263238"></path><path d="M137,109.76l-1.72.87h0l-.82.41-.51.25h0a.36.36,0,0,1-.23,0h0l-.71-.11h0l.1,0,.41-.21.71-.35.37-.19.18-.09.78-.39.82-.41a.22.22,0,0,1,.22,0Z" style="fill:#7AD579"></path><path d="M137,109.76l-1.72.87h0l-.82.41-.51.25h0a.36.36,0,0,1-.23,0h0l-.71-.11h0l.1,0,.41-.21.71-.35.37-.19.18-.09.78-.39.82-.41a.22.22,0,0,1,.22,0Z" style="opacity:0.5"></path><path d="M137.9,101.6l-.32-.59-.3-.56h.07a.2.2,0,0,1,.13.12l.14.35Z" style="fill:#263238"></path><path d="M134.6,110.42l-1.08.54-.41.21-.1,0,.72-1.33.06,0Z" style="fill:#263238"></path><path d="M142.47,104.78l-1,.85h0l-1.78,1.61a.27.27,0,0,0-.09.21l.21,2.5h0l.09,1a.26.26,0,0,1-.37.25l-.15-.09-1.1-.6-.8-.45h0l-.48-.26-.42-.23a.22.22,0,0,0-.22,0l-.82.41-.78.39-.18.09-.37.19-.71.35-.41.21-.1,0a.21.21,0,0,1-.21-.27l0-.21.85-3.26a.22.22,0,0,0,0-.21l-2.31-2.46a.25.25,0,0,1,.16-.4l3.54-.51a.26.26,0,0,0,.18-.13l1.84-3.16.05-.06a.34.34,0,0,1,.12-.06h.12a.2.2,0,0,1,.13.12l.14.35.17.42.11.25h0l.26.65.19.46h0l.41,1a.21.21,0,0,0,.17.13l2,.3,1.06.16.35,0A.23.23,0,0,1,142.47,104.78Z" style="fill:#7AD579"></path><path d="M137.79,101.35v0l-3.42,8.88-.13.34-.71.35-.41.21-.1,0a.21.21,0,0,1-.21-.27l0-.21,4.26-10.19a.34.34,0,0,1,.12-.06h.12a.2.2,0,0,1,.13.12l.14.35Z" style="fill:#fff;opacity:0.4"></path><polygon points="138.35 102.71 138.35 102.71 135.56 109.94 134.78 110.33 138.16 102.25 138.35 102.71" style="fill:#fff;opacity:0.2"></polygon><path d="M142,104.32h0l-.51,1.3h0l-1.78,1.61a.27.27,0,0,0-.09.21l.21,2.5h0l-.43,1.13h0l-1.09-.61h0l2.64-6.31h0Z" style="fill:#fff;opacity:0.30000000000000004"></path><path d="M157.2,104.88l-2.09,1.88-.65.58a.24.24,0,0,0-.08.21l0,1,.13,2.72a.25.25,0,0,1-.36.24l-.75-.41-1.09-.61-.81-.45.81.45,1.1.6.15.09a.25.25,0,0,0,.36-.25l-.08-1h0l-.21-2.5a.27.27,0,0,1,.09-.21l1.78-1.61,1-.85a.23.23,0,0,0-.1-.4l-.35,0-1.06-.16-2-.3a.21.21,0,0,1-.17-.13l-.42-1h0l-.18-.46-.27-.65h0l-.1-.25h0l-.17-.42-.14-.35a.25.25,0,0,0-.13-.12l.62.09.1,0,0,0,.1.09.3.76.06.14.12.29.8,2a.22.22,0,0,0,.16.12l1.33.2,1.06.15,1.06.16A.22.22,0,0,1,157.2,104.88Z" style="fill:#7AD579"></path><path d="M157.2,104.88l-2.09,1.88-.65.58a.24.24,0,0,0-.08.21l0,1,.13,2.72a.25.25,0,0,1-.36.24l-.75-.41-1.09-.61-.81-.45.81.45,1.1.6.15.09a.25.25,0,0,0,.36-.25l-.08-1h0l-.21-2.5a.27.27,0,0,1,.09-.21l1.78-1.61,1-.85a.23.23,0,0,0-.1-.4l-.35,0-1.06-.16-2-.3a.21.21,0,0,1-.17-.13l-.42-1h0l-.18-.46-.27-.65h0l-.1-.25h0l-.17-.42-.14-.35a.25.25,0,0,0-.13-.12l.62.09.1,0,0,0,.1.09.3.76.06.14.12.29.8,2a.22.22,0,0,0,.16.12l1.33.2,1.06.15,1.06.16A.22.22,0,0,1,157.2,104.88Z" style="opacity:0.5"></path><path d="M152.22,100.68l-.12-.11A.21.21,0,0,1,152.22,100.68Z" style="fill:#263238"></path><path d="M152,100.55l.09,0Z" style="fill:#263238"></path><path d="M151.05,109.76l-1.72.87h0l-.82.41-.51.25h0a.36.36,0,0,1-.23,0h0l-.7-.11h0l.1,0,.41-.21.71-.35.37-.19.18-.09.78-.39.82-.41a.22.22,0,0,1,.22,0Z" style="fill:#7AD579"></path><path d="M151.05,109.76l-1.72.87h0l-.82.41-.51.25h0a.36.36,0,0,1-.23,0h0l-.7-.11h0l.1,0,.41-.21.71-.35.37-.19.18-.09.78-.39.82-.41a.22.22,0,0,1,.22,0Z" style="opacity:0.5"></path><path d="M151.92,101.6l-.31-.59-.3-.56h.07a.25.25,0,0,1,.13.12l.14.35Z" style="fill:#263238"></path><path d="M148.63,110.42l-1.08.54-.41.21-.1,0,.72-1.33.06,0Z" style="fill:#263238"></path><path d="M156.5,104.78l-1,.85h0l-1.78,1.61a.27.27,0,0,0-.09.21l.21,2.5h0l.08,1a.25.25,0,0,1-.36.25l-.15-.09-1.1-.6-.81-.45h0l-.48-.26-.42-.23a.22.22,0,0,0-.22,0l-.82.41-.78.39-.18.09-.37.19-.71.35-.41.21-.1,0a.21.21,0,0,1-.21-.27l0-.21.85-3.26a.22.22,0,0,0,0-.21l-2.31-2.46a.25.25,0,0,1,.16-.4l3.54-.51a.26.26,0,0,0,.18-.13l1.84-3.16,0-.06.12-.06h.12a.25.25,0,0,1,.13.12l.14.35.17.42.1.25h0l.27.65.18.46h0l.42,1a.21.21,0,0,0,.17.13l2,.3,1.06.16.35,0A.23.23,0,0,1,156.5,104.78Z" style="fill:#7AD579"></path><path d="M151.82,101.35v0l-3.42,8.88-.13.34-.71.35-.41.21-.1,0a.21.21,0,0,1-.21-.27l0-.21,4.26-10.19.12-.06h.12a.25.25,0,0,1,.13.12l.14.35Z" style="fill:#fff;opacity:0.4"></path><polygon points="152.38 102.71 152.38 102.71 149.59 109.94 148.81 110.33 152.19 102.25 152.38 102.71" style="fill:#fff;opacity:0.2"></polygon><path d="M156.05,104.32h0l-.51,1.3h0l-1.78,1.61a.27.27,0,0,0-.09.21l.21,2.5h0l-.43,1.13h0l-1.09-.61h0l2.64-6.31h0Z" style="fill:#fff;opacity:0.30000000000000004"></path><path d="M171.23,104.88l-2.09,1.88-.65.58a.24.24,0,0,0-.08.21l0,1,.13,2.72a.25.25,0,0,1-.36.24l-.75-.41-1.09-.61-.81-.45.81.45,1.1.6.15.09a.25.25,0,0,0,.36-.25l-.08-1h0l-.21-2.5a.24.24,0,0,1,.09-.21l1.78-1.61,1-.85a.23.23,0,0,0-.1-.4l-.35,0-1.06-.16-2-.3a.21.21,0,0,1-.17-.13l-.42-1h0l-.19-.46-.26-.65h0l-.1-.25h0l-.17-.42-.14-.35a.25.25,0,0,0-.13-.12l.62.09.09,0,0,0,.1.09.31.76.06.14.12.29.8,2a.22.22,0,0,0,.16.12l1.33.2,1.06.15,1.06.16A.22.22,0,0,1,171.23,104.88Z" style="fill:#7AD579"></path><path d="M171.23,104.88l-2.09,1.88-.65.58a.24.24,0,0,0-.08.21l0,1,.13,2.72a.25.25,0,0,1-.36.24l-.75-.41-1.09-.61-.81-.45.81.45,1.1.6.15.09a.25.25,0,0,0,.36-.25l-.08-1h0l-.21-2.5a.24.24,0,0,1,.09-.21l1.78-1.61,1-.85a.23.23,0,0,0-.1-.4l-.35,0-1.06-.16-2-.3a.21.21,0,0,1-.17-.13l-.42-1h0l-.19-.46-.26-.65h0l-.1-.25h0l-.17-.42-.14-.35a.25.25,0,0,0-.13-.12l.62.09.09,0,0,0,.1.09.31.76.06.14.12.29.8,2a.22.22,0,0,0,.16.12l1.33.2,1.06.15,1.06.16A.22.22,0,0,1,171.23,104.88Z" style="opacity:0.5"></path><path d="M166.24,100.68l-.12-.11A.17.17,0,0,1,166.24,100.68Z" style="fill:#263238"></path><path d="M166,100.55l.09,0Z" style="fill:#263238"></path><path d="M165.08,109.76l-1.72.87h0l-.82.41-.51.25h0a.36.36,0,0,1-.23,0h0l-.7-.11h0l.1,0,.41-.21.71-.35.37-.19.17-.09.79-.39.82-.41a.22.22,0,0,1,.22,0Z" style="fill:#7AD579"></path><path d="M165.08,109.76l-1.72.87h0l-.82.41-.51.25h0a.36.36,0,0,1-.23,0h0l-.7-.11h0l.1,0,.41-.21.71-.35.37-.19.17-.09.79-.39.82-.41a.22.22,0,0,1,.22,0Z" style="opacity:0.5"></path><path d="M166,101.6l-.31-.59-.3-.56h.07a.25.25,0,0,1,.13.12l.14.35Z" style="fill:#263238"></path><path d="M162.66,110.42l-1.08.54-.41.21-.1,0,.72-1.33.06,0Z" style="fill:#263238"></path><path d="M170.53,104.78l-1,.85h0l-1.78,1.61a.24.24,0,0,0-.09.21l.21,2.5h0l.08,1a.25.25,0,0,1-.36.25l-.15-.09-1.1-.6-.81-.45h0l-.48-.26-.42-.23a.22.22,0,0,0-.22,0l-.82.41-.79.39-.17.09-.37.19-.71.35-.41.21-.1,0a.22.22,0,0,1-.22-.27l.06-.21.85-3.26a.25.25,0,0,0,0-.21l-2.31-2.46a.25.25,0,0,1,.16-.4l3.53-.51a.26.26,0,0,0,.19-.13l1.84-3.16,0-.06a.27.27,0,0,1,.12-.06h.12a.25.25,0,0,1,.13.12l.14.35.17.42.1.25h0l.26.65.19.46h0l.42,1a.21.21,0,0,0,.17.13l2,.3,1.06.16.35,0A.23.23,0,0,1,170.53,104.78Z" style="fill:#7AD579"></path><path d="M165.85,101.35v0l-3.42,8.88-.13.34-.71.35-.41.21-.1,0a.22.22,0,0,1-.22-.27l.06-.21,4.26-10.19a.27.27,0,0,1,.12-.06h.12a.25.25,0,0,1,.13.12l.14.35Z" style="fill:#fff;opacity:0.4"></path><polygon points="166.4 102.71 166.4 102.71 163.62 109.94 162.83 110.33 166.21 102.25 166.4 102.71" style="fill:#fff;opacity:0.2"></polygon><path d="M170.08,104.32h0l-.51,1.3h0l-1.78,1.61a.24.24,0,0,0-.09.21l.21,2.5h0l-.43,1.13h0l-1.09-.61h0l2.64-6.31h0Z" style="fill:#fff;opacity:0.30000000000000004"></path><path d="M185.26,104.88l-2.09,1.88-.65.58a.24.24,0,0,0-.08.21l0,1,.13,2.72a.25.25,0,0,1-.36.24l-.75-.41-1.09-.61-.81-.45.81.45,1.09.6.16.09a.25.25,0,0,0,.36-.25l-.08-1h0l-.21-2.5a.24.24,0,0,1,.09-.21l1.78-1.61,1-.85a.23.23,0,0,0-.1-.4l-.35,0-1.07-.16-2-.3a.21.21,0,0,1-.17-.13l-.42-1h0l-.19-.46-.26-.65h0l-.1-.25h0l-.17-.42-.14-.35a.25.25,0,0,0-.13-.12l.62.09.09,0,0,0,.1.09.31.76.06.14.12.29.8,2a.2.2,0,0,0,.16.12l1.32.2,1.07.15,1.06.16A.22.22,0,0,1,185.26,104.88Z" style="fill:#7AD579"></path><path d="M185.26,104.88l-2.09,1.88-.65.58a.24.24,0,0,0-.08.21l0,1,.13,2.72a.25.25,0,0,1-.36.24l-.75-.41-1.09-.61-.81-.45.81.45,1.09.6.16.09a.25.25,0,0,0,.36-.25l-.08-1h0l-.21-2.5a.24.24,0,0,1,.09-.21l1.78-1.61,1-.85a.23.23,0,0,0-.1-.4l-.35,0-1.07-.16-2-.3a.21.21,0,0,1-.17-.13l-.42-1h0l-.19-.46-.26-.65h0l-.1-.25h0l-.17-.42-.14-.35a.25.25,0,0,0-.13-.12l.62.09.09,0,0,0,.1.09.31.76.06.14.12.29.8,2a.2.2,0,0,0,.16.12l1.32.2,1.07.15,1.06.16A.22.22,0,0,1,185.26,104.88Z" style="opacity:0.5"></path><path d="M180.27,100.68l-.12-.11A.19.19,0,0,1,180.27,100.68Z" style="fill:#263238"></path><path d="M180.06,100.55l.09,0Z" style="fill:#263238"></path><path d="M179.11,109.76l-1.73.87h0l-.81.41-.51.25h0a.36.36,0,0,1-.23,0h0l-.7-.11h0l.1,0,.4-.21.71-.35.37-.19.18-.09.79-.39.82-.41a.2.2,0,0,1,.21,0Z" style="fill:#7AD579"></path><path d="M179.11,109.76l-1.73.87h0l-.81.41-.51.25h0a.36.36,0,0,1-.23,0h0l-.7-.11h0l.1,0,.4-.21.71-.35.37-.19.18-.09.79-.39.82-.41a.2.2,0,0,1,.21,0Z" style="opacity:0.5"></path><path d="M180,101.6l-.32-.59-.29-.56h.07a.25.25,0,0,1,.13.12l.14.35Z" style="fill:#263238"></path><path d="M176.68,110.42l-1.08.54-.4.21-.1,0,.72-1.33.06,0Z" style="fill:#263238"></path><path d="M184.56,104.78l-1,.85h0l-1.78,1.61a.24.24,0,0,0-.09.21l.21,2.5h0l.08,1a.25.25,0,0,1-.36.25l-.16-.09-1.09-.6-.81-.45h0l-.48-.26-.43-.23a.2.2,0,0,0-.21,0l-.82.41-.79.39-.18.09-.37.19-.71.35-.4.21-.1,0a.21.21,0,0,1-.22-.27l.06-.21.84-3.26a.22.22,0,0,0,0-.21l-2.31-2.46a.25.25,0,0,1,.16-.4l3.53-.51a.26.26,0,0,0,.19-.13l1.84-3.16,0-.06a.23.23,0,0,1,.12-.06h.12a.25.25,0,0,1,.13.12l.14.35.17.42.1.25h0l.26.65.19.46h0l.42,1a.21.21,0,0,0,.17.13l2,.3,1.07.16.35,0A.23.23,0,0,1,184.56,104.78Z" style="fill:#7AD579"></path><path d="M179.88,101.35v0l-3.43,8.88-.13.34-.71.35-.4.21-.1,0a.21.21,0,0,1-.22-.27l.06-.21,4.26-10.19a.23.23,0,0,1,.12-.06h.12a.25.25,0,0,1,.13.12l.14.35Z" style="fill:#fff;opacity:0.4"></path><polygon points="180.43 102.71 180.43 102.71 177.65 109.94 176.86 110.33 180.24 102.25 180.43 102.71" style="fill:#fff;opacity:0.2"></polygon><path d="M184.11,104.32h0l-.51,1.3h0l-1.78,1.61a.24.24,0,0,0-.09.21l.21,2.5h0l-.44,1.13h0l-1.09-.61h0l2.63-6.31h0Z" style="fill:#fff;opacity:0.30000000000000004"></path><rect x="127.71" y="120.35" width="60.29" height="1" style="fill:#7AD579"></rect><rect x="115.93" y="125.97" width="72.06" height="1" style="fill:#7AD579"></rect><rect x="115.93" y="131.6" width="49.44" height="1" style="fill:#7AD579"></rect></g><g id="freepik--character-1--inject-23"><polygon points="138.49 403.81 145.03 405.23 149.57 393.6 141.94 390.21 138.49 403.81" style="fill:#ffb573"></polygon><polygon points="140.09 397.49 141.8 390.75 145.32 391.71 149.57 393.6 147.39 399.17 140.09 397.49" style="opacity:0.1"></polygon><path d="M136.33,403.13s-.27-.27-.63-.58-.57-.48-.91-.73a4.45,4.45,0,0,0-2.23-1,1,1,0,0,0-.69.27.72.72,0,0,0-.23.8c.21.49,1.15.93,2.11,1.19l.65.15a15.27,15.27,0,0,0,1.78.26h0a.18.18,0,0,0,.17-.12A.18.18,0,0,0,136.33,403.13Zm-1.46-.21c-1.31-.25-2.69-.7-2.88-1.2,0-.07-.05-.2.15-.39a.54.54,0,0,1,.42-.16,1.5,1.5,0,0,1,.37.05,8.33,8.33,0,0,1,2.33,1.49c.13.1.26.22.39.34C135.4,403,135.14,403,134.87,402.92Z" style="fill:#7AD579"></path><path d="M136,400a1.4,1.4,0,0,0-.93-.58c-.52-.09-.74.13-.82.33-.21.44.1,1.27.55,2.05a9,9,0,0,0,.58.85,5.29,5.29,0,0,0,.7.75.11.11,0,0,0,.08,0h0a.14.14,0,0,0,.09,0,.19.19,0,0,0,.12-.14,7.2,7.2,0,0,0,.08-.87A4.08,4.08,0,0,0,136,400Zm.07,2.83c-.09-.1-.19-.2-.28-.32-.72-.86-1.38-2.19-1.21-2.64,0,0,.08-.17.42-.11l.1,0a1,1,0,0,1,.57.39,4.36,4.36,0,0,1,.44,2.27C136.09,402.6,136.08,402.72,136.06,402.85Z" style="fill:#7AD579"></path><path d="M137.25,402.58l8.43,2.24a.7.7,0,0,1,.52.71l-.29,7.26a1.17,1.17,0,0,1-1.21,1.13,1,1,0,0,1-.24,0c-3-.85-5.69-1.74-9.47-2.74-4.47-1.18-3.48-.35-8.75-1.67-3.17-.79-2.8-4.54-1.41-4.36,6.35.85,7.48-.83,10.43-2.4A2.79,2.79,0,0,1,137.25,402.58Z" style="fill:#263238"></path><polygon points="185.9 411.75 192.59 411.75 194.56 399.42 186.38 397.72 185.9 411.75" style="fill:#ffb573"></polygon><polygon points="186.38 397.72 194.56 399.42 193.64 405.15 186.14 404.81 186.38 397.72" style="opacity:0.1"></polygon><path d="M183.68,411.16s-.33-.19-.76-.4-.65-.3-1-.45a4.41,4.41,0,0,0-2.46-.42.94.94,0,0,0-.59.44.72.72,0,0,0,0,.83,3.41,3.41,0,0,0,2.35.59l.66,0a14.85,14.85,0,0,0,1.76-.22h0a.22.22,0,0,0,.15-.16A.21.21,0,0,0,183.68,411.16Zm-1.47.18c-1.33.1-2.77,0-3.08-.41-.06-.06-.11-.17,0-.41a.54.54,0,0,1,.37-.27,1.49,1.49,0,0,1,.36-.05,8.46,8.46,0,0,1,2.64.83,2.92,2.92,0,0,1,.47.23Z" style="fill:#7AD579"></path><path d="M183.8,411.33a7.33,7.33,0,0,0-.14-.86,4.24,4.24,0,0,0-1.12-2.23,1.37,1.37,0,0,0-1-.31c-.53.05-.69.31-.71.53-.09.49.44,1.22,1.1,1.85a6.22,6.22,0,0,0,.75.64,4.37,4.37,0,0,0,.88.55.11.11,0,0,0,.08,0h0s.07,0,.1,0A.19.19,0,0,0,183.8,411.33Zm-2.67-2.84c0-.05,0-.18.38-.22h.1a1,1,0,0,1,.66.24,4.42,4.42,0,0,1,1,2.07,2.58,2.58,0,0,1,.06.37l-.35-.23C182.07,410.08,181.09,409,181.13,408.49Z" style="fill:#7AD579"></path><path d="M184.43,410.39l8.72-.05a.71.71,0,0,1,.69.54l1.61,7.09a1.17,1.17,0,0,1-.86,1.41l-.25,0c-3.14,0-5.94-.2-9.86-.17-4.62,0-3.44.57-8.87.68-3.27.06-3.89-3.65-2.51-3.84,6.35-.84,7-2.76,9.43-5.05A2.79,2.79,0,0,1,184.43,410.39Z" style="fill:#263238"></path><path d="M119.87,172.08l2.16,2.7,5.36-.43,1.85,1.89,25,6.92c6-4.91,18.74-10.72,18.74-10.72,6.72,2.84,6,7.86,6,7.86s-16.52,10-23.32,11.29c-5.82,1.1-28.83-11.89-28.83-11.89l-5.21-.17a2.69,2.69,0,0,1-1.84-.81l-1.45-1.49a2.71,2.71,0,0,1-.76-2.12l.22-2.43A1.13,1.13,0,0,1,119.87,172.08Z" style="fill:#ffb573"></path><path d="M168.61,172.35l-10.25,6.57,7.08,10.36,15.05-10.15s0-.15,0-.42A7.91,7.91,0,0,0,168.61,172.35Z" style="fill:#263238"></path><path d="M226.5,180.16a7.26,7.26,0,0,0,4.45-6.09c.09-2.65-2.07-5.33-4.72-5.35s-4.92,3.14-3.69,5.48a3,3,0,0,0,2.41,1.48h0c-2.62.34-3.36-1-4.09-3.12a9.24,9.24,0,0,1,.61-6.52,66.83,66.83,0,0,1,3.28-5.83c3.62-6.46,4.75-14.64,1.53-21.3s-11.35-11-18.37-8.67a15.6,15.6,0,0,0-2.87,1.31c-1.66.93-3.26,2.23-3.54,3.63a.24.24,0,0,0,0,.08,1.55,1.55,0,0,0,0,.48c0,2.34,3.17,4.71,4.75,5.81,1.88,1.3,3.94,2.6,5.21,4.43a6.55,6.55,0,0,1,.8,1.53c1.16,3.18-.44,6.67-2.27,9.52s-4,5.76-4.09,9.14c-.1,4.54-.34,15.12,15.76,16,3.37.18,7.25-.78,8.45-3.92A3.3,3.3,0,0,1,226.5,180.16ZM224,174.42a.69.69,0,0,1,.79.36A5.73,5.73,0,0,1,224,174.42Z" style="fill:#263238"></path><path d="M203.73,228l8.69-50a3.29,3.29,0,0,0-3-3.83s-14.12-2.27-18.86-2.65c-3.61-.29-12.16-.38-17.22-.41l-.43,3.57c-3.15,7.85-3.45,19.7-2.27,28.23l.2,1.41-1.8,25v6.83H202.8Z" style="fill:#263238"></path><path d="M183.57,171.7c5.1-.87,6.06-5.1,5.66-9l10.84-6.83c-1.52,4.33-3.51,11.94-1.87,16.33,0,0,.05,4.21-9.29,4.21S183.57,171.7,183.57,171.7Z" style="fill:#ffb573"></path><path d="M189.23,162.73l7.19-4.53a3.73,3.73,0,0,1-.29,3.24,8.76,8.76,0,0,1-6.88,4A13.31,13.31,0,0,0,189.23,162.73Z" style="opacity:0.2;isolation:isolate"></path><path d="M204.32,146.94c-2.08,7.42-2.92,11.87-7.56,14.9-7,4.58-15.5-.89-15.66-8.76-.16-7.14,3.28-18.05,11.28-19.45a10.51,10.51,0,0,1,11.94,13.31Z" style="fill:#ffb573"></path><path d="M192.09,146.57c-.13.62-.56,1.05-1,1s-.62-.65-.49-1.27.57-1,1-.95S192.22,146,192.09,146.57Z" style="fill:#263238"></path><path d="M185.17,145.08c-.13.61-.56,1-1,.95s-.62-.65-.48-1.26.56-1,1-1S185.31,144.47,185.17,145.08Z" style="fill:#263238"></path><path d="M187.69,145.87a22.47,22.47,0,0,1-4.06,4.59,3.65,3.65,0,0,0,2.81,1.19Z" style="fill:#ed893e"></path><path d="M195.09,144.22h.18a.39.39,0,0,0,.18-.49,3.69,3.69,0,0,0-2.6-2.12.37.37,0,1,0-.11.73h0a2.94,2.94,0,0,1,2,1.7A.42.42,0,0,0,195.09,144.22Z" style="fill:#263238"></path><path d="M183.09,141.71a.37.37,0,0,0,.32-.14,2.91,2.91,0,0,1,2.35-1.19.37.37,0,0,0,.4-.34.36.36,0,0,0-.34-.39,3.66,3.66,0,0,0-3,1.47.36.36,0,0,0,0,.5h0A.36.36,0,0,0,183.09,141.71Z" style="fill:#263238"></path><path d="M184.77,143.88l-1.46-.75S183.87,144.5,184.77,143.88Z" style="fill:#263238"></path><path d="M191.82,145.45l-1.46-.75S190.92,146.06,191.82,145.45Z" style="fill:#263238"></path><path d="M211.64,140.47c0,.66-.4.94-1,1-1.64.11-4.73-1.58-4.73-1.58a12,12,0,0,1-.34,9.41c-.85,2-2,3.39-3,3.72a1,1,0,0,1-.71,0c-1.05-.42-2.08.17-3,.63s-.11-3.31-.11-3.31a20.2,20.2,0,0,1-4.53-7.06,8.77,8.77,0,0,1-.32-1.21c-.42-2.24.29-3.23-1-3.72-2.4-.9-2.56,6.37-4.41,3.49s2.07-5.72,2.07-5.72c-2-.91-4.25,1.47-6.07,3.55-.08.11-.18.22-.26.32-.53.61-1,1.18-1.43,1.61-1.06,1.08-2.1,1.27-1.73-.79,3.35-18.5,23.66-7.33,23.66-7.33s4.73-5.69,6.44-2.38S206,137,206,137,211.64,138,211.64,140.47Z" style="fill:#263238"></path><path d="M206.48,154.75a7.4,7.4,0,0,1-5.14,2.19c-2.57,0-3.17-2.45-1.89-4.52,1.15-1.86,3.88-4.11,6.18-3.13S208.13,153,206.48,154.75Z" style="fill:#ffb573"></path><path d="M187.68,154.6a6.17,6.17,0,0,1-1.13-.1.2.2,0,0,1-.16-.22h0a.2.2,0,0,1,.23-.16,5.33,5.33,0,0,0,4.63-1.29.2.2,0,0,1,.28,0,.19.19,0,0,1,0,.28A5.55,5.55,0,0,1,187.68,154.6Z" style="fill:#263238"></path><path d="M202.36,192a20.92,20.92,0,0,1,1.57,7.73l-2.48-3.53S201.77,194.52,202.36,192Z" style="opacity:0.2;isolation:isolate"></path><path d="M169,228,139.78,391.14l10.52,3.6c7.95-21.18,14.24-40.24,19.21-57.18,2.36-8,3.31-15.6,5.11-22.69,2.15-8.42,5-16.17,6.51-23.24,7.71-37,7.09-55.61,7.09-55.61v-8Z" style="fill:#263238"></path><path d="M185.15,255.52l.69,9.35c-1.05,7.47-2.55,16.39-4.71,26.76-.7,3.36-1.73,6.89-2.84,10.56-1.3-23.73,4.13-52.57,4.13-52.57Z" style="opacity:0.30000000000000004"></path><path d="M180.51,230.46,185,399.76l11,.84c3-19.35,5.29-36.91,6.9-52.72,1-10.33.72-19.91,1.29-28.76,1-16.38,2.49-30.25,2.41-41.7-.19-28.22-1.8-31.3-2.8-41.69-.18-1.93,0-7.74,0-7.74H180.51Z" style="fill:#263238"></path><path d="M206.54,277.41c.07,11.45-1.36,25.33-2.42,41.71-.57,8.85-.24,18.43-1.29,28.76-1.61,15.81-3.85,33.38-6.9,52.73l-11-.85-3-112.45c-.26,1.41-.57,2.84-.87,4.32-1.47,7.07-4.37,14.82-6.51,23.25-1.8,7.08-2.75,14.64-5.11,22.68-5,16.94-11.26,36-19.22,57.18l-10.51-3.6L169,228h34.69s-.18,5.82,0,7.74C204.73,246.11,206.35,249.2,206.54,277.41Z" style="fill:#fff;opacity:0.2"></path><polygon points="197.46 397.68 183.95 396.84 183.95 401.16 196.67 402 197.46 397.68" style="fill:#263238"></polygon><path d="M195,229.78c3-.15,5.42-.34,7.11-.5l.22,3.78c-1.75.16-4.21.35-7.24.5Z" style="fill:#263238"></path><path d="M177.44,233.62v-3.79q2.43.1,4.74.15l.24,3.79C180.81,233.74,179.15,233.7,177.44,233.62Z" style="fill:#263238"></path><path d="M184.24,230c3.1,0,6,0,8.53-.13l.26,3.78c-2.28.08-4.78.14-7.48.14h-1.26Z" style="fill:#263238"></path><path d="M170.13,229.34c1.91.17,3.8.31,5.64.41v3.79q-3.12-.16-6.38-.47Z" style="fill:#263238"></path><polygon points="152.44 392.92 139.46 389.08 138.49 393.29 150.71 396.95 152.44 392.92" style="fill:#263238"></polygon><path d="M124.34,179.35l5.85-.71a2.14,2.14,0,0,0,1.88-2.62l-3.36-16a1.15,1.15,0,0,0-1.23-.88l-7.2.87a2.16,2.16,0,0,0-1.88,2.63l3.08,14.61A2.65,2.65,0,0,0,124.34,179.35Z" style="fill:#7AD579"></path><path d="M124.34,179.35l5.85-.71a2.14,2.14,0,0,0,1.88-2.62l-3.36-16a1.15,1.15,0,0,0-1.23-.88l-7.2.87a2.16,2.16,0,0,0-1.88,2.63l3.08,14.61A2.65,2.65,0,0,0,124.34,179.35Z" style="opacity:0.2"></path><path d="M124.07,179.69l5.85-.71a2.15,2.15,0,0,0,1.87-2.63l-3.36-15.94a1.13,1.13,0,0,0-1.22-.88l-7.21.87a2.15,2.15,0,0,0-1.87,2.63l3.08,14.61A2.65,2.65,0,0,0,124.07,179.69Z" style="fill:#7AD579"></path><path d="M124.12,179.68l5.73-.69a2.21,2.21,0,0,0,1.93-2.69l-3.34-15.84a1.18,1.18,0,0,0-1.29-.92l-7.08.85a2.22,2.22,0,0,0-1.93,2.69l3.06,14.51A2.7,2.7,0,0,0,124.12,179.68Z" style="fill:#fff;opacity:0.5"></path><path d="M125.53,164.59l2.57-.32A1,1,0,0,0,129,163l-.54-2.6a1.18,1.18,0,0,0-1.26-.9l-2.65.32a1,1,0,0,0-.89,1.25l.54,2.51A1.25,1.25,0,0,0,125.53,164.59Z" style="fill:#fff;opacity:0.30000000000000004"></path><path d="M125.72,164.34l2.33-.28a1,1,0,0,0,.89-1.24l-.49-2.31a1.26,1.26,0,0,0-1.35-1l-2.33.28a1,1,0,0,0-.89,1.25l.49,2.3A1.25,1.25,0,0,0,125.72,164.34Z" style="fill:#263238"></path><path d="M125.72,164.34l2.33-.28a1,1,0,0,0,.89-1.24l-.49-2.31a1.26,1.26,0,0,0-1.35-1l-2.33.28a1,1,0,0,0-.89,1.25l.49,2.3A1.25,1.25,0,0,0,125.72,164.34Z" style="fill:#fff;opacity:0.1"></path><path d="M123.82,170.07a1.33,1.33,0,0,0,1.44,1,1.08,1.08,0,0,0,.94-1.32,1.33,1.33,0,0,0-1.44-1A1.08,1.08,0,0,0,123.82,170.07Z" style="fill:#fff"></path><path d="M169.28,206.59c-1.2,1.77-7.28.57-7.28.57l-1.3-7.54,7.47,3Z" style="fill:#ffb573"></path><path d="M162.2,199.23l1.17,7.83-4.5.68a1,1,0,0,1-1.06-.78l-1.71-5.61a.51.51,0,0,1,.37-.61Z" style="fill:#ffb573"></path><path d="M160.2,202.79l2.56.45,2.42-1.82-.94-.67a3.17,3.17,0,0,1-1.25-1.88,13.66,13.66,0,0,1-.32-2.42v-.28a1.11,1.11,0,0,0-.94-.95l-.63.47a6.32,6.32,0,0,0-.17,2.55l-.1,1.31-1,.45Z" style="fill:#ffb573"></path><path d="M209.61,176.75l-15,20.68L167,202.86v4.53s25.95,1.92,31.77-1.48,15.61-24,15.61-24Z" style="fill:#ffb573"></path><path d="M212.47,176.24c3.53,4.18,2.49,14.52-2.6,21.1L197.44,190s7.29-12.31,11.32-14.73C210.47,174.27,211.17,174.71,212.47,176.24Z" style="fill:#263238"></path><path d="M198,130.9a9.24,9.24,0,0,1,4.42-4.41,6.36,6.36,0,0,1,.36,3.06c1.69.35,3.11.61,4.81,1s3.77.92,4.44,2.58a20,20,0,0,1-6.28,6.34c-1.79-2-3.71-4.36-4.22-7l-.17.5C200.17,132.86,198.88,131.56,198,130.9Z" style="fill:#7AD579"></path></g><g id="freepik--Icons--inject-23"><path d="M242.35,94.85l-2.94,1.2-.07,0-1.91-2.63c-5.89-8.4-12.64-17.72-4.46-21.91,5.68-2.92,10.13,2.23,12.24,5.37,3.46-1.56,11.14-6.54,14.28,2.62C262.11,87.16,251.78,90.8,242.35,94.85Z" style="fill:#7AD579"></path><path d="M232.72,74.14a.83.83,0,1,1-.09,0Z" style="fill:#fff;opacity:0.5"></path><path d="M233.46,83.75c-1.74-1.87,1.51-6.06-1-7.11C230.36,77,231.31,81.43,233.46,83.75Z" style="fill:#fff;opacity:0.5"></path><path d="M228.53,109.56l-1.6.65,0,0-1-1.43c-3.21-4.58-6.88-9.65-2.43-11.93,3.09-1.59,5.52,1.21,6.67,2.92,1.88-.85,6.06-3.56,7.77,1.43C239.29,105.37,233.66,107.35,228.53,109.56Z" style="fill:#7AD579"></path><path d="M223.28,98.29a.46.46,0,0,1,.44.6.44.44,0,1,1-.49-.6Z" style="fill:#fff;opacity:0.5"></path><path d="M223.68,103.52c-.94-1,.83-3.31-.53-3.88C222,99.81,222.52,102.25,223.68,103.52Z" style="fill:#fff;opacity:0.5"></path><g style="opacity:0.4"><path d="M242.35,94.85l-2.94,1.2-.07,0-1.91-2.63c-5.89-8.4-12.64-17.72-4.46-21.91,5.68-2.92,10.13,2.23,12.24,5.37,3.46-1.56,11.14-6.54,14.28,2.62C262.11,87.16,251.78,90.8,242.35,94.85Z" style="fill:#fff"></path><path d="M232.72,74.14a.83.83,0,1,1-.09,0Z" style="fill:#fff;opacity:0.5"></path><path d="M233.46,83.75c-1.74-1.87,1.51-6.06-1-7.11C230.36,77,231.31,81.43,233.46,83.75Z" style="fill:#fff;opacity:0.5"></path><path d="M228.53,109.56l-1.6.65,0,0-1-1.43c-3.21-4.58-6.88-9.65-2.43-11.93,3.09-1.59,5.52,1.21,6.67,2.92,1.88-.85,6.06-3.56,7.77,1.43C239.29,105.37,233.66,107.35,228.53,109.56Z" style="fill:#fff"></path><path d="M223.28,98.29a.46.46,0,0,1,.44.6.44.44,0,1,1-.49-.6Z" style="fill:#fff;opacity:0.5"></path><path d="M223.68,103.52c-.94-1,.83-3.31-.53-3.88C222,99.81,222.52,102.25,223.68,103.52Z" style="fill:#fff;opacity:0.5"></path></g><path d="M136.45,276.22l5.39,16.15a3.36,3.36,0,0,0,4,2.15l3.55-1a3,3,0,0,0,2-3.83l-5.38-16.15a3.37,3.37,0,0,0-4-2.15l-3.55,1A3,3,0,0,0,136.45,276.22Z" style="fill:#7AD579"></path><path d="M136.45,276.22l5.39,16.15a3.36,3.36,0,0,0,4,2.15l3.55-1a3,3,0,0,0,2-3.83l-5.38-16.15a3.37,3.37,0,0,0-4-2.15l-3.55,1A3,3,0,0,0,136.45,276.22Z" style="fill:#fff;opacity:0.5"></path><path d="M109,283.93l7.1,13.31a4.86,4.86,0,0,0,1.65,1.78l1.77,1.13a4.8,4.8,0,0,0,3.82.6l14.54-4A3.66,3.66,0,0,0,140.4,292l-5-15.09a5.36,5.36,0,0,0-1.93-2.62l-9-6.59-2.19-6.56-4.13,1.14a3.5,3.5,0,0,0-2.57,4l.7,4.44a3.81,3.81,0,0,0,.79,1.78l3.83,4.81-10.39,2.87Z" style="fill:#7AD579"></path><path d="M109,283.93l7.1,13.31a4.86,4.86,0,0,0,1.65,1.78l1.77,1.13a4.8,4.8,0,0,0,3.82.6l14.54-4A3.66,3.66,0,0,0,140.4,292l-5-15.09a5.36,5.36,0,0,0-1.93-2.62l-9-6.59-2.19-6.56-4.13,1.14a3.5,3.5,0,0,0-2.57,4l.7,4.44a3.81,3.81,0,0,0,.79,1.78l3.83,4.81-10.39,2.87Z" style="fill:#fff;opacity:0.5"></path><path d="M91.23,309l-3.9-11.69a2.43,2.43,0,0,0-2.92-1.56l-2.57.71a2.14,2.14,0,0,0-1.48,2.77l3.9,11.69a2.43,2.43,0,0,0,2.92,1.56l2.57-.71A2.14,2.14,0,0,0,91.23,309Z" style="fill:#7AD579"></path><path d="M91.23,309l-3.9-11.69a2.43,2.43,0,0,0-2.92-1.56l-2.57.71a2.14,2.14,0,0,0-1.48,2.77l3.9,11.69a2.43,2.43,0,0,0,2.92,1.56l2.57-.71A2.14,2.14,0,0,0,91.23,309Z" style="fill:#fff;opacity:0.5"></path><path d="M111.1,303.37,106,293.73a3.54,3.54,0,0,0-1.2-1.29l-1.28-.82a3.48,3.48,0,0,0-2.77-.43L90.19,294.1a2.64,2.64,0,0,0-1.82,3.42L92,308.45a3.82,3.82,0,0,0,1.39,1.9l6.54,4.77,1.58,4.75,3-.82a2.54,2.54,0,0,0,1.87-2.87l-.51-3.22a2.78,2.78,0,0,0-.57-1.29l-2.77-3.48,7.52-2.08Z" style="fill:#7AD579"></path><path d="M111.1,303.37,106,293.73a3.54,3.54,0,0,0-1.2-1.29l-1.28-.82a3.48,3.48,0,0,0-2.77-.43L90.19,294.1a2.64,2.64,0,0,0-1.82,3.42L92,308.45a3.82,3.82,0,0,0,1.39,1.9l6.54,4.77,1.58,4.75,3-.82a2.54,2.54,0,0,0,1.87-2.87l-.51-3.22a2.78,2.78,0,0,0-.57-1.29l-2.77-3.48,7.52-2.08Z" style="fill:#7AD579"></path><g style="opacity:0.5"><path d="M136.45,276.22l5.39,16.15a3.36,3.36,0,0,0,4,2.15l3.55-1a3,3,0,0,0,2-3.83l-5.38-16.15a3.37,3.37,0,0,0-4-2.15l-3.55,1A3,3,0,0,0,136.45,276.22Z" style="fill:#fff"></path><path d="M91.23,309l-3.9-11.69a2.43,2.43,0,0,0-2.92-1.56l-2.57.71a2.14,2.14,0,0,0-1.48,2.77l3.9,11.69a2.43,2.43,0,0,0,2.92,1.56l2.57-.71A2.14,2.14,0,0,0,91.23,309Z" style="fill:#fff"></path><path d="M111.1,303.37,106,293.73a3.54,3.54,0,0,0-1.2-1.29l-1.28-.82a3.48,3.48,0,0,0-2.77-.43L90.19,294.1a2.64,2.64,0,0,0-1.82,3.42L92,308.45a3.82,3.82,0,0,0,1.39,1.9l6.54,4.77,1.58,4.75,3-.82a2.54,2.54,0,0,0,1.87-2.87l-.51-3.22a2.78,2.78,0,0,0-.57-1.29l-2.77-3.48,7.52-2.08Z" style="fill:#fff"></path><path d="M111.1,303.37,106,293.73a3.54,3.54,0,0,0-1.2-1.29l-1.28-.82a3.48,3.48,0,0,0-2.77-.43L90.19,294.1a2.64,2.64,0,0,0-1.82,3.42L92,308.45a3.82,3.82,0,0,0,1.39,1.9l6.54,4.77,1.58,4.75,3-.82a2.54,2.54,0,0,0,1.87-2.87l-.51-3.22a2.78,2.78,0,0,0-.57-1.29l-2.77-3.48,7.52-2.08Z" style="fill:#fff"></path></g><polygon points="316.68 124.81 316.68 124.81 316.68 124.81 316.68 124.81" style="fill:#263238"></polygon><path d="M317.14,125.22l-.46-.41A.8.8,0,0,1,317.14,125.22Z" style="fill:#263238"></path><path d="M316.35,124.76a.91.91,0,0,1,.33,0Z" style="fill:#263238"></path><path d="M316.4,128.47l-1.31-2.11-1.21-2h0l.24,0a.82.82,0,0,1,.5.42l.61,1.24Z" style="fill:#263238"></path><path d="M307.48,159.59l-3.64,1.91-1.36.72a.79.79,0,0,1-.35.09l2.12-4.69.23.14Z" style="fill:#263238"></path><path d="M333.52,139.67l-3.11,3h0l-5.8,5.66a.8.8,0,0,0-.24.73l1.52,8.83h0l.58,3.44a.82.82,0,0,1-1.19.87l-.59-.31-4.05-2.13-3-1.57-.06,0-1.77-.93-1.57-.82a.81.81,0,0,0-.77,0l-2.75,1.44-2.65,1.4-.61.32-1.25.65-2.39,1.26-1.36.72a.79.79,0,0,1-.35.09.83.83,0,0,1-.85-1l.13-.74,2-11.53a.85.85,0,0,0-.24-.73l-8.91-8.68a.83.83,0,0,1,.46-1.41L307,136.47a.83.83,0,0,0,.62-.45l5.51-11.16a.73.73,0,0,1,.16-.22.81.81,0,0,1,.39-.22l.19,0h0l.16,0,.08,0a.82.82,0,0,1,.5.42l.61,1.24.73,1.47.44.9h0l1.12,2.26.81,1.65h0l1.8,3.64a.83.83,0,0,0,.62.45l7.25,1.05,3.79.55,1.27.19A.83.83,0,0,1,333.52,139.67Z" style="fill:#7AD579"></path><path d="M336,140l-6.81,6.63-2.1,2.05a.83.83,0,0,0-.24.73l.47,3.51,1.29,9.58a.82.82,0,0,1-1.19.87l-2.77-1.47-4.05-2.14-3-1.58,3,1.57,4.05,2.13.59.31a.82.82,0,0,0,1.19-.87l-.58-3.44h0l-1.52-8.83a.8.8,0,0,1,.24-.73l5.8-5.66,3.11-3a.83.83,0,0,0-.46-1.41l-1.27-.19-3.79-.55-7.25-1.05a.83.83,0,0,1-.62-.45l-1.8-3.64h0l-.81-1.65-1.12-2.26h0l-.44-.9h0l-.73-1.47-.61-1.24a.82.82,0,0,0-.5-.42l2.23.32.33,0,.08.07.38.34,1.32,2.67.25.5.5,1,3.44,7a.83.83,0,0,0,.62.45l4.73.69,3.79.55,3.79.55A.83.83,0,0,1,336,140Z" style="fill:#7AD579"></path><path d="M315.83,157.25,310,160.31h0l-2.76,1.45-1.71.9,0,0a1.22,1.22,0,0,1-.82,0l-.05,0-2.51-.39h0a.79.79,0,0,0,.35-.09l1.36-.72,2.39-1.26,1.25-.65.61-.32,2.65-1.4,2.75-1.44a.81.81,0,0,1,.77,0Z" style="fill:#7AD579"></path><path d="M336,140l-6.81,6.63-2.1,2.05a.83.83,0,0,0-.24.73l.47,3.51,1.29,9.58a.82.82,0,0,1-1.19.87l-2.77-1.47-4.05-2.14-3-1.58,3,1.57,4.05,2.13.59.31a.82.82,0,0,0,1.19-.87l-.58-3.44h0l-1.52-8.83a.8.8,0,0,1,.24-.73l5.8-5.66,3.11-3a.83.83,0,0,0-.46-1.41l-1.27-.19-3.79-.55-7.25-1.05a.83.83,0,0,1-.62-.45l-1.8-3.64h0l-.81-1.65-1.12-2.26h0l-.44-.9h0l-.73-1.47-.61-1.24a.82.82,0,0,0-.5-.42l2.23.32.33,0,.08.07.38.34,1.32,2.67.25.5.5,1,3.44,7a.83.83,0,0,0,.62.45l4.73.69,3.79.55,3.79.55A.83.83,0,0,1,336,140Z" style="fill:#fff;opacity:0.30000000000000004"></path><path d="M315.83,157.25,310,160.31h0l-2.76,1.45-1.71.9,0,0a1.22,1.22,0,0,1-.82,0l-.05,0-2.51-.39h0a.79.79,0,0,0,.35-.09l1.36-.72,2.39-1.26,1.25-.65.61-.32,2.65-1.4,2.75-1.44a.81.81,0,0,1,.77,0Z" style="fill:#fff;opacity:0.30000000000000004"></path><path d="M316,127.57l0,.13L306.59,159l-.36,1.2-2.39,1.26-1.36.72a.79.79,0,0,1-.35.09.83.83,0,0,1-.85-1l.13-.74,11.89-36a.81.81,0,0,1,.39-.22H314l.08,0a.82.82,0,0,1,.5.42l.61,1.24Z" style="fill:#fff;opacity:0.4"></path><polygon points="318.33 132.38 318.33 132.38 310.74 157.87 308.08 159.27 317.52 130.73 318.33 132.38" style="fill:#fff;opacity:0.2"></polygon><g style="opacity:0.5"><polygon points="316.68 124.66 316.68 124.66 316.68 124.66 316.68 124.66" style="fill:#fff"></polygon><path d="M317.14,125.07l-.46-.41A.77.77,0,0,1,317.14,125.07Z" style="fill:#fff"></path><path d="M316.35,124.61a.74.74,0,0,1,.33,0Z" style="fill:#fff"></path><path d="M316.4,128.32l-1.31-2.11-1.21-2h0l.24,0a.84.84,0,0,1,.5.43l.61,1.23Z" style="fill:#fff"></path></g><path d="M333.56,139.44l-3.11,3h0l-5.8,5.66a.8.8,0,0,0-.24.73l1.51,8.83h0l.59,3.43a.82.82,0,0,1-1.2.87l-.58-.3-4.05-2.14-3-1.56-.06,0-1.77-.93-1.57-.83a.81.81,0,0,0-.77,0l-2.75,1.45-2.66,1.4-.6.31-1.25.66-2.39,1.26-1.36.71a1,1,0,0,1-.35.1.83.83,0,0,1-.85-1l.13-.73,2-11.53a.85.85,0,0,0-.24-.73l-8.91-8.69a.82.82,0,0,1,.46-1.4l12.31-1.79a.82.82,0,0,0,.62-.46l5.51-11.15a.73.73,0,0,1,.16-.23.79.79,0,0,1,.39-.21.62.62,0,0,1,.19,0h.16l.08,0a.81.81,0,0,1,.5.43l.61,1.23.73,1.48.44.9h0l1.12,2.26.81,1.65h0l1.79,3.63a.83.83,0,0,0,.63.46L328,137.3l3.8.55,1.27.19A.82.82,0,0,1,333.56,139.44Z" style="fill:#fff;opacity:0.4"></path><polygon points="360.26 124.55 360.26 124.55 360.26 124.55 360.26 124.55" style="fill:#263238"></polygon><path d="M360.53,124.8l-.27-.25A.47.47,0,0,1,360.53,124.8Z" style="fill:#263238"></path><path d="M360.07,124.52a.63.63,0,0,1,.19,0Z" style="fill:#263238"></path><path d="M360.09,126.73l-.77-1.25-.72-1.17h0l.14,0a.52.52,0,0,1,.3.25l.36.74Z" style="fill:#263238"></path><path d="M354.8,145.22l-2.17,1.13-.81.43a.5.5,0,0,1-.21.05l1.27-2.79.13.09Z" style="fill:#263238"></path><path d="M370.26,133.38l-1.84,1.8h0L365,138.54a.49.49,0,0,0-.14.43l.9,5.25h0l.35,2a.49.49,0,0,1-.71.52l-.35-.19-2.41-1.26-1.77-.93,0,0-1.05-.55-.94-.49a.45.45,0,0,0-.45,0l-1.64.86-1.58.83-.35.19-.75.38-1.42.75-.81.43a.5.5,0,0,1-.21.05.49.49,0,0,1-.5-.57l.08-.44,1.17-6.85a.46.46,0,0,0-.14-.43l-5.29-5.16a.49.49,0,0,1,.27-.84l7.32-1.06a.49.49,0,0,0,.37-.27l3.27-6.63a.38.38,0,0,1,.09-.13.47.47,0,0,1,.24-.13h.25a.52.52,0,0,1,.3.25l.36.74.43.87.26.54h0l.67,1.34.48,1h0l1.07,2.16a.47.47,0,0,0,.37.27l4.3.63,2.26.32.75.11A.49.49,0,0,1,370.26,133.38Z" style="fill:#7AD579"></path><path d="M371.76,133.59l-4,3.94-1.25,1.22a.49.49,0,0,0-.14.44l.28,2.08.76,5.69a.49.49,0,0,1-.71.52l-1.64-.87-2.41-1.28-1.77-.93,1.77.93,2.41,1.26.35.19a.49.49,0,0,0,.71-.52l-.35-2h0l-.9-5.25a.49.49,0,0,1,.14-.43l3.45-3.36,1.84-1.8a.49.49,0,0,0-.27-.84l-.75-.11-2.26-.32-4.3-.63a.47.47,0,0,1-.37-.27l-1.07-2.16h0l-.48-1-.67-1.34h0l-.26-.54h0l-.43-.87-.36-.74a.52.52,0,0,0-.3-.25l1.33.19.19,0,.05,0,.22.21.79,1.58.14.3.3.61,2.05,4.14a.48.48,0,0,0,.37.26l2.81.41,2.25.33,2.25.33A.49.49,0,0,1,371.76,133.59Z" style="fill:#7AD579"></path><path d="M359.76,143.83l-3.46,1.81h0l-1.63.86-1,.54h0a.72.72,0,0,1-.48,0h0l-1.5-.23h0a.5.5,0,0,0,.21-.05l.81-.43,1.42-.75.75-.38.35-.19,1.58-.83,1.64-.86a.45.45,0,0,1,.45,0Z" style="fill:#7AD579"></path><path d="M371.76,133.59l-4,3.94-1.25,1.22a.49.49,0,0,0-.14.44l.28,2.08.76,5.69a.49.49,0,0,1-.71.52l-1.64-.87-2.41-1.28-1.77-.93,1.77.93,2.41,1.26.35.19a.49.49,0,0,0,.71-.52l-.35-2h0l-.9-5.25a.49.49,0,0,1,.14-.43l3.45-3.36,1.84-1.8a.49.49,0,0,0-.27-.84l-.75-.11-2.26-.32-4.3-.63a.47.47,0,0,1-.37-.27l-1.07-2.16h0l-.48-1-.67-1.34h0l-.26-.54h0l-.43-.87-.36-.74a.52.52,0,0,0-.3-.25l1.33.19.19,0,.05,0,.22.21.79,1.58.14.3.3.61,2.05,4.14a.48.48,0,0,0,.37.26l2.81.41,2.25.33,2.25.33A.49.49,0,0,1,371.76,133.59Z" style="fill:#fff;opacity:0.30000000000000004"></path><path d="M359.76,143.83l-3.46,1.81h0l-1.63.86-1,.54h0a.72.72,0,0,1-.48,0h0l-1.5-.23h0a.5.5,0,0,0,.21-.05l.81-.43,1.42-.75.75-.38.35-.19,1.58-.83,1.64-.86a.45.45,0,0,1,.45,0Z" style="fill:#fff;opacity:0.30000000000000004"></path><path d="M359.83,126.19l0,.08-5.54,18.62-.22.71-1.42.75-.81.43a.5.5,0,0,1-.21.05.49.49,0,0,1-.5-.57l.08-.44,7.06-21.37a.47.47,0,0,1,.24-.13h.25a.52.52,0,0,1,.3.25l.36.74Z" style="fill:#fff;opacity:0.4"></path><polygon points="361.24 129.05 361.24 129.05 356.73 144.2 355.15 145.03 360.76 128.07 361.24 129.05" style="fill:#fff;opacity:0.2"></polygon><g style="opacity:0.5"><polygon points="360.26 124.46 360.26 124.46 360.26 124.46 360.26 124.46" style="fill:#fff"></polygon><path d="M360.53,124.71l-.27-.25A.47.47,0,0,1,360.53,124.71Z" style="fill:#fff"></path><path d="M360.07,124.43a.63.63,0,0,1,.19,0Z" style="fill:#fff"></path><path d="M360.09,126.64l-.77-1.25-.72-1.17h0l.14,0a.52.52,0,0,1,.3.25l.36.74Z" style="fill:#fff"></path></g><path d="M370.29,133.25,368.44,135h0L365,138.41a.52.52,0,0,0-.14.43l.9,5.25h0l.35,2a.49.49,0,0,1-.71.51l-.34-.18-2.41-1.26-1.77-.94h0l-1.05-.56-.93-.49a.53.53,0,0,0-.46,0l-1.63.86-1.58.83-.36.19-.74.39-1.42.75-.81.42a.42.42,0,0,1-.21.06.48.48,0,0,1-.5-.57l.07-.44,1.18-6.85a.52.52,0,0,0-.14-.43l-5.3-5.16a.49.49,0,0,1,.27-.84l7.32-1.06a.52.52,0,0,0,.37-.27l3.27-6.63a.73.73,0,0,1,.09-.13.47.47,0,0,1,.24-.13h.25a.49.49,0,0,1,.3.25l.36.73.43.88.27.53h0l.66,1.35.48,1h0l1.07,2.16a.52.52,0,0,0,.37.27L367,132l2.25.33.76.11A.49.49,0,0,1,370.29,133.25Z" style="fill:#fff;opacity:0.4"></path><polygon points="351.88 155.96 351.88 155.96 351.88 155.96 351.88 155.96" style="fill:#263238"></polygon><path d="M352.14,156.19l-.26-.23A.39.39,0,0,1,352.14,156.19Z" style="fill:#263238"></path><path d="M351.69,155.93a.32.32,0,0,1,.19,0Z" style="fill:#263238"></path><path d="M351.72,158.07l-.76-1.22-.7-1.13h0l.14,0a.47.47,0,0,1,.29.25l.35.71Z" style="fill:#263238"></path><path d="M346.56,176.06l-2.1,1.1-.79.41a.39.39,0,0,1-.2.06l1.23-2.71.13.08Z" style="fill:#263238"></path><path d="M361.61,164.54l-1.79,1.75h0l-3.36,3.27a.51.51,0,0,0-.14.42l.88,5.11h0l.34,2a.47.47,0,0,1-.69.5l-.34-.17-2.34-1.23-1.73-.91,0,0-1-.53-.91-.48a.49.49,0,0,0-.44,0l-1.59.83-1.54.81-.35.19-.72.37-1.38.73-.79.41a.39.39,0,0,1-.2.06.48.48,0,0,1-.49-.56l.07-.42L344.2,170a.51.51,0,0,0-.14-.42l-5.15-5a.48.48,0,0,1,.26-.81l7.12-1a.45.45,0,0,0,.36-.26l3.18-6.44a.73.73,0,0,1,.09-.13.49.49,0,0,1,.23-.13h.25a.47.47,0,0,1,.29.25l.35.71.42.85.26.52h0l.64,1.31.47,1h0l1,2.1a.45.45,0,0,0,.36.26l4.19.61,2.19.32.74.11A.48.48,0,0,1,361.61,164.54Z" style="fill:#7AD579"></path><path d="M363.07,164.75l-3.94,3.83-1.21,1.19a.45.45,0,0,0-.14.42l.27,2,.75,5.54a.47.47,0,0,1-.69.5l-1.6-.85-2.34-1.24-1.73-.91,1.73.91,2.34,1.23.34.17a.47.47,0,0,0,.69-.5l-.34-2h0l-.88-5.11a.51.51,0,0,1,.14-.42l3.36-3.27,1.79-1.75a.48.48,0,0,0-.26-.81l-.74-.11-2.19-.32-4.19-.61a.45.45,0,0,1-.36-.26l-1-2.1h0l-.47-1-.64-1.31h0l-.26-.52h0l-.42-.85-.35-.71a.47.47,0,0,0-.29-.25l1.29.19.19,0,0,0,.22.19.77,1.55.14.29.29.59,2,4a.47.47,0,0,0,.36.26l2.73.4,2.19.32,2.19.32A.48.48,0,0,1,363.07,164.75Z" style="fill:#7AD579"></path><path d="M351.39,174.71,348,176.47h0l-1.59.84-1,.52h0a.69.69,0,0,1-.47,0h0l-1.45-.22h0a.39.39,0,0,0,.2-.06l.79-.41,1.38-.73.72-.37.35-.19,1.54-.81,1.59-.83a.49.49,0,0,1,.44,0Z" style="fill:#7AD579"></path><path d="M363.07,164.75l-3.94,3.83-1.21,1.19a.45.45,0,0,0-.14.42l.27,2,.75,5.54a.47.47,0,0,1-.69.5l-1.6-.85-2.34-1.24-1.73-.91,1.73.91,2.34,1.23.34.17a.47.47,0,0,0,.69-.5l-.34-2h0l-.88-5.11a.51.51,0,0,1,.14-.42l3.36-3.27,1.79-1.75a.48.48,0,0,0-.26-.81l-.74-.11-2.19-.32-4.19-.61a.45.45,0,0,1-.36-.26l-1-2.1h0l-.47-1-.64-1.31h0l-.26-.52h0l-.42-.85-.35-.71a.47.47,0,0,0-.29-.25l1.29.19.19,0,0,0,.22.19.77,1.55.14.29.29.59,2,4a.47.47,0,0,0,.36.26l2.73.4,2.19.32,2.19.32A.48.48,0,0,1,363.07,164.75Z" style="fill:#fff;opacity:0.30000000000000004"></path><path d="M351.39,174.71,348,176.47h0l-1.59.84-1,.52h0a.69.69,0,0,1-.47,0h0l-1.45-.22h0a.39.39,0,0,0,.2-.06l.79-.41,1.38-.73.72-.37.35-.19,1.54-.81,1.59-.83a.49.49,0,0,1,.44,0Z" style="fill:#fff;opacity:0.30000000000000004"></path><path d="M351.46,157.55l0,.08-5.39,18.11-.21.69-1.38.73-.79.41a.39.39,0,0,1-.2.06.48.48,0,0,1-.49-.56l.07-.42,6.87-20.79a.49.49,0,0,1,.23-.13h.25a.47.47,0,0,1,.29.25l.35.71Z" style="fill:#fff;opacity:0.4"></path><polygon points="352.83 160.33 352.83 160.33 348.45 175.06 346.91 175.87 352.36 159.38 352.83 160.33" style="fill:#fff;opacity:0.2"></polygon><g style="opacity:0.5"><polygon points="351.88 155.87 351.88 155.87 351.88 155.87 351.88 155.87" style="fill:#fff"></polygon><path d="M352.14,156.11l-.26-.24A.44.44,0,0,1,352.14,156.11Z" style="fill:#fff"></path><path d="M351.69,155.84a.63.63,0,0,1,.19,0Z" style="fill:#fff"></path><path d="M351.72,158l-.76-1.21-.7-1.14h0l.14,0a.5.5,0,0,1,.29.25l.35.71Z" style="fill:#fff"></path></g><path d="M361.63,164.41l-1.79,1.75h0l-3.36,3.27a.47.47,0,0,0-.13.42l.87,5.11h0l.34,2a.47.47,0,0,1-.69.5l-.34-.17L354.19,176l-1.72-.91,0,0-1-.53-.91-.48a.49.49,0,0,0-.44,0l-1.59.83-1.54.81-.34.19-.73.37-1.38.73-.79.41a.36.36,0,0,1-.2.06.48.48,0,0,1-.49-.56l.08-.42,1.14-6.67a.51.51,0,0,0-.14-.42l-5.15-5a.47.47,0,0,1,.27-.81l7.11-1a.48.48,0,0,0,.36-.27l3.18-6.44a.45.45,0,0,1,.1-.13.41.41,0,0,1,.23-.13h.24a.45.45,0,0,1,.29.25l.35.71.42.85.26.52h0l.64,1.31.47.95h0l1,2.1a.5.5,0,0,0,.36.27l4.19.6,2.19.32.74.11A.48.48,0,0,1,361.63,164.41Z" style="fill:#fff;opacity:0.4"></path></g></svg>