<svg xmlns="http://www.w3.org/2000/svg" viewBox="0 0 500 500"><g id="freepik--background-simple--inject-29"><path d="M297.46,150.69c-26.44-39.54-36.82-75.3-93.7-86C165.36,57.39,118.41,66,95.08,94.38c-42.18,51.4-46.84,180.06,44,200.82,44.41,10.15,82.51-1.78,127.46,16.31S350.7,343.37,392.42,309C419.15,287,433,246,408.11,218,378,184.25,327.17,195.11,297.46,150.69Z" style="fill:#7AD579"></path><path d="M297.46,150.69c-26.44-39.54-36.82-75.3-93.7-86C165.36,57.39,118.41,66,95.08,94.38c-42.18,51.4-46.84,180.06,44,200.82,44.41,10.15,82.51-1.78,127.46,16.31S350.7,343.37,392.42,309C419.15,287,433,246,408.11,218,378,184.25,327.17,195.11,297.46,150.69Z" style="fill:#fff;opacity:0.9"></path></g><g id="freepik--Shadow--inject-29"><ellipse id="freepik--path--inject-29" cx="250" cy="416.24" rx="193.89" ry="11.32" style="fill:#f5f5f5"></ellipse></g><g id="freepik--Server--inject-29"><path d="M86.52,401.47V400h-9a.76.76,0,0,0-.76.76h0a.76.76,0,0,0,.76.76Z" style="fill:#7AD579"></path><path d="M86.52,408v-1.52h-9a.76.76,0,0,0-.76.76h0a.76.76,0,0,0,.76.76Z" style="fill:#7AD579"></path><path d="M83.3,396.24h0A1.26,1.26,0,0,0,82,397.51v13.21A1.26,1.26,0,0,0,83.3,412h0a1.26,1.26,0,0,0,1.26-1.27V397.51A1.26,1.26,0,0,0,83.3,396.24Z" style="fill:#263238"></path><path d="M86.88,398.09H83.3v12.05h3.58a6,6,0,0,0,6-6h0A6,6,0,0,0,86.88,398.09Z" style="fill:#263238"></path><path d="M115.12,412.36a64.42,64.42,0,0,1-7.72-.61l-4.4-.53c-.7,0-1.41.08-2.13.16-1,.1-2.05.27-3.05.42a30.27,30.27,0,0,1-5.81.54,2.86,2.86,0,0,1-1.19-.23,1.28,1.28,0,0,1,0-2.36,3,3,0,0,1,1.11-.27,32.58,32.58,0,0,1,6.64.33l4.5.54c1.82-.08,3.58,0,5.29,0a62.19,62.19,0,0,0,6.8-.08c2-.16,3.43-.84,3.51-1.14-.43-.52-1.54-.68-3.81-1-1.68-.21-3.82-.27-6.09-.33-1.78-.05-3.63-.1-5.52-.22-3.78-.26-8.64-.86-12.77-3.27a.44.44,0,0,1,.44-.76c4,2.33,8.71,2.91,12.38,3.16,1.88.12,3.72.17,5.5.22,2.28.06,4.45.12,6.17.34a21.68,21.68,0,0,1,2.95.48l-.11-.15c-.33-.43-.67-.86-1-1.33a6.4,6.4,0,0,1-1-2,2.75,2.75,0,0,1,.49-2.37,3.53,3.53,0,0,1,2.37-1,25,25,0,0,1,6.24.39.43.43,0,1,1-.13.86,24.31,24.31,0,0,0-6-.38,2.78,2.78,0,0,0-1.79.7,1.87,1.87,0,0,0-.31,1.62,5.78,5.78,0,0,0,.84,1.75c.28.43.6.85.92,1.26s.41.53.6.8l.1.14a3.38,3.38,0,0,1,.93,2.32c-.27,1.93-3,2-4.3,2ZM111,411.28a43,43,0,0,0,4.68.2c1.12,0,3.34-.06,3.51-1.25a.93.93,0,0,0,0-.4c-.74.78-2.71,1.2-4,1.31S112.39,411.28,111,411.28Zm-17.54-1q-.77,0-1.53.06a2.18,2.18,0,0,0-.78.18.41.41,0,0,0,0,.79,2.09,2.09,0,0,0,.84.15,29.6,29.6,0,0,0,5.64-.53l1.28-.2-.53-.06A42.55,42.55,0,0,0,93.5,410.29Z" style="fill:#263238"></path><path d="M220.11,171H130.32l-10,10V403.74l10,10h89.79l10-10V181Z"></path><polygon points="104.16 190.4 102.14 193.16 97 185.82 100.85 200.2 102.88 197.45 108.01 204.79 104.16 190.4" style="fill:#7AD579"></polygon><polygon points="181.06 142.2 178.02 143.76 176.69 134.91 173.73 149.5 176.77 147.94 178.1 156.8 181.06 142.2" style="fill:#7AD579"></polygon><polygon points="206.65 146.2 202.03 145.12 208.57 134.55 192.33 147.35 196.95 148.42 190.4 158.99 206.65 146.2" style="fill:#7AD579"></polygon><polygon points="120.32 403.74 130.32 413.74 170.17 413.74 160.17 403.74 120.32 403.74" style="fill:#263238;opacity:0.7000000000000001"></polygon><polygon points="120.32 181.01 130.32 171.01 170.17 171.01 160.17 181.01 120.32 181.01" style="fill:#263238;opacity:0.7000000000000001"></polygon><path d="M260,171H170.17c-3.91,3.91-6.09,6.1-10,10V403.74c3.91,3.9,6.09,6.09,10,10H260l10-10V181Z" style="fill:#263238"></path><polygon points="171.44 409.07 164.84 402.46 164.84 182.29 171.44 175.68 258.69 175.68 265.29 182.29 265.29 402.46 258.69 409.07 171.44 409.07" style="fill:#7AD579;opacity:0.6000000000000001"></polygon><rect x="169.51" y="187.53" width="95.78" height="19.29" style="fill:#263238"></rect><path d="M259.88,192.6a.85.85,0,0,1,.84-.84.84.84,0,0,1,0,1.68A.85.85,0,0,1,259.88,192.6Z" style="fill:#7AD579"></path><path d="M255.86,192.6a.84.84,0,1,1,.83.84A.84.84,0,0,1,255.86,192.6Z" style="fill:#fff"></path><path d="M251.83,192.6a.84.84,0,1,1,.84.84A.85.85,0,0,1,251.83,192.6Z" style="fill:#7AD579"></path><rect x="169.51" y="195.3" width="95.78" height="3.75" style="fill:#7AD579"></rect><rect x="164.84" y="187.53" width="4.67" height="19.29" transform="translate(334.35 394.36) rotate(180)"></rect><rect x="169.51" y="208.69" width="95.78" height="19.29" style="fill:#263238"></rect><circle cx="260.72" cy="213.75" r="0.84" style="fill:#7AD579"></circle><circle cx="256.69" cy="213.75" r="0.84" style="fill:#fff"></circle><circle cx="252.67" cy="213.75" r="0.84" style="fill:#fff"></circle><rect x="169.51" y="216.46" width="95.78" height="3.75" style="fill:#7AD579"></rect><rect x="164.84" y="208.69" width="4.67" height="19.29" transform="translate(334.35 436.67) rotate(180)"></rect><rect x="169.51" y="229.84" width="95.78" height="19.29" style="fill:#263238"></rect><circle cx="260.72" cy="234.91" r="0.84" style="fill:#7AD579"></circle><circle cx="256.69" cy="234.91" r="0.84" style="fill:#7AD579"></circle><circle cx="252.67" cy="234.91" r="0.84" style="fill:#7AD579"></circle><rect x="169.51" y="237.61" width="95.78" height="3.75" style="fill:#7AD579"></rect><rect x="164.84" y="229.84" width="4.67" height="19.29" transform="translate(334.35 478.98) rotate(180)"></rect><rect x="169.51" y="251" width="95.78" height="19.29" style="fill:#263238"></rect><circle cx="260.72" cy="256.06" r="0.84" style="fill:#fff"></circle><circle cx="256.69" cy="256.06" r="0.84" style="fill:#fff"></circle><circle cx="252.67" cy="256.06" r="0.84" style="fill:#7AD579"></circle><rect x="169.51" y="258.77" width="95.78" height="3.75" style="fill:#7AD579"></rect><rect x="164.84" y="251" width="4.67" height="19.29" transform="translate(334.35 521.29) rotate(180)"></rect><rect x="169.51" y="272.15" width="95.78" height="19.29" style="fill:#263238"></rect><path d="M259.88,277.22a.85.85,0,0,1,.84-.84.84.84,0,0,1,0,1.68A.85.85,0,0,1,259.88,277.22Z" style="fill:#fff"></path><path d="M255.86,277.22a.84.84,0,1,1,.83.84A.84.84,0,0,1,255.86,277.22Z" style="fill:#fff"></path><path d="M251.83,277.22a.84.84,0,1,1,.84.84A.85.85,0,0,1,251.83,277.22Z" style="fill:#fff"></path><rect x="169.51" y="279.92" width="95.78" height="3.75" style="fill:#7AD579"></rect><rect x="164.84" y="272.15" width="4.67" height="19.29" transform="translate(334.35 563.6) rotate(180)"></rect><rect x="169.51" y="293.31" width="95.78" height="19.29" style="fill:#263238"></rect><path d="M259.88,298.37a.84.84,0,0,1,.84-.83.84.84,0,0,1,0,1.67A.84.84,0,0,1,259.88,298.37Z" style="fill:#7AD579"></path><path d="M255.86,298.37a.84.84,0,1,1,.83.84A.83.83,0,0,1,255.86,298.37Z" style="fill:#fff"></path><path d="M251.83,298.37a.84.84,0,1,1,.84.84A.84.84,0,0,1,251.83,298.37Z" style="fill:#7AD579"></path><rect x="169.51" y="301.08" width="95.78" height="3.75" style="fill:#7AD579"></rect><rect x="164.84" y="293.31" width="4.67" height="19.29" transform="translate(334.35 605.9) rotate(180)"></rect><rect x="169.51" y="314.46" width="95.78" height="19.29" style="fill:#263238"></rect><circle cx="260.72" cy="319.53" r="0.84" style="fill:#fff"></circle><circle cx="256.69" cy="319.53" r="0.84" style="fill:#fff"></circle><circle cx="252.67" cy="319.53" r="0.84" style="fill:#7AD579"></circle><rect x="169.51" y="322.23" width="95.78" height="3.75" style="fill:#7AD579"></rect><rect x="164.84" y="314.46" width="4.67" height="19.29" transform="translate(334.35 648.21) rotate(180)"></rect><rect x="169.51" y="335.62" width="95.78" height="19.29" style="fill:#263238"></rect><circle cx="260.72" cy="340.68" r="0.84" style="fill:#fff"></circle><circle cx="256.69" cy="340.68" r="0.84" style="fill:#7AD579"></circle><circle cx="252.67" cy="340.68" r="0.84" style="fill:#fff"></circle><rect x="169.51" y="343.39" width="95.78" height="3.75" style="fill:#7AD579"></rect><rect x="164.84" y="335.62" width="4.67" height="19.29" transform="translate(334.35 690.52) rotate(180)"></rect><rect x="169.51" y="356.77" width="95.78" height="19.29" style="fill:#263238"></rect><circle cx="260.72" cy="361.84" r="0.84" style="fill:#7AD579"></circle><circle cx="256.69" cy="361.84" r="0.84" style="fill:#fff"></circle><circle cx="252.67" cy="361.84" r="0.84" style="fill:#7AD579"></circle><rect x="169.51" y="364.54" width="95.78" height="3.75" style="fill:#7AD579"></rect><rect x="164.84" y="356.77" width="4.67" height="19.29" transform="translate(334.35 732.83) rotate(180)"></rect><rect x="169.51" y="377.93" width="95.78" height="19.29" style="fill:#263238"></rect><circle cx="260.72" cy="382.99" r="0.84" style="fill:#7AD579"></circle><circle cx="256.69" cy="382.99" r="0.84" style="fill:#7AD579"></circle><circle cx="252.67" cy="382.99" r="0.84" style="fill:#fff"></circle><rect x="169.51" y="385.7" width="95.78" height="3.75" style="fill:#7AD579"></rect><rect x="164.84" y="377.93" width="4.67" height="19.29" transform="translate(334.35 775.14) rotate(180)"></rect><polygon points="171.44 409.07 164.84 402.46 164.84 182.29 171.44 175.68 223.12 175.68 229.72 182.29 229.72 402.46 223.12 409.07 171.44 409.07" style="fill:#7AD579;opacity:0.7000000000000001"></polygon><polygon points="223.12 409.07 229.72 402.46 229.72 182.29 223.12 175.68 225.71 175.68 231.38 181.35 231.38 403.4 225.71 409.07 223.12 409.07 223.12 409.07" style="fill:#7AD579"></polygon></g><g id="freepik--Character--inject-29"><path d="M358.18,179.71c2.18,4.26,4.1,8.49,5.88,12.91.88,2.2,1.72,4.45,2.48,6.75a56,56,0,0,1,2,7.32l.09.5.05.27.05.37c0,.24.07.5.09.74l0,.66a17,17,0,0,1-.11,2.33,35.26,35.26,0,0,1-.73,3.95,66.55,66.55,0,0,1-2.2,7,99.09,99.09,0,0,1-5.94,12.95,2.74,2.74,0,0,1-5.08-1.94l0-.06c1-4.42,2.11-8.9,3-13.26.46-2.18.83-4.36,1.09-6.42a26.05,26.05,0,0,0,.2-2.91,8.73,8.73,0,0,0-.07-1.13l0-.21,0-.11-.06-.21-.1-.35c-.54-1.83-1.31-3.87-2.13-5.9s-1.72-4.07-2.65-6.12c-1.84-4.08-3.78-8.23-5.68-12.26l0-.06a5.5,5.5,0,0,1,9.88-4.85Z" style="fill:#ffb573"></path><path d="M353.33,234.89l3.41-5,3.39-1c1.56,1.9,1.11,4.83.65,6.51h0l-1,6.26a2.68,2.68,0,0,1-2.3,2.24l-2.23.32a2.91,2.91,0,0,1-3.31-2.64l-.09-1.08A8.61,8.61,0,0,1,353.33,234.89Z" style="fill:#ffb573"></path><path d="M347.76,248.4A5,5,0,0,0,349,245l16.82-7.81.13.12a5.05,5.05,0,0,0,7.11-.61,5,5,0,0,0,.86-1.49l-3.65.5a1.72,1.72,0,0,1-1.94-1.55l-.11-1.26a1.71,1.71,0,0,1,1.65-1.86l3.69-.14a5.3,5.3,0,0,0-1.11-1.31,5,5,0,0,0-8.29,4l-16.83,7.81-.12-.12a5.05,5.05,0,0,0-7.11.61,5.33,5.33,0,0,0-.87,1.48l3.66-.49a1.72,1.72,0,0,1,1.94,1.55l.1,1.26a1.71,1.71,0,0,1-1.64,1.86l-3.69.13a4.79,4.79,0,0,0,1.11,1.32A5,5,0,0,0,347.76,248.4Z" style="fill:#263238"></path><path d="M348.61,243h0a1,1,0,0,1,.49-1.35l13.46-6.24a1,1,0,0,1,1.35.49h0a1,1,0,0,1-.49,1.34L350,243.46A1,1,0,0,1,348.61,243Z" style="fill:#fff;opacity:0.1"></path><path d="M346.33,169.28c6,1.32,9,4.4,14.8,14.1-3.3,4.89-11.37,9.12-11.37,9.12l-3.5-4c-4.38-8.13.07-19.2.07-19.2" style="fill:#263238"></path><path d="M344.34,180.35a17.5,17.5,0,0,0,1.92,8.13l3.49,4s1.27-.67,3-1.78C349.91,185,347.68,182.15,344.34,180.35Z" style="opacity:0.2"></path><path d="M318.55,178.58l-.11.63-.1.48-.21.89c-.16.57-.34,1.13-.53,1.67a26.34,26.34,0,0,1-1.37,3.17,24.27,24.27,0,0,1-4,5.65,23.22,23.22,0,0,1-5.5,4.27,25.28,25.28,0,0,1-6.31,2.49l-.35.09a4.85,4.85,0,0,1-5.88-3.52,4.51,4.51,0,0,1-.12-.72,20.74,20.74,0,0,1,.35-6,37.84,37.84,0,0,1,1.47-5.19,59.73,59.73,0,0,1,4.33-9.11,96.89,96.89,0,0,1,5.32-8.16c1.93-2.6,3.87-5.1,6.08-7.54a2.73,2.73,0,0,1,4.39,3.2l0,.07c-1.51,2.59-3.05,5.3-4.44,8s-2.74,5.42-3.92,8.16a60.6,60.6,0,0,0-2.94,8.18,18.26,18.26,0,0,0-.74,7.22l-6.36-4.15a18.43,18.43,0,0,0,3.69-1.94,15.92,15.92,0,0,0,2.94-2.67,17.19,17.19,0,0,0,2.19-3.34,14.54,14.54,0,0,0,.81-1.86c.12-.31.21-.63.31-.93l.13-.44.05-.19s0-.16,0,0a5.5,5.5,0,1,1,10.87,1.67Z" style="fill:#ffb573"></path><path d="M321.09,177.83c.62-3.76-2-8.27-2-8.27-6,.29-11.72,1.75-17.24,13.05,1.33,6.3,9.68,10.74,9.68,10.74l5.89-7.64S320.46,181.6,321.09,177.83Z" style="fill:#263238"></path><path d="M313.23,154.88l1.66-1.8a6.62,6.62,0,0,1,2.61-1.72l1.58-.57a3.08,3.08,0,0,1,4.05,2.32l.39,2.08a3.07,3.07,0,0,1-2.15,3.52l-2.43.71a6.9,6.9,0,0,1-8.54,2.65A10.53,10.53,0,0,1,313.23,154.88Z" style="fill:#ffb573"></path><path d="M356.83,398.09h-8.32s.4,6.09.37,9.7l7.34.88C355.59,404.67,356.83,398.09,356.83,398.09Z" style="fill:#ffb573"></path><path d="M320.17,226.93s14.93,63.27,19.59,89c4.89,27,8.22,81.17,8.21,83.15,2.68-.53,7-.65,9.15,0,0,0,10.28-63.7,1-87.35-3.53-44.84,1-70.21-8-84.79Z" style="fill:#7AD579"></path><path d="M339.18,246.55c-2.44-10-10.72-9-16.11-7.18,3.36,14.45,8.93,38.78,13,58.08C341.85,283.59,342.48,260,339.18,246.55Z" style="opacity:0.2"></path><path d="M303.84,397c-.75,9.67-8.6,20.07-8.6,20.07l12.11-3.1,5.1-7.58a35.77,35.77,0,0,1,1.13-8.55Z" style="fill:#ffb573"></path><path d="M308,226.93s2.11,67.32,1.56,87c-.77,27.28-6.49,85.16-6.49,85.16,4.34-.45,8.09-.58,10.49,0,0,0,18-46.86,15.89-84.9,4.5-35.25,19.66-67.63,10.29-87.24Z" style="fill:#7AD579"></path><path d="M340.07,151c-1.18,5.1-2.51,14.45.94,17.86a27.33,27.33,0,0,1-12.66,10.39c-6.68-4.28-3.2-10.39-3.2-10.39,5.74-1.36,5.74-5.58,4.89-9.55Z" style="fill:#ffb573"></path><path d="M341.07,163.57s-11.6-1.58-17.3,3.16a5.12,5.12,0,0,1-1.39,3.15,57,57,0,0,0,18.93.93C342.82,168.22,341.07,163.57,341.07,163.57Z" style="fill:#7AD579"></path><path d="M309.22,180.8c.62,16-2.9,40.33-1.2,46.13,17.16,1.74,30.57,1.45,42.11,0,2-6.33-2.76-25.13,2.71-47.5a8.23,8.23,0,0,0-7.15-10.25c-1.48-.15-3.06-.28-4.68-.36a111.82,111.82,0,0,0-15.86,0c-2,.18-4.12.45-6.08.74C313.49,170.37,309,175.2,309.22,180.8Z" style="fill:#263238"></path><path d="M321.24,142.38c-.07.7-.49,1.24-.94,1.21s-.76-.61-.69-1.31.48-1.23.93-1.2S321.3,141.69,321.24,142.38Z" style="fill:#263238"></path><path d="M320.74,141.13l-1.61-.59S319.85,141.9,320.74,141.13Z" style="fill:#263238"></path><path d="M320.35,137.82a.37.37,0,0,1-.25-.18.41.41,0,0,1,.15-.56,4,4,0,0,1,3.69-.44.4.4,0,0,1,.18.54.41.41,0,0,1-.54.21,3.18,3.18,0,0,0-2.92.38A.43.43,0,0,1,320.35,137.82Z" style="fill:#263238"></path><path d="M321.1,144.3a19.43,19.43,0,0,1-2.87,4.28,2.88,2.88,0,0,0,2.41.62Z" style="fill:#ed893e"></path><path d="M344.73,141c-1.32,8.5-1.7,12.13-6.38,16.25-7,6.2-17.07,3.06-18.29-5.59-1.09-7.78,1.25-20.38,9.84-23.27A11.23,11.23,0,0,1,344.73,141Z" style="fill:#ffb573"></path><path d="M323.52,131.38c-1.71,3.37,1.66,9.62,3.92,12.18-4,4.33-8,11.8-2.73,16.28,4.86,4.08,30.92,4,25.85-4.74,4.47-5.5-3-6.28.58-17,2.59-7.77-2.28-9.93-6.65-9.19C339.51,122.65,327.07,124.37,323.52,131.38Z" style="fill:#263238"></path><path d="M325.43,134.91s8.06,6.6,17.34,7.68c5,.58,7.5.51,7.73-.25s.66-3.32.66-3.32Z" style="fill:#e0e0e0"></path><path d="M318.59,133.18c2.44,1.93,20.88,7.2,33.31,6,.12-.74-.28-.83-.28-.83s2.86-9.59-3.71-13.19c-3.1-5.07-12.46-4.76-16.6-3.33l-.59.74s-8.11,1.89-8.23,8.61C319.29,131.59,315.9,131.06,318.59,133.18Z" style="fill:#7AD579"></path><path d="M330.72,122.61l.59-.74a17,17,0,0,1,12,4C340.2,124,335,122.25,330.72,122.61Z" style="opacity:0.2"></path><path d="M326.22,140.86c-1.77-.24-3.45,2.34-4.06,4.18-.67,2.06.06,4,1.9,3.3a6.66,6.66,0,0,0,3.42-3.14C328.45,143.35,328,141.09,326.22,140.86Z" style="fill:#ffb573"></path><path d="M351.41,402.2c5.11-.9,5,1.74,5.34,4.57a8.14,8.14,0,0,1-.84,5c-1.8,3.17-.26,7.85-6,7.85s-6.25-1.33-4.71-4.16a32.2,32.2,0,0,0,3-9.09C348.59,404.73,349.14,402.6,351.41,402.2Z" style="fill:#263238"></path><path d="M356.42,408.25c0,3.43.06,11.37.06,11.37l-.91,0s-.78-8.45-1.27-10.73Z" style="fill:#263238"></path><path d="M313.1,403.33a6.25,6.25,0,0,1,.47,2.88c-.21,3.62-1,13.24-1,13.24h-.83a84,84,0,0,0-.08-8.85c-.31-2.39-1.49,1.83-3.15,4.21s-4.82,4.56-10.22,4.73c-6.32.2-8.87-.07-7-1.65s6.13-2.62,6.13-2.62a17.08,17.08,0,0,0,7.94-7.15,15.15,15.15,0,0,1,6.61-5.88A1.62,1.62,0,0,1,313.1,403.33Z" style="fill:#263238"></path></g></svg>