<svg xmlns="http://www.w3.org/2000/svg" viewBox="0 0 500 500"><g id="freepik--background-simple--inject-30"><path d="M52.75,205.69a111.44,111.44,0,0,1,1.14-13.16c5.49-37.54,30.65-76.88,67.69-90.66,22.06-8.21,46.64-1.09,70.19-2.18,29.63-1.38,57.73-16.5,83.76-29.12,35.16-17,69.85-30.19,108.46-17.75,32.1,10.34,59.65,35.88,65.48,69.31,5.55,31.8,1.54,66.09-7.91,96.83-8.13,26.47-23.59,45.27-53,48.47-19.24,2.08-38.47-2.47-57.43-6.19-21.45-4.2-48.51-9.08-69,1-19.56,9.61-31.74,30.9-49.27,43.39-29,20.63-70.34,20.67-101.43,3.43C74.46,288.57,51.59,247,52.75,205.69Z" style="fill:#7AD579"></path><path d="M52.75,205.69a111.44,111.44,0,0,1,1.14-13.16c5.49-37.54,30.65-76.88,67.69-90.66,22.06-8.21,46.64-1.09,70.19-2.18,29.63-1.38,57.73-16.5,83.76-29.12,35.16-17,69.85-30.19,108.46-17.75,32.1,10.34,59.65,35.88,65.48,69.31,5.55,31.8,1.54,66.09-7.91,96.83-8.13,26.47-23.59,45.27-53,48.47-19.24,2.08-38.47-2.47-57.43-6.19-21.45-4.2-48.51-9.08-69,1-19.56,9.61-31.74,30.9-49.27,43.39-29,20.63-70.34,20.67-101.43,3.43C74.46,288.57,51.59,247,52.75,205.69Z" style="fill:#fff;opacity:0.9"></path></g><g id="freepik--Shadow--inject-30"><ellipse id="freepik--path--inject-30" cx="250" cy="416.24" rx="193.89" ry="11.32" style="fill:#f5f5f5"></ellipse></g><g id="freepik--Screen--inject-30"><rect x="392.13" y="296.11" width="13.46" height="1" transform="translate(72.9 671.87) rotate(-85.66)" style="fill:#263238"></rect><polygon points="396.13 339.12 383.51 339.12 383.51 338.12 395.2 338.12 397.42 309 398.41 309.08 396.13 339.12" style="fill:#263238"></polygon><polygon points="392.88 335.62 175.17 335.62 191.72 117.9 409.44 117.9 392.88 335.62" style="fill:#263238"></polygon><polygon points="275.18 335.62 250.21 335.62 355.9 117.9 380.86 117.9 275.18 335.62" style="fill:#fff;opacity:0.1"></polygon><polygon points="245.17 335.62 220.21 335.62 325.9 117.9 350.86 117.9 245.17 335.62" style="fill:#fff;opacity:0.1"></polygon><polygon points="395.91 295.82 178.19 295.82 178.52 291.44 396.24 291.44 395.91 295.82" style="fill:#fff"></polygon><polygon points="227.28 295.82 178.19 295.82 178.52 291.44 227.61 291.44 227.28 295.82" style="fill:#7AD579"></polygon><path d="M227.11,298.05h0a1.51,1.51,0,0,1-1.52-1.65l.42-5.53a1.82,1.82,0,0,1,1.77-1.65h0a1.51,1.51,0,0,1,1.52,1.65l-.42,5.53A1.82,1.82,0,0,1,227.11,298.05Z" style="fill:#7AD579"></path><path d="M296.78,167.78c-20.49,0-38.37,16.62-39.93,37.11S270.64,242,291.14,242s38.38-16.61,39.93-37.11S317.28,167.78,296.78,167.78Zm-5.29,69.64c-18,0-31.42-14.56-30.05-32.53s17-32.52,35-32.52,31.42,14.56,30.06,32.52S309.46,237.42,291.49,237.42Z" style="fill:#fff"></path><path d="M309,200.69l-19.86-12a4.71,4.71,0,0,0-7.12,3.67l-1.82,24a4.7,4.7,0,0,0,7,4.47l21.69-12A4.7,4.7,0,0,0,309,200.69Z" style="fill:#fff"></path><path d="M206.27,312.94,196.42,307a2.33,2.33,0,0,0-3.53,1.82L192,320.7a2.34,2.34,0,0,0,3.46,2.22L206.19,317A2.33,2.33,0,0,0,206.27,312.94Z" style="fill:#fff"></path><path d="M276.93,312.94,267.08,307a2.33,2.33,0,0,0-3.53,1.82l-.9,11.89a2.33,2.33,0,0,0,3.45,2.22L276.85,317A2.32,2.32,0,0,0,276.93,312.94Z" style="fill:#fff"></path><path d="M285.49,312.94,275.65,307a2.33,2.33,0,0,0-3.53,1.82l-.91,11.89a2.34,2.34,0,0,0,3.46,2.22L285.42,317A2.32,2.32,0,0,0,285.49,312.94Z" style="fill:#fff"></path><path d="M229.17,323.35h0a2,2,0,0,1-2-2.14l.93-12.33a2.37,2.37,0,0,1,2.31-2.14h0a2,2,0,0,1,2,2.14l-.94,12.33A2.36,2.36,0,0,1,229.17,323.35Z" style="fill:#fff"></path><path d="M237,323.35h0a2,2,0,0,1-2-2.14l.94-12.33a2.36,2.36,0,0,1,2.3-2.14h0a2,2,0,0,1,2,2.14l-.94,12.33A2.36,2.36,0,0,1,237,323.35Z" style="fill:#fff"></path><path d="M284.11,323.35h0a2,2,0,0,1-2-2.14l.93-12.33a2.37,2.37,0,0,1,2.31-2.14h0a2,2,0,0,1,2,2.14l-.93,12.33A2.37,2.37,0,0,1,284.11,323.35Z" style="fill:#fff"></path><path d="M376.71,322.49H354.05a3,3,0,0,1-3-3.25l.65-8.44a3.57,3.57,0,0,1,3.5-3.25h22.66a3,3,0,0,1,3,3.25l-.64,8.44A3.57,3.57,0,0,1,376.71,322.49ZM355.07,309a2,2,0,0,0-1.9,1.76l-.64,8.44a1.62,1.62,0,0,0,1.63,1.76h22.67a1.93,1.93,0,0,0,1.89-1.76l.65-8.44a1.62,1.62,0,0,0-1.64-1.76Z" style="fill:#fff"></path></g></svg>