<svg xmlns="http://www.w3.org/2000/svg" viewBox="0 0 500 500"><g id="freepik--background-simple--inject-39"><path d="M372.36,162.84c-53-52-170.73-90.54-230.18-64.37-56,24.64-79.53,111.15-26,164.89,61.62,61.88,154,83.44,224.31,67.7C404.69,316.7,436.79,226,372.36,162.84Z" style="fill:#7AD579"></path><path d="M372.36,162.84c-53-52-170.73-90.54-230.18-64.37-56,24.64-79.53,111.15-26,164.89,61.62,61.88,154,83.44,224.31,67.7C404.69,316.7,436.79,226,372.36,162.84Z" style="fill:#fff;opacity:0.9"></path></g><g id="freepik--Shadow--inject-39"><ellipse id="freepik--path--inject-39" cx="250" cy="416.24" rx="193.89" ry="11.32" style="fill:#f5f5f5"></ellipse></g><g id="freepik--Goal--inject-39"><path d="M326,213.61H102a2.9,2.9,0,0,0-1.34.34,1.86,1.86,0,0,0-.56.25l-16.27,9.87a2.2,2.2,0,0,0-1,1.66,2.71,2.71,0,0,0-.23.9L70.37,392.52h5.49l0-.44H99.05v.44h5.82V391h190.3l-.11,1.5h5.49l0-.44h22.53v.44h5.82v-176A2.91,2.91,0,0,0,326,213.61Zm-18.61,160.8.75-15.49,7.95-.9-.46,15.91Zm8.23,0-.49,17.23h-8.58l.82-16.74ZM91.46,390.56,91.77,380H96l-.82,10.52Zm24.05-171.78-7.33,7.16h-3.31v-7.08l.08-.08Zm11.21,0-7.33,7.16H108.84l7.33-7.16Zm11.22,0-7.33,7.16H120.05l7.33-7.16Zm11.21,0-7.32,7.16H131.27l7.33-7.16Zm11.22,0L153,225.94H142.48l7.33-7.16Zm11.22,0-7.33,7.16H153.7l7.33-7.16Zm11.21,0-7.33,7.16H164.91l7.33-7.16Zm11.22,0-7.33,7.16H176.13l7.33-7.16Zm11.21,0-7.33,7.16H187.35l7.32-7.16Zm11.22,0-7.33,7.16H198.56l7.33-7.16Zm11.21,0-7.33,7.16H209.78l7.33-7.16Zm11.22,0-7.33,7.16H221l7.33-7.16Zm11.21,0-7.32,7.16H232.21l7.33-7.16Zm11.22,0L254,225.94H243.42l7.33-7.16Zm11.22,0-7.33,7.16H254.64l7.33-7.16Zm11.21,0-7.33,7.16H265.85l7.33-7.16Zm11.22,0-7.33,7.16H277.07l7.33-7.16Zm11.21,0-7.33,7.16H288.29l7.33-7.16Zm11,0-8.72,5.29a2.2,2.2,0,0,0-1,1.66,1.8,1.8,0,0,0-.08.21H299.5l7.33-7.16Zm-3.05,7-.21,4.24-1.55.85.31-4.21ZM86.48,247.52l2.5-1.23-.08,1.6H86.46Zm3-1.46,5.78-2.84-.13,4.67H89.36ZM91,237.38H95.4l-.15,5.32-5.77,2.83.36-7.54Zm-1.15.08v-.08H90Zm2-.54,3.55-1.85,0,1.85Zm2.71,43.65,4.43-1.63v1.87H94.61Zm-.47.24H94l.19-.07Zm4.9,21.95H94.86l4.19-1.24Zm0-1.72L94,302.54l.29-10.29h4.77Zm0,2.18v10.3l-.85.22H93.67l.3-10.52Zm-2.66,11-2.76.7,0-.7Zm1.87,0h.79v10.51h-5.7l.27-9.33Zm.79,11v1.72l-5.79,1.23.08-2.95Zm0,2.19v8.33H93l.2-7.1Zm5.82-35.11h9.23l-.82,10.51h-8.41Zm9.69,0h10.76l-.82,10.51H113.74Zm11.22,0h10.75l-.82,10.51H125Zm11.22,0h10.75l-.82,10.51H136.18Zm11.21,0H159l-.82,10.51H147.39Zm11.22,0h10.75l-.82,10.51H158.61Zm11.21,0H181.4l-.82,10.51H169.82Zm11.22,0h10.75l-.82,10.51H181Zm11.21,0h10.76L203,302.76H192.25Zm9.9,11-.82,10.52H191.4l.82-10.52Zm.46,0h10.76l-.82,10.52H202.61Zm0-.46.82-10.51H215l-.82,10.51Zm12-10.51h10.76l-.82,10.51H214.68Zm11.22,0h10.75l-.82,10.51H225.9Zm11.22,0h10.75l-.82,10.51H237.12Zm11.21,0h10.76l-.82,10.51H248.33Zm11.22,0h10.75l-.82,10.51H259.55Zm11.21,0h10.76l-.82,10.51H270.76Zm11.22,0h10.75l-.82,10.51H282Zm11.21,0h8.4l-.77,10.51h-8.45Zm8.43-.46h-8.39l.82-10.52h8.34Zm-8.85,0H282.83l.82-10.52h10.76Zm-11.22,0H271.62l.82-10.52h10.75Zm-11.21,0H260.4l.82-10.52H272Zm-11.22,0H249.19l.82-10.52h10.75Zm-11.21,0H238l.82-10.52h10.76Zm-11.22,0H226.76l.82-10.52h10.75Zm-11.22,0H215.54l.82-10.52h10.75Zm-11.21,0H204.32l.82-10.52H215.9Zm-11.22,0H193.11l.82-10.52h10.75Zm-11.21,0H181.89l.82-10.52h10.76Zm-11.22,0H170.68l.82-10.52h10.75Zm-11.21,0H159.46l.82-10.52H171Zm-11.22,0H148.25l.82-10.52h10.75Zm-11.21,0H137l.82-10.52h10.76Zm-11.22,0H125.82l.82-10.52h10.75Zm-11.22,0H114.6l.82-10.52h10.75Zm-11.21,0h-9.27V281.27H115Zm-15.09-22H96.16l2.89-1.16Zm-4.12,0h0l.26-9.14,3.17-1.38h.69v8.86Zm.27-9.65,0-.87h2Zm3.85-1.67-.79.34h-3l.21-7.26,3.6-1.67Zm-4.27.34h0l.07-.91Zm0,.46,0,1.07-.13.06.09-1.13Zm0,1.58-.25,8.94h-.59l.69-8.87Zm.3,9.4h4v8.15l-4.42,1.63.28-9.74Zm4,11v8.11L94.32,291l.28-9.69Zm0,8.59v1.93H94.3v-.35Zm-5.21,1.93h-.56l.56-.19Zm0,.46-.29,10.43-.3.08H91.31l.82-10.51Zm-2.14,11-.41.12v-.12Zm1.62,0h.21l-.3,10.52H90.46l.77-9.91Zm-.11,11,0,.82-2.87.73.12-1.55Zm0,1.29-.27,9.22H89.6l.66-8.48Zm-.28,9.68-.09,3-3.52.75.29-3.79Zm-.1,3.51-.2,7H88.74l.49-6.26Zm-.22,7.46-.17,6.22-4.22.69.54-6.91Zm.46,0h6v5.12l-6.2,1Zm11.85-32.92h8.38l-.82,10.52h-7.56Zm8.84,0h10.75l-.82,10.52H112.89Zm11.21,0h10.76l-.82,10.52H124.1Zm11.22,0h10.75l-.82,10.52H135.32Zm11.21,0h10.76l-.82,10.52H146.53Zm11.22,0h10.76l-.82,10.52H157.75Zm11.22,0h10.75l-.82,10.52H169Zm11.21,0h10.76l-.82,10.52H180.18Zm9.9,11-.82,10.51H179.33l.82-10.51Zm.46,0h10.76l-.82,10.51H190.54Zm11.22,0h10.75l-.82,10.51H201.76Zm11.21,0h10.76l-.82,10.51H213Zm0-.46.82-10.52H225.4l-.82,10.52Zm12-10.52h10.76l-.82,10.52H225Zm11.22,0h10.75L247,313.74H236.26Zm11.21,0h10.76l-.82,10.52H247.48Zm11.22,0h10.76l-.82,10.52H258.69Zm11.22,0h10.75l-.82,10.52H269.91Zm11.21,0H292.7l-.82,10.52H281.12Zm11.22,0h8.44l-.77,10.52h-8.49Zm10.09-22.41H294.9l.83-10.51H304Zm-8.81,0H283.69l.82-10.51h10.75Zm-11.21,0H272.47l.82-10.51h10.76Zm-11.22,0H261.26l.82-10.51h10.75Zm-11.21,0H250l.82-10.51h10.76Zm-11.22,0H238.83l.82-10.51H250.4Zm-11.21,0H227.61l.82-10.51h10.76Zm-11.22,0H216.4l.82-10.51H228Zm-11.21,0H205.18L206,270.3h10.76Zm-11.22,0H194l.82-10.51h10.76Zm-11.22,0H182.75l.82-10.51h10.75Zm-11.21,0H171.53l.82-10.51h10.76Zm-11.22,0H160.32l.82-10.51h10.75Zm-11.21,0H149.1l.82-10.51h10.76Zm-11.22,0H137.89l.82-10.51h10.75Zm-11.21,0H126.67l.82-10.51h10.76Zm-11.22,0H115.46l.82-10.51H127Zm-11.21,0H104.87v-8l.19-2.48h10.76Zm-16-31.39-3.59,1.66.08-2.46,0-.27h3.49Zm-3.46-1.53.4-5,3.06-1.5v6.55Zm.27-10.51H96l-.15,1.9Zm-.78,11v.25l-.22,2.76-5.79,2.69.27-5.7Zm-.26,3.54-.54,7H88.83l.21-4.29Zm-.58,7.43-.1,1.34-5.51,2.39.18-3.73Zm-.14,1.85-.68,8.67H88.3l.31-6.28Zm-.72,9.13v.17l-5.2,2.09.11-2.26Zm1.07.23-.28,9.72-1.13.42.77-9.88Zm-.31,10.74-.28,9.84-1.68.56.81-10.4Zm-3.29,21.49H86.71l.43-8.92,4.53-1.51Zm0,.46,0,.26-4.19,1.24.07-1.5Zm-.06.75L90,313.74H86.17l.42-8.53ZM90,314.2l-.13,1.67-3.81,1,.13-2.64Zm-.17,2.15-.65,8.36h-3.5l.36-7.39Zm-.69,8.82-.3,3.89-3.4.71.22-4.6Zm-.34,4.36-.48,6.16H85.11l.26-5.44Zm-.51,6.61-.55,7-3,.48.36-7.47Zm-.58,7.46-.24,3.06H84.58l.12-2.58Zm.46-.08,4.24-.7-.11,3.84H87.89Zm4.71-.77,6.19-1-.39,4.93H92.72Zm12-28.55h7.52l-.82,10.51h-6.7Zm8,0h10.76l-.82,10.51H112Zm11.22,0h10.75L134,324.71H123.25Zm11.21,0H146l-.82,10.51H134.46Zm11.22,0h10.75l-.82,10.51H145.68Zm11.21,0h10.76l-.82,10.51H156.89Zm11.22,0h10.75l-.82,10.51H168.11Zm9.9,11L178,335.69H167.25l.82-10.52Zm.46,0H190l-.82,10.52H178.47Zm11.22,0h10.75l-.82,10.52H189.68Zm11.21,0h10.76l-.82,10.52H200.9Zm11.22,0h10.75l-.82,10.52H212.12Zm11.21,0h10.76l-.82,10.52H223.33Zm0-.46L225,314.2h10.75l-.82,10.51Zm12-10.51H247l-.82,10.51H235.4Zm11.22,0h10.75l-.82,10.51H246.62Zm11.21,0h10.76l-.82,10.51H257.83Zm11.22,0h10.76l-.82,10.51H269.05Zm11.22,0h10.75L291,324.71H280.27Zm11.21,0h8.5L300,324.71h-8.55ZM307.69,295l3.15-1.05-.52,10.87-3.42,1Zm0-.49.74-10.17,2.89-1.06-.49,10.18Zm.78-10.67.7-9.56,2.64-1.06-.47,9.56Zm.74-10.07.66-9,2.4-1.05-.44,9Zm.7-9.52.62-8.49,2.17-1-.41,8.46Zm.66-9,.58-8,2-1-.38,8Zm-6.56,14.57h-8.29l.82-10.52h8.24Zm-8.75,0H284.55l.82-10.52h10.75Zm-11.22,0H273.33l.82-10.52h10.76Zm-11.21,0H262.11l.82-10.52h10.76Zm-11.22,0H250.9l.82-10.52h10.75Zm-11.21,0H239.68l.82-10.52h10.76Zm-11.22,0H228.47l.82-10.52H240Zm-11.21,0H217.25l.82-10.52h10.76Zm-11.22,0H206l.82-10.52h10.75Zm-11.21,0H194.82l.82-10.52H206.4Zm-11.22,0H183.6l.82-10.52h10.76Zm-11.22,0H172.39l.82-10.52H184Zm-11.21,0H161.17l.82-10.52h10.76Zm-11.22,0H150l.82-10.52h10.75Zm-11.21,0H138.74l.82-10.52h10.76Zm-11.22,0H127.53l.82-10.52H139.1Zm-11.21,0H116.31l.82-10.52h10.76Zm-11.22,0H105.1l.82-10.52h10.75Zm-11-3v-7.55h.59ZM96,242.31l.38-4.93h2.64v3.45Zm.42-5.39.19-2.46,2.41-1.24v3.7Zm-.46,0h-.12l.06-2.09.23-.12Zm0-2.61.2-7.21.63-.34-.58,7.41Zm-.47.24-4.57,2.37h-1l.32-6.6,5.47-3Zm-6,2.37H87.26l.38-5.2,2.1-1.14Zm0,.46v.32l-2.28,1.18.11-1.5Zm0,.85L89,245.77,86.52,247l.56-7.57Zm-.49,10.12-.29,5.92-2.69,1.25.52-7.17Zm-.31,6.44-.2,4.07H85.65l.21-2.82Zm-.22,4.53-.19,3.93-2.92,1.27.38-5.2Zm-.22,4.44-.29,6.08h-3l.35-4.8Zm-.31,6.54-.12,2.45L84.54,274l.28-3.72Zm-.15,3-.36,7.55H84l.46-6.28Zm.47-.19L93.33,271l-.77,9.83H87.77Zm3.25,8.2-3.71,1.37.07-1.37Zm1.13.08-.81,10.44H87.24l.42-8.65Zm-2.07,10.9-3.29,1.09.06-1.09Zm-3.76,1.25L83,294.72l.19-2.47h3.54Zm0,.49-.42,8.77H82.44l.55-7.54Zm-.45,9.23-.08,1.64L82.2,306l.2-2.8Zm-.1,2.12-.41,8.4H81.63l.53-7.23Zm-.43,8.86L85.56,317,81.32,318l.28-3.84Zm-.16,3.24-.35,7.27H80.83l.45-6.19Zm-.37,7.73-.23,4.7-4.55,1,.41-5.66Zm-.25,5.18-.26,5.34H80l.32-4.38Zm-.28,5.79-.37,7.55-4.88.8.61-8.35Zm-.39,8-.12,2.5h-4.9l.12-1.69Zm-.14,3-.51,10.51H78.41l.77-10.51Zm.46,0h2.83l-.82,10.51H84.05Zm2,11v.08l-2.52.29,0-.37Zm.46,0h.21l-.21,0Zm0-.46.82-10.51h4.4L92,357.55l-.7.08Zm5.38-.13.3-10.38h5.9l-.76,9.76Zm5.4-.15,0,.28H95.31Zm1.24-9.93v9.33l-.74.08Zm5.82-22.25h6.67l-.82,10.52h-5.85Zm7.13,0h10.75l-.82,10.52H111.18Zm11.21,0H134l-.82,10.52H122.39Zm11.22,0h10.75l-.82,10.52H133.61Zm11.21,0H156.4l-.82,10.52H144.82Zm11.22,0h10.75l-.82,10.52H156Zm9.9,11-.82,10.52H155.18l.82-10.52Zm.46,0H178l-.82,10.52H166.4Zm11.21,0h10.76l-.82,10.52H177.61Zm11.22,0H200.4l-.82,10.52H188.83Zm11.21,0h10.76l-.82,10.52H200Zm11.22,0h10.76L222,346.66H211.26Zm11.22,0h10.75l-.82,10.52H222.48Zm11.21,0h10.76l-.82,10.52H233.69Zm0-.45.82-10.52h10.75l-.82,10.52Zm12-10.52h10.76l-.82,10.52H245.76Zm11.22,0h10.75l-.82,10.52H257Zm11.21,0h10.76L279,335.69H268.19Zm11.22,0H291l-.83,10.52H279.41Zm11.22,0H300l-.77,10.52h-8.6Zm15.41-18.81,3.43-1L309.73,317l-3.71.94Zm3.9-1.15,6.92-2L317.34,315l-7.14,1.82Zm0-.49.53-10.88L318,291.6l-.32,11.08Zm.55-11.38.5-10.2,6.5-2.4-.3,10.37Zm.52-10.7.47-9.57,6.3-2.54-.28,9.72Zm.49-10.08.44-9,6.12-2.66-.27,9.13Zm.46-9.51.41-8.48,6-2.76-.25,8.58Zm.44-9,.39-8,5.77-2.84-.23,8.08Zm.41-8.52L314,238l5.62-2.92-.22,7.63Zm-.47.24-1.95.95.56-7.58,1.75-.91Zm-1.35-7.17.52-7.17,1.56-.85-.34,7.12Zm-7,20.26h-8.24l.82-10.51h8.19Zm-8.7,0H285.4l.82-10.51H297Zm-11.22,0H274.19l.82-10.51h10.75Zm-11.22,0H263l.82-10.51h10.75Zm-11.21,0H251.75l.82-10.51h10.76Zm-11.22,0H240.54l.82-10.51h10.75Zm-11.21,0H229.32l.82-10.51H240.9Zm-11.22,0H218.11l.82-10.51h10.75Zm-11.21,0H206.89l.82-10.51h10.76Zm-11.22,0H195.68l.82-10.51h10.75Zm-11.21,0H184.46l.82-10.51H196Zm-11.22,0H173.25l.82-10.51h10.75Zm-11.22,0H162l.82-10.51H173.6Zm-11.21,0H150.81l.82-10.51h10.76Zm-11.22,0H139.6l.82-10.51h10.75Zm-11.21,0H128.38l.82-10.51H140Zm-11.22,0H117.17l.82-10.51h10.75Zm-11.21,0H106l.82-10.51h10.76Zm-11.22,0h-.62V248.35h1.44Zm-8.81-24.93.58-7.44.17-.09h1.62v6.3Zm1.6-8,.77-.41v.41Zm-2.11.63v-.17h.3Zm-.47.25-5.46,3,.17-3.39h5.3ZM89.77,230l-2.09,1.14.33-4.5.46-.28h1.47Zm-2.48,51.23-.08,1.55-3.4,1.26.2-2.81Zm-.1,2.05-.41,8.47H83.24l.53-7.21Zm-8.81,74.77h5.19l0,.42-5.24.6Zm5.14.88-.46,9.64H77.61l.66-9Zm.47-.05,2.5-.28-.77,10h-2.2Zm3-.34,4.31-.49h.67l-.31,10.52H86.18Zm5.44-.49h5.35l-.82,10.52H92.09Zm5.81,0h.84v10.52H97.39Zm0-.46,0-.33.77-.09v.42Zm6.62-21.49h5.81l-.82,10.52h-5Zm6.27,0H121.9l-.82,10.52H110.32Zm11.22,0h10.75l-.82,10.52H121.54Zm11.21,0h10.76l-.82,10.52H132.75Zm11.22,0h10.75l-.82,10.52H144Zm9.9,11-.82,10.51H143.11l.82-10.51Zm.46,0H165.9l-.82,10.51H154.33Zm11.21,0h10.76l-.82,10.51H165.54Zm11.22,0h10.75l-.82,10.51H176.76Zm11.21,0h10.76l-.82,10.51H188Zm11.22,0h10.75l-.82,10.51H199.19Zm11.21,0H222l-.82,10.51H210.4Zm11.22,0h10.75l-.82,10.51H221.62Zm11.22,0h10.75l-.82,10.51H232.84Zm11.21,0h10.76l-.82,10.51H244.05Zm0-.46.82-10.52h10.75l-.82,10.52Zm12-10.52H267.7l-.82,10.52H256.12Zm11.22,0h10.75l-.82,10.52H267.34Zm11.21,0h10.76l-.82,10.52H278.55Zm11.22,0h8.6l-.77,10.52h-8.65ZM306,318.39l3.73-.95-.61,12.43-4,.85Zm4.19-1.07,7.16-1.83L317,328.21l-7.39,1.56Zm7.62-1.94,5.32-1.36v12.9l-5.68,1.2Zm0-.48.34-11.88,5-1.46v12Zm.35-12.36.32-11.1,4.63-1.54v11.18Zm.33-11.58.3-10.39,4.32-1.59v10.44Zm.32-10.88.27-9.74,4-1.62v9.77Zm.29-10.24.26-9.14,3.75-1.63v9.16Zm.28-9.65.24-8.59,3.49-1.62v8.59Zm.26-9.11.23-8.09,3.24-1.6v8.08Zm.24-8.61.22-7.64,3-1.56v7.61Zm.24-8.16.21-7.21,2.78-1.52v7.18Zm-.47.24L314,237.46l.35-7.14,5.47-3Zm-5.24-4.76.21-4.27,5.38-3.27-.13,4.57Zm-8.75,18.1h-8.19l.82-10.51h8.14Zm-8.65,0H286.26l.82-10.51h10.75Zm-11.21,0H275l.82-10.51h10.76Zm-11.22,0H263.83l.82-10.51H275.4Zm-11.21,0H252.61l.82-10.51h10.76Zm-11.22,0H241.39l.82-10.51H253Zm-11.22,0H230.18l.82-10.51h10.75Zm-11.21,0H219l.82-10.51h10.76Zm-11.22,0H207.75l.82-10.51h10.75Zm-11.21,0H196.53l.82-10.51h10.76Zm-11.22,0H185.32l.82-10.51h10.75Zm-11.21,0H174.1l.82-10.51h10.76Zm-11.22,0H162.89l.82-10.51h10.75Zm-11.22,0H151.67l.82-10.51h10.75Zm-11.21,0H140.45l.82-10.51H152Zm-11.22,0H129.24l.82-10.51h10.75Zm-11.21,0H118l.82-10.51H129.6Zm-11.22,0H106.81l.82-10.51h10.75Zm-11.21,0h-1.48V237.38h2.3ZM99.05,225l-1,.57,1-1Zm-2.09.94h-.77l.12-4.3L99.05,220v3.93Zm-1.23,0h-5.3l0-.75,5.38-3.26Zm-5.76,0h-.74l.76-.46ZM77.58,369.07H83l-.26,5.37-5.61.33Zm5.91,0h2.19l-.41,5.22-2,.12Zm2.65,0h5.48l-.14,4.86-5.74.34Zm5.94,0H96.9l-.36,4.56-4.6.27Zm5.28,0h1.69v4.41l-2,.12Zm7.51-21.95h4.95L109,357.63h-4.13Zm5.41,0H121l-.82,10.51H109.46Zm11.22,0h10.75l-.82,10.51H120.68Zm11.22,0h10.75l-.82,10.51H131.9Zm9.89,11-.81,10.52H131l.82-10.52Zm.47,0h10.75L153,368.61H142.26Zm11.21,0h10.76l-.82,10.52H153.47Zm11.22,0h10.75l-.82,10.52H164.69Zm11.21,0h10.76l-.82,10.52H175.9Zm11.22,0h10.75l-.82,10.52H187.12Zm11.21,0h10.76l-.82,10.52H198.33Zm11.22,0h10.75l-.82,10.52H209.55Zm11.21,0h10.76l-.82,10.52H220.76Zm11.22,0h10.76l-.82,10.52H232Zm11.22,0h10.75L254,368.61H243.2Zm11.21,0H266l-.82,10.52H254.41Zm0-.46.82-10.51h10.75L266,357.63Zm12-10.51h10.76l-.82,10.51H266.48Zm11.22,0h10.75l-.82,10.51H277.7Zm11.21,0h8.66l-.77,10.51h-8.71ZM305,331.2l4-.85-.65,13.34-4.36.72Zm4.51-.95,7.4-1.57-.39,13.68-7.66,1.25Zm7.86-1.66,5.7-1.21v13.9l-6.09,1Zm2.93-102,.13-4.61,2.64-1.6v4.7Zm-13.12.06-.76,10.29h-8.13l.82-10.52h8.11A1.85,1.85,0,0,0,307.22,226.63Zm-9.35,10.29H287.11l.82-10.52h10.76Zm-11.22,0H275.9l.82-10.52h10.75Zm-11.21,0H264.68l.82-10.52h10.76Zm-11.22,0H253.47l.82-10.52H265Zm-11.21,0H242.25l.82-10.52h10.76Zm-11.22,0H231l.82-10.52h10.76Zm-11.22,0H219.82l.82-10.52h10.75Zm-11.21,0H208.6l.82-10.52h10.76Zm-11.22,0H197.39l.82-10.52H209Zm-11.21,0H186.17L187,226.4h10.76Zm-11.22,0H175l.82-10.52h10.75Zm-11.21,0H163.74l.82-10.52h10.76Zm-11.22,0H152.53l.82-10.52H164.1Zm-11.21,0H141.31l.82-10.52h10.76Zm-11.22,0H130.09l.82-10.52h10.76Zm-11.22,0H118.88l.82-10.52h10.75Zm-11.21,0H107.66l.82-10.52h10.76Zm-11.22,0h-2.33V226.4H108ZM77.12,375.24l5.63-.34-.23,4.68H76.8Zm6.09-.36,2-.12-.38,4.82H83Zm2.49-.15,5.77-.34-.15,5.19h-6Zm6.23-.37,4.57-.27-.42,5.49h-4.3Zm5-.3,2.08-.12v5.64H96.54Zm7.9-16H109l-.82,10.52h-3.28Zm4.56,0h10.75l-.82,10.52H108.61Zm11.21,0H131.4l-.82,10.52H119.82Zm9.9,11-.82,10.51H119l.82-10.51Zm.46,0h10.76l-.82,10.51H130.18Zm11.22,0H153l-.82,10.51H141.4Zm11.21,0h10.76l-.82,10.51H152.61Zm11.22,0h10.76l-.82,10.51H163.83Zm11.22,0h10.75l-.82,10.51H175.05Zm11.21,0h10.76L197,379.58H186.26Zm11.22,0h10.75l-.82,10.51H197.48Zm11.21,0h10.76l-.82,10.51H208.69Zm11.22,0h10.75l-.82,10.51H219.91Zm11.21,0H242.7l-.82,10.51H231.12Zm11.22,0h10.75l-.82,10.51H242.34Zm11.22,0h10.75l-.82,10.51H253.55Zm11.21,0h10.76l-.82,10.51H264.77Zm0-.46.82-10.52H277.2l-.82,10.52Zm12-10.52h10.76l-.82,10.52H276.84Zm11.22,0h8.7l-.77,10.52h-8.75ZM304,344.88l4.37-.72-.69,14.35-4.72.54Zm4.84-.8,7.67-1.26-.43,14.73-7.94.91Zm8.13-1.33,6.1-1v15l-6.53.74ZM76.77,380H82.5L82,390.56H76ZM83,380h1.86L84,390.56H82.45Zm8,11,0,.6H82.4l0-.6Zm-6.52-.46L85.29,380h6L91,390.56ZM96.5,380h2.55v10.52H95.68Zm8.37-11h3.24l-.82,10.51h-2.42Zm3.7,0h10.76l-.82,10.51H107.75Zm9.9,11-.82,10.52H106.9l.82-10.52Zm.46,0h10.76l-.82,10.52H118.11Zm11.22,0H140.9l-.82,10.52H129.33Zm11.21,0h10.76l-.82,10.52H140.54Zm11.22,0h10.75l-.82,10.52H151.76Zm11.21,0h10.76l-.82,10.52H163ZM175,380h10.75l-.82,10.52H174.19Zm11.22,0H197l-.82,10.52H185.41Zm11.21,0H208.2l-.82,10.52H196.62Zm11.22,0h10.75l-.82,10.52H207.84Zm11.21,0h10.76l-.82,10.52H219.05Zm11.22,0h10.75L241,390.56H230.27Zm11.21,0h10.76l-.82,10.52H241.48Zm11.22,0h10.75l-.82,10.52H252.7Zm11.22,0h10.75l-.82,10.52H263.91ZM276,380h10.76l-.82,10.52H275.13Zm0-.46.82-10.51h10.75l-.82,10.51Zm12-10.51h8.76L296,379.58H287.2Zm15-9.56,4.72-.54L307,374.44l-5.1.3Zm13.6-1.55,6.54-.74v16.26l-7,.42ZM76,391h6l0,.6h-6Zm15.46.6,0-.6h7.6v.6ZM104.87,380h2.39l-.82,10.52h-1.57Zm181.48,10.52.82-10.52H296l-.77,10.52Zm15.47-15.35,5.1-.31-.81,16.72h-5.5Zm13.79,16.41.49-17.26,7-.41v17.67Z" style="fill:#7AD579"></path><path d="M326,213.61H102a2.9,2.9,0,0,0-1.34.34,1.86,1.86,0,0,0-.56.25l-16.27,9.87a2.2,2.2,0,0,0-1,1.66,2.71,2.71,0,0,0-.23.9L70.37,392.52h5.49l0-.44H99.05v.44h5.82V391h190.3l-.11,1.5h5.49l0-.44h22.53v.44h5.82v-176A2.91,2.91,0,0,0,326,213.61Zm-18.61,160.8.75-15.49,7.95-.9-.46,15.91Zm8.23,0-.49,17.23h-8.58l.82-16.74ZM91.46,390.56,91.77,380H96l-.82,10.52Zm24.05-171.78-7.33,7.16h-3.31v-7.08l.08-.08Zm11.21,0-7.33,7.16H108.84l7.33-7.16Zm11.22,0-7.33,7.16H120.05l7.33-7.16Zm11.21,0-7.32,7.16H131.27l7.33-7.16Zm11.22,0L153,225.94H142.48l7.33-7.16Zm11.22,0-7.33,7.16H153.7l7.33-7.16Zm11.21,0-7.33,7.16H164.91l7.33-7.16Zm11.22,0-7.33,7.16H176.13l7.33-7.16Zm11.21,0-7.33,7.16H187.35l7.32-7.16Zm11.22,0-7.33,7.16H198.56l7.33-7.16Zm11.21,0-7.33,7.16H209.78l7.33-7.16Zm11.22,0-7.33,7.16H221l7.33-7.16Zm11.21,0-7.32,7.16H232.21l7.33-7.16Zm11.22,0L254,225.94H243.42l7.33-7.16Zm11.22,0-7.33,7.16H254.64l7.33-7.16Zm11.21,0-7.33,7.16H265.85l7.33-7.16Zm11.22,0-7.33,7.16H277.07l7.33-7.16Zm11.21,0-7.33,7.16H288.29l7.33-7.16Zm11,0-8.72,5.29a2.2,2.2,0,0,0-1,1.66,1.8,1.8,0,0,0-.08.21H299.5l7.33-7.16Zm-3.05,7-.21,4.24-1.55.85.31-4.21ZM86.48,247.52l2.5-1.23-.08,1.6H86.46Zm3-1.46,5.78-2.84-.13,4.67H89.36ZM91,237.38H95.4l-.15,5.32-5.77,2.83.36-7.54Zm-1.15.08v-.08H90Zm2-.54,3.55-1.85,0,1.85Zm2.71,43.65,4.43-1.63v1.87H94.61Zm-.47.24H94l.19-.07Zm4.9,21.95H94.86l4.19-1.24Zm0-1.72L94,302.54l.29-10.29h4.77Zm0,2.18v10.3l-.85.22H93.67l.3-10.52Zm-2.66,11-2.76.7,0-.7Zm1.87,0h.79v10.51h-5.7l.27-9.33Zm.79,11v1.72l-5.79,1.23.08-2.95Zm0,2.19v8.33H93l.2-7.1Zm5.82-35.11h9.23l-.82,10.51h-8.41Zm9.69,0h10.76l-.82,10.51H113.74Zm11.22,0h10.75l-.82,10.51H125Zm11.22,0h10.75l-.82,10.51H136.18Zm11.21,0H159l-.82,10.51H147.39Zm11.22,0h10.75l-.82,10.51H158.61Zm11.21,0H181.4l-.82,10.51H169.82Zm11.22,0h10.75l-.82,10.51H181Zm11.21,0h10.76L203,302.76H192.25Zm9.9,11-.82,10.52H191.4l.82-10.52Zm.46,0h10.76l-.82,10.52H202.61Zm0-.46.82-10.51H215l-.82,10.51Zm12-10.51h10.76l-.82,10.51H214.68Zm11.22,0h10.75l-.82,10.51H225.9Zm11.22,0h10.75l-.82,10.51H237.12Zm11.21,0h10.76l-.82,10.51H248.33Zm11.22,0h10.75l-.82,10.51H259.55Zm11.21,0h10.76l-.82,10.51H270.76Zm11.22,0h10.75l-.82,10.51H282Zm11.21,0h8.4l-.77,10.51h-8.45Zm8.43-.46h-8.39l.82-10.52h8.34Zm-8.85,0H282.83l.82-10.52h10.76Zm-11.22,0H271.62l.82-10.52h10.75Zm-11.21,0H260.4l.82-10.52H272Zm-11.22,0H249.19l.82-10.52h10.75Zm-11.21,0H238l.82-10.52h10.76Zm-11.22,0H226.76l.82-10.52h10.75Zm-11.22,0H215.54l.82-10.52h10.75Zm-11.21,0H204.32l.82-10.52H215.9Zm-11.22,0H193.11l.82-10.52h10.75Zm-11.21,0H181.89l.82-10.52h10.76Zm-11.22,0H170.68l.82-10.52h10.75Zm-11.21,0H159.46l.82-10.52H171Zm-11.22,0H148.25l.82-10.52h10.75Zm-11.21,0H137l.82-10.52h10.76Zm-11.22,0H125.82l.82-10.52h10.75Zm-11.22,0H114.6l.82-10.52h10.75Zm-11.21,0h-9.27V281.27H115Zm-15.09-22H96.16l2.89-1.16Zm-4.12,0h0l.26-9.14,3.17-1.38h.69v8.86Zm.27-9.65,0-.87h2Zm3.85-1.67-.79.34h-3l.21-7.26,3.6-1.67Zm-4.27.34h0l.07-.91Zm0,.46,0,1.07-.13.06.09-1.13Zm0,1.58-.25,8.94h-.59l.69-8.87Zm.3,9.4h4v8.15l-4.42,1.63.28-9.74Zm4,11v8.11L94.32,291l.28-9.69Zm0,8.59v1.93H94.3v-.35Zm-5.21,1.93h-.56l.56-.19Zm0,.46-.29,10.43-.3.08H91.31l.82-10.51Zm-2.14,11-.41.12v-.12Zm1.62,0h.21l-.3,10.52H90.46l.77-9.91Zm-.11,11,0,.82-2.87.73.12-1.55Zm0,1.29-.27,9.22H89.6l.66-8.48Zm-.28,9.68-.09,3-3.52.75.29-3.79Zm-.1,3.51-.2,7H88.74l.49-6.26Zm-.22,7.46-.17,6.22-4.22.69.54-6.91Zm.46,0h6v5.12l-6.2,1Zm11.85-32.92h8.38l-.82,10.52h-7.56Zm8.84,0h10.75l-.82,10.52H112.89Zm11.21,0h10.76l-.82,10.52H124.1Zm11.22,0h10.75l-.82,10.52H135.32Zm11.21,0h10.76l-.82,10.52H146.53Zm11.22,0h10.76l-.82,10.52H157.75Zm11.22,0h10.75l-.82,10.52H169Zm11.21,0h10.76l-.82,10.52H180.18Zm9.9,11-.82,10.51H179.33l.82-10.51Zm.46,0h10.76l-.82,10.51H190.54Zm11.22,0h10.75l-.82,10.51H201.76Zm11.21,0h10.76l-.82,10.51H213Zm0-.46.82-10.52H225.4l-.82,10.52Zm12-10.52h10.76l-.82,10.52H225Zm11.22,0h10.75L247,313.74H236.26Zm11.21,0h10.76l-.82,10.52H247.48Zm11.22,0h10.76l-.82,10.52H258.69Zm11.22,0h10.75l-.82,10.52H269.91Zm11.21,0H292.7l-.82,10.52H281.12Zm11.22,0h8.44l-.77,10.52h-8.49Zm10.09-22.41H294.9l.83-10.51H304Zm-8.81,0H283.69l.82-10.51h10.75Zm-11.21,0H272.47l.82-10.51h10.76Zm-11.22,0H261.26l.82-10.51h10.75Zm-11.21,0H250l.82-10.51h10.76Zm-11.22,0H238.83l.82-10.51H250.4Zm-11.21,0H227.61l.82-10.51h10.76Zm-11.22,0H216.4l.82-10.51H228Zm-11.21,0H205.18L206,270.3h10.76Zm-11.22,0H194l.82-10.51h10.76Zm-11.22,0H182.75l.82-10.51h10.75Zm-11.21,0H171.53l.82-10.51h10.76Zm-11.22,0H160.32l.82-10.51h10.75Zm-11.21,0H149.1l.82-10.51h10.76Zm-11.22,0H137.89l.82-10.51h10.75Zm-11.21,0H126.67l.82-10.51h10.76Zm-11.22,0H115.46l.82-10.51H127Zm-11.21,0H104.87v-8l.19-2.48h10.76Zm-16-31.39-3.59,1.66.08-2.46,0-.27h3.49Zm-3.46-1.53.4-5,3.06-1.5v6.55Zm.27-10.51H96l-.15,1.9Zm-.78,11v.25l-.22,2.76-5.79,2.69.27-5.7Zm-.26,3.54-.54,7H88.83l.21-4.29Zm-.58,7.43-.1,1.34-5.51,2.39.18-3.73Zm-.14,1.85-.68,8.67H88.3l.31-6.28Zm-.72,9.13v.17l-5.2,2.09.11-2.26Zm1.07.23-.28,9.72-1.13.42.77-9.88Zm-.31,10.74-.28,9.84-1.68.56.81-10.4Zm-3.29,21.49H86.71l.43-8.92,4.53-1.51Zm0,.46,0,.26-4.19,1.24.07-1.5Zm-.06.75L90,313.74H86.17l.42-8.53ZM90,314.2l-.13,1.67-3.81,1,.13-2.64Zm-.17,2.15-.65,8.36h-3.5l.36-7.39Zm-.69,8.82-.3,3.89-3.4.71.22-4.6Zm-.34,4.36-.48,6.16H85.11l.26-5.44Zm-.51,6.61-.55,7-3,.48.36-7.47Zm-.58,7.46-.24,3.06H84.58l.12-2.58Zm.46-.08,4.24-.7-.11,3.84H87.89Zm4.71-.77,6.19-1-.39,4.93H92.72Zm12-28.55h7.52l-.82,10.51h-6.7Zm8,0h10.76l-.82,10.51H112Zm11.22,0h10.75L134,324.71H123.25Zm11.21,0H146l-.82,10.51H134.46Zm11.22,0h10.75l-.82,10.51H145.68Zm11.21,0h10.76l-.82,10.51H156.89Zm11.22,0h10.75l-.82,10.51H168.11Zm9.9,11L178,335.69H167.25l.82-10.52Zm.46,0H190l-.82,10.52H178.47Zm11.22,0h10.75l-.82,10.52H189.68Zm11.21,0h10.76l-.82,10.52H200.9Zm11.22,0h10.75l-.82,10.52H212.12Zm11.21,0h10.76l-.82,10.52H223.33Zm0-.46L225,314.2h10.75l-.82,10.51Zm12-10.51H247l-.82,10.51H235.4Zm11.22,0h10.75l-.82,10.51H246.62Zm11.21,0h10.76l-.82,10.51H257.83Zm11.22,0h10.76l-.82,10.51H269.05Zm11.22,0h10.75L291,324.71H280.27Zm11.21,0h8.5L300,324.71h-8.55ZM307.69,295l3.15-1.05-.52,10.87-3.42,1Zm0-.49.74-10.17,2.89-1.06-.49,10.18Zm.78-10.67.7-9.56,2.64-1.06-.47,9.56Zm.74-10.07.66-9,2.4-1.05-.44,9Zm.7-9.52.62-8.49,2.17-1-.41,8.46Zm.66-9,.58-8,2-1-.38,8Zm-6.56,14.57h-8.29l.82-10.52h8.24Zm-8.75,0H284.55l.82-10.52h10.75Zm-11.22,0H273.33l.82-10.52h10.76Zm-11.21,0H262.11l.82-10.52h10.76Zm-11.22,0H250.9l.82-10.52h10.75Zm-11.21,0H239.68l.82-10.52h10.76Zm-11.22,0H228.47l.82-10.52H240Zm-11.21,0H217.25l.82-10.52h10.76Zm-11.22,0H206l.82-10.52h10.75Zm-11.21,0H194.82l.82-10.52H206.4Zm-11.22,0H183.6l.82-10.52h10.76Zm-11.22,0H172.39l.82-10.52H184Zm-11.21,0H161.17l.82-10.52h10.76Zm-11.22,0H150l.82-10.52h10.75Zm-11.21,0H138.74l.82-10.52h10.76Zm-11.22,0H127.53l.82-10.52H139.1Zm-11.21,0H116.31l.82-10.52h10.76Zm-11.22,0H105.1l.82-10.52h10.75Zm-11-3v-7.55h.59ZM96,242.31l.38-4.93h2.64v3.45Zm.42-5.39.19-2.46,2.41-1.24v3.7Zm-.46,0h-.12l.06-2.09.23-.12Zm0-2.61.2-7.21.63-.34-.58,7.41Zm-.47.24-4.57,2.37h-1l.32-6.6,5.47-3Zm-6,2.37H87.26l.38-5.2,2.1-1.14Zm0,.46v.32l-2.28,1.18.11-1.5Zm0,.85L89,245.77,86.52,247l.56-7.57Zm-.49,10.12-.29,5.92-2.69,1.25.52-7.17Zm-.31,6.44-.2,4.07H85.65l.21-2.82Zm-.22,4.53-.19,3.93-2.92,1.27.38-5.2Zm-.22,4.44-.29,6.08h-3l.35-4.8Zm-.31,6.54-.12,2.45L84.54,274l.28-3.72Zm-.15,3-.36,7.55H84l.46-6.28Zm.47-.19L93.33,271l-.77,9.83H87.77Zm3.25,8.2-3.71,1.37.07-1.37Zm1.13.08-.81,10.44H87.24l.42-8.65Zm-2.07,10.9-3.29,1.09.06-1.09Zm-3.76,1.25L83,294.72l.19-2.47h3.54Zm0,.49-.42,8.77H82.44l.55-7.54Zm-.45,9.23-.08,1.64L82.2,306l.2-2.8Zm-.1,2.12-.41,8.4H81.63l.53-7.23Zm-.43,8.86L85.56,317,81.32,318l.28-3.84Zm-.16,3.24-.35,7.27H80.83l.45-6.19Zm-.37,7.73-.23,4.7-4.55,1,.41-5.66Zm-.25,5.18-.26,5.34H80l.32-4.38Zm-.28,5.79-.37,7.55-4.88.8.61-8.35Zm-.39,8-.12,2.5h-4.9l.12-1.69Zm-.14,3-.51,10.51H78.41l.77-10.51Zm.46,0h2.83l-.82,10.51H84.05Zm2,11v.08l-2.52.29,0-.37Zm.46,0h.21l-.21,0Zm0-.46.82-10.51h4.4L92,357.55l-.7.08Zm5.38-.13.3-10.38h5.9l-.76,9.76Zm5.4-.15,0,.28H95.31Zm1.24-9.93v9.33l-.74.08Zm5.82-22.25h6.67l-.82,10.52h-5.85Zm7.13,0h10.75l-.82,10.52H111.18Zm11.21,0H134l-.82,10.52H122.39Zm11.22,0h10.75l-.82,10.52H133.61Zm11.21,0H156.4l-.82,10.52H144.82Zm11.22,0h10.75l-.82,10.52H156Zm9.9,11-.82,10.52H155.18l.82-10.52Zm.46,0H178l-.82,10.52H166.4Zm11.21,0h10.76l-.82,10.52H177.61Zm11.22,0H200.4l-.82,10.52H188.83Zm11.21,0h10.76l-.82,10.52H200Zm11.22,0h10.76L222,346.66H211.26Zm11.22,0h10.75l-.82,10.52H222.48Zm11.21,0h10.76l-.82,10.52H233.69Zm0-.45.82-10.52h10.75l-.82,10.52Zm12-10.52h10.76l-.82,10.52H245.76Zm11.22,0h10.75l-.82,10.52H257Zm11.21,0h10.76L279,335.69H268.19Zm11.22,0H291l-.83,10.52H279.41Zm11.22,0H300l-.77,10.52h-8.6Zm15.41-18.81,3.43-1L309.73,317l-3.71.94Zm3.9-1.15,6.92-2L317.34,315l-7.14,1.82Zm0-.49.53-10.88L318,291.6l-.32,11.08Zm.55-11.38.5-10.2,6.5-2.4-.3,10.37Zm.52-10.7.47-9.57,6.3-2.54-.28,9.72Zm.49-10.08.44-9,6.12-2.66-.27,9.13Zm.46-9.51.41-8.48,6-2.76-.25,8.58Zm.44-9,.39-8,5.77-2.84-.23,8.08Zm.41-8.52L314,238l5.62-2.92-.22,7.63Zm-.47.24-1.95.95.56-7.58,1.75-.91Zm-1.35-7.17.52-7.17,1.56-.85-.34,7.12Zm-7,20.26h-8.24l.82-10.51h8.19Zm-8.7,0H285.4l.82-10.51H297Zm-11.22,0H274.19l.82-10.51h10.75Zm-11.22,0H263l.82-10.51h10.75Zm-11.21,0H251.75l.82-10.51h10.76Zm-11.22,0H240.54l.82-10.51h10.75Zm-11.21,0H229.32l.82-10.51H240.9Zm-11.22,0H218.11l.82-10.51h10.75Zm-11.21,0H206.89l.82-10.51h10.76Zm-11.22,0H195.68l.82-10.51h10.75Zm-11.21,0H184.46l.82-10.51H196Zm-11.22,0H173.25l.82-10.51h10.75Zm-11.22,0H162l.82-10.51H173.6Zm-11.21,0H150.81l.82-10.51h10.76Zm-11.22,0H139.6l.82-10.51h10.75Zm-11.21,0H128.38l.82-10.51H140Zm-11.22,0H117.17l.82-10.51h10.75Zm-11.21,0H106l.82-10.51h10.76Zm-11.22,0h-.62V248.35h1.44Zm-8.81-24.93.58-7.44.17-.09h1.62v6.3Zm1.6-8,.77-.41v.41Zm-2.11.63v-.17h.3Zm-.47.25-5.46,3,.17-3.39h5.3ZM89.77,230l-2.09,1.14.33-4.5.46-.28h1.47Zm-2.48,51.23-.08,1.55-3.4,1.26.2-2.81Zm-.1,2.05-.41,8.47H83.24l.53-7.21Zm-8.81,74.77h5.19l0,.42-5.24.6Zm5.14.88-.46,9.64H77.61l.66-9Zm.47-.05,2.5-.28-.77,10h-2.2Zm3-.34,4.31-.49h.67l-.31,10.52H86.18Zm5.44-.49h5.35l-.82,10.52H92.09Zm5.81,0h.84v10.52H97.39Zm0-.46,0-.33.77-.09v.42Zm6.62-21.49h5.81l-.82,10.52h-5Zm6.27,0H121.9l-.82,10.52H110.32Zm11.22,0h10.75l-.82,10.52H121.54Zm11.21,0h10.76l-.82,10.52H132.75Zm11.22,0h10.75l-.82,10.52H144Zm9.9,11-.82,10.51H143.11l.82-10.51Zm.46,0H165.9l-.82,10.51H154.33Zm11.21,0h10.76l-.82,10.51H165.54Zm11.22,0h10.75l-.82,10.51H176.76Zm11.21,0h10.76l-.82,10.51H188Zm11.22,0h10.75l-.82,10.51H199.19Zm11.21,0H222l-.82,10.51H210.4Zm11.22,0h10.75l-.82,10.51H221.62Zm11.22,0h10.75l-.82,10.51H232.84Zm11.21,0h10.76l-.82,10.51H244.05Zm0-.46.82-10.52h10.75l-.82,10.52Zm12-10.52H267.7l-.82,10.52H256.12Zm11.22,0h10.75l-.82,10.52H267.34Zm11.21,0h10.76l-.82,10.52H278.55Zm11.22,0h8.6l-.77,10.52h-8.65ZM306,318.39l3.73-.95-.61,12.43-4,.85Zm4.19-1.07,7.16-1.83L317,328.21l-7.39,1.56Zm7.62-1.94,5.32-1.36v12.9l-5.68,1.2Zm0-.48.34-11.88,5-1.46v12Zm.35-12.36.32-11.1,4.63-1.54v11.18Zm.33-11.58.3-10.39,4.32-1.59v10.44Zm.32-10.88.27-9.74,4-1.62v9.77Zm.29-10.24.26-9.14,3.75-1.63v9.16Zm.28-9.65.24-8.59,3.49-1.62v8.59Zm.26-9.11.23-8.09,3.24-1.6v8.08Zm.24-8.61.22-7.64,3-1.56v7.61Zm.24-8.16.21-7.21,2.78-1.52v7.18Zm-.47.24L314,237.46l.35-7.14,5.47-3Zm-5.24-4.76.21-4.27,5.38-3.27-.13,4.57Zm-8.75,18.1h-8.19l.82-10.51h8.14Zm-8.65,0H286.26l.82-10.51h10.75Zm-11.21,0H275l.82-10.51h10.76Zm-11.22,0H263.83l.82-10.51H275.4Zm-11.21,0H252.61l.82-10.51h10.76Zm-11.22,0H241.39l.82-10.51H253Zm-11.22,0H230.18l.82-10.51h10.75Zm-11.21,0H219l.82-10.51h10.76Zm-11.22,0H207.75l.82-10.51h10.75Zm-11.21,0H196.53l.82-10.51h10.76Zm-11.22,0H185.32l.82-10.51h10.75Zm-11.21,0H174.1l.82-10.51h10.76Zm-11.22,0H162.89l.82-10.51h10.75Zm-11.22,0H151.67l.82-10.51h10.75Zm-11.21,0H140.45l.82-10.51H152Zm-11.22,0H129.24l.82-10.51h10.75Zm-11.21,0H118l.82-10.51H129.6Zm-11.22,0H106.81l.82-10.51h10.75Zm-11.21,0h-1.48V237.38h2.3ZM99.05,225l-1,.57,1-1Zm-2.09.94h-.77l.12-4.3L99.05,220v3.93Zm-1.23,0h-5.3l0-.75,5.38-3.26Zm-5.76,0h-.74l.76-.46ZM77.58,369.07H83l-.26,5.37-5.61.33Zm5.91,0h2.19l-.41,5.22-2,.12Zm2.65,0h5.48l-.14,4.86-5.74.34Zm5.94,0H96.9l-.36,4.56-4.6.27Zm5.28,0h1.69v4.41l-2,.12Zm7.51-21.95h4.95L109,357.63h-4.13Zm5.41,0H121l-.82,10.51H109.46Zm11.22,0h10.75l-.82,10.51H120.68Zm11.22,0h10.75l-.82,10.51H131.9Zm9.89,11-.81,10.52H131l.82-10.52Zm.47,0h10.75L153,368.61H142.26Zm11.21,0h10.76l-.82,10.52H153.47Zm11.22,0h10.75l-.82,10.52H164.69Zm11.21,0h10.76l-.82,10.52H175.9Zm11.22,0h10.75l-.82,10.52H187.12Zm11.21,0h10.76l-.82,10.52H198.33Zm11.22,0h10.75l-.82,10.52H209.55Zm11.21,0h10.76l-.82,10.52H220.76Zm11.22,0h10.76l-.82,10.52H232Zm11.22,0h10.75L254,368.61H243.2Zm11.21,0H266l-.82,10.52H254.41Zm0-.46.82-10.51h10.75L266,357.63Zm12-10.51h10.76l-.82,10.51H266.48Zm11.22,0h10.75l-.82,10.51H277.7Zm11.21,0h8.66l-.77,10.51h-8.71ZM305,331.2l4-.85-.65,13.34-4.36.72Zm4.51-.95,7.4-1.57-.39,13.68-7.66,1.25Zm7.86-1.66,5.7-1.21v13.9l-6.09,1Zm2.93-102,.13-4.61,2.64-1.6v4.7Zm-13.12.06-.76,10.29h-8.13l.82-10.52h8.11A1.85,1.85,0,0,0,307.22,226.63Zm-9.35,10.29H287.11l.82-10.52h10.76Zm-11.22,0H275.9l.82-10.52h10.75Zm-11.21,0H264.68l.82-10.52h10.76Zm-11.22,0H253.47l.82-10.52H265Zm-11.21,0H242.25l.82-10.52h10.76Zm-11.22,0H231l.82-10.52h10.76Zm-11.22,0H219.82l.82-10.52h10.75Zm-11.21,0H208.6l.82-10.52h10.76Zm-11.22,0H197.39l.82-10.52H209Zm-11.21,0H186.17L187,226.4h10.76Zm-11.22,0H175l.82-10.52h10.75Zm-11.21,0H163.74l.82-10.52h10.76Zm-11.22,0H152.53l.82-10.52H164.1Zm-11.21,0H141.31l.82-10.52h10.76Zm-11.22,0H130.09l.82-10.52h10.76Zm-11.22,0H118.88l.82-10.52h10.75Zm-11.21,0H107.66l.82-10.52h10.76Zm-11.22,0h-2.33V226.4H108ZM77.12,375.24l5.63-.34-.23,4.68H76.8Zm6.09-.36,2-.12-.38,4.82H83Zm2.49-.15,5.77-.34-.15,5.19h-6Zm6.23-.37,4.57-.27-.42,5.49h-4.3Zm5-.3,2.08-.12v5.64H96.54Zm7.9-16H109l-.82,10.52h-3.28Zm4.56,0h10.75l-.82,10.52H108.61Zm11.21,0H131.4l-.82,10.52H119.82Zm9.9,11-.82,10.51H119l.82-10.51Zm.46,0h10.76l-.82,10.51H130.18Zm11.22,0H153l-.82,10.51H141.4Zm11.21,0h10.76l-.82,10.51H152.61Zm11.22,0h10.76l-.82,10.51H163.83Zm11.22,0h10.75l-.82,10.51H175.05Zm11.21,0h10.76L197,379.58H186.26Zm11.22,0h10.75l-.82,10.51H197.48Zm11.21,0h10.76l-.82,10.51H208.69Zm11.22,0h10.75l-.82,10.51H219.91Zm11.21,0H242.7l-.82,10.51H231.12Zm11.22,0h10.75l-.82,10.51H242.34Zm11.22,0h10.75l-.82,10.51H253.55Zm11.21,0h10.76l-.82,10.51H264.77Zm0-.46.82-10.52H277.2l-.82,10.52Zm12-10.52h10.76l-.82,10.52H276.84Zm11.22,0h8.7l-.77,10.52h-8.75ZM304,344.88l4.37-.72-.69,14.35-4.72.54Zm4.84-.8,7.67-1.26-.43,14.73-7.94.91Zm8.13-1.33,6.1-1v15l-6.53.74ZM76.77,380H82.5L82,390.56H76ZM83,380h1.86L84,390.56H82.45Zm8,11,0,.6H82.4l0-.6Zm-6.52-.46L85.29,380h6L91,390.56ZM96.5,380h2.55v10.52H95.68Zm8.37-11h3.24l-.82,10.51h-2.42Zm3.7,0h10.76l-.82,10.51H107.75Zm9.9,11-.82,10.52H106.9l.82-10.52Zm.46,0h10.76l-.82,10.52H118.11Zm11.22,0H140.9l-.82,10.52H129.33Zm11.21,0h10.76l-.82,10.52H140.54Zm11.22,0h10.75l-.82,10.52H151.76Zm11.21,0h10.76l-.82,10.52H163ZM175,380h10.75l-.82,10.52H174.19Zm11.22,0H197l-.82,10.52H185.41Zm11.21,0H208.2l-.82,10.52H196.62Zm11.22,0h10.75l-.82,10.52H207.84Zm11.21,0h10.76l-.82,10.52H219.05Zm11.22,0h10.75L241,390.56H230.27Zm11.21,0h10.76l-.82,10.52H241.48Zm11.22,0h10.75l-.82,10.52H252.7Zm11.22,0h10.75l-.82,10.52H263.91ZM276,380h10.76l-.82,10.52H275.13Zm0-.46.82-10.51h10.75l-.82,10.51Zm12-10.51h8.76L296,379.58H287.2Zm15-9.56,4.72-.54L307,374.44l-5.1.3Zm13.6-1.55,6.54-.74v16.26l-7,.42ZM76,391h6l0,.6h-6Zm15.46.6,0-.6h7.6v.6ZM104.87,380h2.39l-.82,10.52h-1.57Zm181.48,10.52.82-10.52H296l-.77,10.52Zm15.47-15.35,5.1-.31-.81,16.72h-5.5Zm13.79,16.41.49-17.26,7-.41v17.67Z" style="fill:#fff;opacity:0.5"></path><path d="M126.74,136.24a103.21,103.21,0,0,1,64.4,73.43l-1.32-1,10.1-.4,5.05-.19,5.05.05,5,0c1.68,0,3.37,0,5.05.12l10.08.63A208.33,208.33,0,0,1,270,216.06a151.44,151.44,0,0,1,37.17,16.17,129,129,0,0,1,16.56,12,130.52,130.52,0,0,1,14.43,14.65,131.71,131.71,0,0,0-14.63-14.4,129.93,129.93,0,0,0-16.68-11.66,150.7,150.7,0,0,0-37.18-15.47,207.27,207.27,0,0,0-39.56-6.43l-10-.46c-1.66-.12-3.34,0-5,0l-5,0-5,0-5,.27-10,.56h0a1.3,1.3,0,0,1-1.31-1,99.65,99.65,0,0,0-63.26-70,2.14,2.14,0,0,1-1.28-2.69,2,2,0,0,1,2.57-1.34Z" style="fill:#7AD579"></path><path d="M131.86,152.65a.51.51,0,0,1-.17,0l-16.35-5.5a.53.53,0,1,1,.34-1L132,151.61a.53.53,0,0,1,.33.68A.53.53,0,0,1,131.86,152.65Z" style="fill:#7AD579"></path><path d="M137.39,135.86a.48.48,0,0,1-.28-.08l-9.73-6.09a.53.53,0,0,1-.17-.73.55.55,0,0,1,.74-.17l9.72,6.09a.53.53,0,0,1-.28,1Z" style="fill:#7AD579"></path><circle cx="105.46" cy="130.55" r="13.94" style="fill:#263238"></circle><path d="M106.79,142.32l-1.49-.65-.09,0c-.49-.22-1-.45-1.49-.7l-.94.43-1.13.49-.85.36,0,.19c.06.38.11.73.17,1a13.43,13.43,0,0,0,4.46.76c.41,0,.82,0,1.23-.06q0-.24,0-.51C106.75,143.25,106.77,142.81,106.79,142.32Z" style="fill:#fff"></path><path d="M102.78,141.36l.94-.43c.5.25,1,.48,1.49.7-.49-.22-1-.45-1.49-.7Z" style="fill:#263238"></path><path d="M106.69,144.15h0q0-.24,0-.51Q106.7,143.91,106.69,144.15Z" style="fill:#263238"></path><path d="M101,143.45h0c-.06-.32-.11-.67-.17-1C100.88,142.78,100.94,143.13,101,143.45Z" style="fill:#263238"></path><path d="M106.79,142.32h0l-1.49-.65Z" style="fill:#263238"></path><path d="M100.8,142.21l.85-.36-.85.36Z" style="fill:#263238"></path><path d="M100.59,142.2l-1.23-.61-.66-.33-1.21-.65-.48.22-.36.16a13.7,13.7,0,0,0,4.13,2.38C100.71,143,100.65,142.62,100.59,142.2Z" style="fill:#fff"></path><path d="M100.8,142.21h0l0,0h0l0,0q-.65-.3-1.29-.63l1.23.61c.06.42.12.82.19,1.17l.22.08c-.06-.32-.12-.67-.17-1Z" style="fill:#263238"></path><path d="M98.7,141.26l-1.2-.65-.49.22.48-.22Z" style="fill:#263238"></path><path d="M100.68,142.06c.92-.38,1.9-.81,2.92-1.29,0-1-.06-2.1-.09-3.28-1.1-.6-2.22-1.23-3.32-1.88-1,.59-2.06,1.14-3,1.65,0,.44.08.86.13,1.28s.06.53.09.79.1.77.15,1.13C98.6,141,99.64,141.57,100.68,142.06Z" style="fill:#263238"></path><path d="M99.36,141.59q.65.33,1.29.63l0,0h0l0,0,.85-.36,1.13-.49.94-.43-.06,0a.11.11,0,0,1-.06-.09c0-1-.06-2.13-.09-3.33-1.1-.6-2.22-1.23-3.32-1.88h0c1.1.65,2.22,1.28,3.32,1.88,0,1.18,0,2.28.09,3.28-1,.48-2,.91-2.92,1.29-1-.49-2.08-1-3.11-1.6v0a.06.06,0,0,1,0,.08l0,0,1.2.65Z" style="fill:#263238"></path><path d="M97.42,139.33c0-.26-.07-.52-.09-.79C97.35,138.81,97.39,139.07,97.42,139.33Z" style="fill:#263238"></path><path d="M97,137.25l-1.09-.69L95,136c-.34-.22-.69-.45-1-.68l-1.09.67a13.61,13.61,0,0,0,3.56,4.85l.87-.4C97.21,139.47,97.08,138.39,97,137.25Z" style="fill:#fff"></path><path d="M97,140.83l.49-.22,0,0a.06.06,0,0,0,0-.08v0c0-.36-.1-.74-.15-1.13s-.07-.52-.09-.79-.1-.84-.13-1.28l-.06,0h0a.07.07,0,0,1-.06,0l-1.14-.72,1.09.69c.1,1.14.23,2.22.38,3.19l-.87.4.16.15Z" style="fill:#263238"></path><path d="M94,135.32c.33.23.68.46,1,.68-.34-.22-.69-.45-1-.68Z" style="fill:#263238"></path><path d="M93.75,131.53l-1.19-.84a1.33,1.33,0,0,0-.19-.14l-.55-.42c0,.14,0,.28,0,.42a13.65,13.65,0,0,0,1,5.24l1.07-.67C93.82,134,93.77,132.75,93.75,131.53Z" style="fill:#263238"></path><path d="M94,135.32a.1.1,0,0,0,0,0,.12.12,0,0,1,0-.1c-.1-1.18-.15-2.41-.17-3.65l-1.19-.84,1.19.84c0,1.22.07,2.42.16,3.59l-1.07.67.09.2,1.09-.67Z" style="fill:#263238"></path><path d="M91.82,130.13h0l.55.42Z" style="fill:#263238"></path><path d="M107,135.46c0-1.24,0-2.54,0-3.85l-3.41-2-3.35,2c0,1.29,0,2.58.08,3.81,1.1.65,2.22,1.28,3.33,1.88Q105.27,136.42,107,135.46Z" style="fill:#fff"></path><path d="M103.57,137.33l.06,0c-1.11-.6-2.23-1.23-3.33-1.88v.07a.1.1,0,0,1,0,.1l-.06,0c1.1.65,2.22,1.28,3.32,1.88v-.07A.1.1,0,0,1,103.57,137.33Z" style="fill:#263238"></path><path d="M94.11,135.13c.93.65,1.93,1.3,3,1.94l3-1.66c0-1.24-.08-2.52-.09-3.81-1-.62-2-1.23-3-1.83l-.16-.1c-1,.64-2,1.27-2.88,1.86C94,132.75,94,134,94.11,135.13Z" style="fill:#fff"></path><path d="M100.19,135.61l.06,0a.1.1,0,0,0,0-.1v-.07c0-1.23-.07-2.52-.08-3.81l-.06,0-.06,0-.06,0-.06,0c0,1.29,0,2.57.09,3.81l-3,1.66c-1-.64-2-1.29-3-1.94-.09-1.17-.15-2.38-.17-3.6l0,0h-.05l0,0,0,0c0,1.24.07,2.47.17,3.65a.12.12,0,0,0,0,.1.1.1,0,0,1,0,0c.33.23.68.46,1,.68l.85.56,1.14.72a.07.07,0,0,0,.06,0h0l.06,0c.93-.51,1.94-1.06,3-1.65Z" style="fill:#263238"></path><path d="M96.82,129.67h0l.16.1Z" style="fill:#263238"></path><path d="M103.45,129.42c0-.55,0-1.1,0-1.65v-.62c0-.53,0-1.06,0-1.58-1.11-.62-2.19-1.2-3.22-1.76-1.09.63-2.17,1.27-3.2,1.92-.07,1.21-.11,2.47-.13,3.73,1,.62,2.07,1.27,3.17,1.92Z" style="fill:#263238"></path><path d="M100,131.6l.06,0,.06,0,.06,0,.06,0,3.35-2-.06,0a.11.11,0,0,1-.06-.1c0-.58,0-1.16,0-1.73,0,.55,0,1.1,0,1.65l-3.35,2c-1.1-.65-2.16-1.3-3.17-1.92v.07a.13.13,0,0,1-.06.11l-.05,0,.16.1C97.94,130.37,99,131,100,131.6Z" style="fill:#263238"></path><path d="M103.48,125.57c0,.52,0,1.05,0,1.58,0-.53,0-1.06,0-1.58Z" style="fill:#263238"></path><path d="M96.71,129.46c0-1.26.06-2.51.13-3.72l-2.67-1.54c-.42.29-.83.58-1.22.87a13.5,13.5,0,0,0-1.12,4.81c.62.46,1.28,1,2,1.45C94.73,130.73,95.69,130.1,96.71,129.46Z" style="fill:#fff"></path><path d="M92.56,130.69l1.19.84,0,0,0,0h.05l0,0c.89-.59,1.86-1.22,2.88-1.86h0l.05,0a.13.13,0,0,0,.06-.11v-.07c0-1.26.06-2.52.13-3.73l-.06,0-.06,0,0,0,0,0c-.07,1.21-.12,2.46-.13,3.72-1,.64-2,1.27-2.87,1.87-.73-.5-1.39-1-2-1.45a2,2,0,0,0,0,.25l.55.42A1.33,1.33,0,0,1,92.56,130.69Z" style="fill:#263238"></path><path d="M94.09,124c0-.41.11-.81.17-1.2a.28.28,0,0,1,0-.09,14,14,0,0,0-1.16,2C93.43,124.49,93.75,124.25,94.09,124Z" style="fill:#263238"></path><path d="M94.12,124.17a.08.08,0,0,1,0-.09c0-.43.1-.85.17-1.26-.06.39-.12.79-.17,1.2-.34.23-.66.47-1,.7,0,.12-.11.23-.16.35.39-.29.8-.58,1.22-.87Z" style="fill:#263238"></path><path d="M106.93,123.54c0-1.18-.05-2.28-.08-3.28-1.06-.51-2.09-1-3.08-1.4-1,.46-2.08,1-3.14,1.5,0,.41-.08.85-.11,1.29,0,.16,0,.31,0,.47,0,.49-.06,1-.09,1.5,1,.54,2.11,1.13,3.21,1.74C104.73,124.73,105.84,124.12,106.93,123.54Z" style="fill:#fff"></path><path d="M103.48,125.57v-.07a.11.11,0,0,1,.06-.1c1.14-.65,2.28-1.27,3.39-1.86h0c-1.09.58-2.2,1.19-3.33,1.82-1.1-.61-2.18-1.2-3.21-1.74v.06a.14.14,0,0,1-.07.1l-.06,0c1,.56,2.11,1.14,3.22,1.76Z" style="fill:#263238"></path><path d="M100.48,122.12c0-.16,0-.31,0-.47C100.51,121.81,100.49,122,100.48,122.12Z" style="fill:#263238"></path><path d="M94.28,124,97,125.54c1-.65,2.11-1.29,3.2-1.92.06-1.16.14-2.26.24-3.24-.92-.43-1.79-.81-2.6-1.14a13.3,13.3,0,0,0-3.3,3.18C94.42,122.93,94.35,123.46,94.28,124Z" style="fill:#fff"></path><path d="M94.09,124.08a.08.08,0,0,0,0,.09l0,0,2.67,1.54,0,0,0,0,.06,0,.06,0c1-.65,2.11-1.29,3.2-1.92l.06,0a.14.14,0,0,0,.07-.1v-.06c0-.52.06-1,.09-1.5,0-.16,0-.31,0-.47,0-.44.07-.88.11-1.29l-.06,0-.06,0h-.05l-.06,0c-.1,1-.18,2.08-.24,3.24-1.09.63-2.17,1.27-3.2,1.92L94.28,124c.07-.54.14-1.07.22-1.58a3.55,3.55,0,0,0-.23.31.28.28,0,0,0,0,.09C94.19,123.23,94.13,123.65,94.09,124.08Z" style="fill:#263238"></path><path d="M100.53,120.21c1.06-.54,2.11-1,3.14-1.49q0-.3,0-.57v0l0-.5a.91.91,0,0,0,0-.17c0-.15,0-.29,0-.42v0A13.56,13.56,0,0,0,98,119.11C98.79,119.43,99.63,119.79,100.53,120.21Z" style="fill:#263238"></path><path d="M100.46,120.4h.05l.06,0,.06,0c1.06-.54,2.11-1,3.14-1.5l0,0s-.06,0,0-.07c0-.22,0-.42,0-.62q0,.27,0,.57c-1,.45-2.08,1-3.14,1.49-.9-.42-1.74-.78-2.53-1.1a1.37,1.37,0,0,0-.2.13c.81.33,1.68.71,2.6,1.14Z" style="fill:#263238"></path><path d="M103.7,118.12l0-.5Z" style="fill:#263238"></path><path d="M103.74,117.45c0-.15,0-.29,0-.42C103.76,117.16,103.75,117.3,103.74,117.45Z" style="fill:#263238"></path><path d="M103.89,118.71c1,.42,2,.88,3.07,1.39l1.44-.65.09,0c.47-.21.94-.4,1.39-.59,0-.09,0-.18,0-.28s0-.22,0-.32a2.93,2.93,0,0,0-.05-.29l-.06-.37a13.71,13.71,0,0,0-4.22-.67A14.17,14.17,0,0,0,104,117C104,117.46,103.92,118,103.89,118.71Z" style="fill:#fff"></path><path d="M103.74,117.45a.91.91,0,0,1,0,.17l0,.5v0c0,.2,0,.4,0,.62,0,0,0,0,0,.07l0,0c1,.42,2,.89,3.08,1.4v-.06a.1.1,0,0,1,.05-.08l1.5-.67-1.44.65c-1.06-.51-2.09-1-3.07-1.39,0-.67.06-1.25.1-1.74l-.21,0v0C103.77,117.16,103.75,117.3,103.74,117.45Z" style="fill:#263238"></path><path d="M109.84,118.54c0-.11,0-.22,0-.32C109.81,118.32,109.82,118.43,109.84,118.54Z" style="fill:#263238"></path><path d="M109.68,117.56h0l.06.37Z" style="fill:#263238"></path><path d="M109.88,118.82c-.45.19-.92.38-1.39.59.47-.21.94-.4,1.39-.58Z" style="fill:#263238"></path><path d="M111,119.3c.41.2.81.41,1.21.62l.94.5.18-.08.76-.34a13.82,13.82,0,0,0-4.23-2.36c.07.36.14.76.2,1.2C110.41,119,110.73,119.14,111,119.3Z" style="fill:#fff"></path><path d="M109.79,118.22c0,.1,0,.21,0,.32s0,.19,0,.28h0l.05,0a.21.21,0,0,1,.11,0l1,.49c-.31-.16-.63-.32-.94-.46-.06-.44-.13-.84-.2-1.2l-.22-.08.06.37A2.93,2.93,0,0,1,109.79,118.22Z" style="fill:#263238"></path><path d="M113.37,120.34l-.18.08-.94-.5.94.5Z" style="fill:#263238"></path><path d="M110,119c-.92.38-1.9.81-2.93,1.29,0,1,.07,2.1.09,3.28,1.11.61,2.22,1.24,3.32,1.88,1.05-.59,2.06-1.14,3-1.65-.1-1.15-.23-2.22-.38-3.2C112.09,120,111,119.46,110,119Z" style="fill:#263238"></path><path d="M106.93,123.54l.06,0a.13.13,0,0,1,.12,0c1.13.61,2.26,1.26,3.38,1.91h0c-1.1-.64-2.21-1.27-3.32-1.88,0-1.18,0-2.28-.09-3.28,1-.48,2-.91,2.93-1.29,1,.49,2.08,1,3.1,1.6v0s0-.07,0-.08l0,0-.94-.5c-.4-.21-.8-.42-1.21-.62l-1-.49a.21.21,0,0,0-.11,0l-.05,0c-.45.18-.92.37-1.39.58l-.09,0-1.5.67a.1.1,0,0,0-.05.08v.06c0,1,.06,2.1.08,3.28Z" style="fill:#263238"></path><path d="M113.71,123.78c1,.64,2,1.29,3,1.94l1.24-.77a13.56,13.56,0,0,0-3.6-4.8l-1,.44C113.48,121.56,113.61,122.64,113.71,123.78Z" style="fill:#fff"></path><path d="M113.19,120.42l0,0s0,0,0,.08v0c.15,1,.28,2.05.38,3.2l.05,0a.11.11,0,0,1,.11,0c1,.64,2.06,1.31,3,2h0c-.93-.65-1.92-1.3-3-1.94-.1-1.14-.23-2.22-.39-3.19l1-.44-.17-.15-.76.34Z" style="fill:#263238"></path><path d="M116.94,129.5l.74.53,1,.73.41.31c0-.17,0-.34,0-.52a13.52,13.52,0,0,0-1.12-5.4l-1.23.77C116.86,127.08,116.92,128.29,116.94,129.5Z" style="fill:#263238"></path><path d="M116.66,125.72l0,0a.13.13,0,0,1,.06.1c.09,1.19.15,2.41.17,3.65l.74.53-.74-.53c0-1.21-.08-2.42-.17-3.58l1.23-.77c0-.07-.07-.14-.1-.2l-1.24.77Z" style="fill:#263238"></path><path d="M119.09,131.07h0l-.41-.31Z" style="fill:#263238"></path><path d="M107.05,123.74c-1.08.58-2.2,1.19-3.32,1.83,0,1.24,0,2.54,0,3.85l3.41,2c1.13-.66,2.26-1.31,3.35-2,0-.21,0-.42,0-.64,0-.74,0-1.47,0-2.19l0-1C109.28,125,108.16,124.34,107.05,123.74Z" style="fill:#fff"></path><path d="M107,131.54a.11.11,0,0,1,.07-.11l.06,0-3.41-2c0-1.31,0-2.61,0-3.85,1.12-.64,2.24-1.25,3.32-1.83,1.11.6,2.23,1.24,3.33,1.88v-.07a.12.12,0,0,1,.05-.1l.06,0c-1.12-.65-2.25-1.3-3.38-1.91a.13.13,0,0,0-.12,0l-.06,0c-1.11.59-2.25,1.21-3.39,1.86a.11.11,0,0,0-.06.1v.07c0,.52,0,1.05,0,1.58v.62c0,.57,0,1.15,0,1.73a.11.11,0,0,0,.06.1l.06,0,3.41,2Z" style="fill:#263238"></path><path d="M110.41,126.6c0,.72,0,1.45,0,2.19C110.44,128.05,110.43,127.32,110.41,126.6Z" style="fill:#263238"></path><path d="M116.58,125.9c-.93-.64-1.93-1.3-3-1.93l-3,1.66c0,1.23.07,2.51.08,3.81l3,1.82.16.1c1-.64,2-1.27,2.87-1.86C116.72,128.28,116.67,127.07,116.58,125.9Z" style="fill:#fff"></path><path d="M110.49,125.42l-.06,0a.12.12,0,0,0-.05.1v.07l0,1c0,.72,0,1.45,0,2.19,0,.22,0,.43,0,.64l.06,0a.13.13,0,0,1,.12,0l.06,0c0-1.3,0-2.58-.08-3.81l3-1.66c1,.63,2,1.29,3,1.93.09,1.17.14,2.38.16,3.6l.05,0a.09.09,0,0,1,.1,0l0,0c0-1.24-.08-2.46-.17-3.65a.13.13,0,0,0-.06-.1l0,0c-1-.66-2-1.33-3-2a.11.11,0,0,0-.11,0l-.05,0c-.94.51-1.95,1.06-3,1.65Z" style="fill:#263238"></path><path d="M113.87,131.36h0l-.16-.1Z" style="fill:#263238"></path><path d="M107.23,131.61c0,1.31,0,2.61,0,3.85,1.11.62,2.19,1.21,3.22,1.76,1.09-.63,2.17-1.27,3.21-1.92.07-1.21.11-2.46.12-3.73-1-.62-2.07-1.27-3.17-1.92Z" style="fill:#263238"></path><path d="M110.7,129.44l-.06,0a.13.13,0,0,0-.12,0l-.06,0c-1.09.65-2.22,1.3-3.35,2l-.06,0a.11.11,0,0,0-.07.11v.07c0,1.31,0,2.61,0,3.85l.06,0a.13.13,0,0,1,.12,0l.06,0c0-1.24,0-2.54,0-3.85l3.35-2c1.1.65,2.17,1.3,3.17,1.92a.17.17,0,0,1,0-.07.12.12,0,0,1,0-.1l.06,0-.16-.1Z" style="fill:#263238"></path><path d="M114,131.57c0,1.26-.06,2.51-.13,3.72l2.67,1.55,1.29-.93.13-.1.17-.13a13.71,13.71,0,0,0,1-4.36c-.68-.51-1.42-1-2.24-1.62C116,130.3,115,130.93,114,131.57Z" style="fill:#fff"></path><path d="M117.68,130l-.74-.53,0,0a.09.09,0,0,0-.1,0l-.05,0c-.89.59-1.85,1.22-2.87,1.86h0l-.06,0a.12.12,0,0,0,0,.1.17.17,0,0,0,0,.07c0,1.27,0,2.52-.12,3.73l.05,0a.13.13,0,0,1,.12,0l0,0c.07-1.21.11-2.46.13-3.72,1-.64,2-1.27,2.86-1.87.82.57,1.56,1.11,2.24,1.62,0-.08,0-.16,0-.25l-.41-.31Z" style="fill:#263238"></path><path d="M117.81,135.91l.13-.1Z" style="fill:#263238"></path><path d="M116.59,137c-.07.61-.15,1.19-.24,1.76A13.52,13.52,0,0,0,118,136Q117.31,136.51,116.59,137Z" style="fill:#263238"></path><path d="M117.81,135.91l-1.29.93,0,0a.1.1,0,0,1,0,.09c-.07.63-.16,1.24-.25,1.82h0c.09-.57.17-1.15.24-1.76q.72-.49,1.38-1c0-.11.09-.22.14-.34l-.17.13Z" style="fill:#263238"></path><path d="M107.08,135.67c-1.12.63-2.24,1.24-3.33,1.82,0,1.18,0,2.29.08,3.28,1.06.52,2.09,1,3.08,1.4,1-.45,2.09-1,3.15-1.5,0-.31,0-.64.08-1s0-.69.08-1,0-.81.07-1.23C109.26,136.87,108.18,136.28,107.08,135.67Z" style="fill:#fff"></path><path d="M107.14,135.43a.13.13,0,0,0-.12,0l-.06,0q-1.69,1-3.33,1.83l-.06,0a.1.1,0,0,0-.06.09v.07c0,1.2.06,2.33.09,3.33a.11.11,0,0,0,.06.09l.06,0c.5.25,1,.48,1.49.7l.09,0,1.49.65v0a.08.08,0,0,1,0-.07l.06,0c-1-.42-2-.88-3.08-1.4,0-1-.06-2.1-.08-3.28,1.09-.58,2.21-1.19,3.33-1.82,1.1.61,2.18,1.2,3.21,1.75v-.07a.11.11,0,0,1,.06-.1l.06,0c-1-.55-2.11-1.14-3.22-1.76Z" style="fill:#263238"></path><path d="M110.22,138.65c0,.36,0,.71-.08,1C110.17,139.36,110.19,139,110.22,138.65Z" style="fill:#263238"></path><path d="M116.4,137l-2.67-1.54c-1,.65-2.11,1.3-3.2,1.92-.07,1.16-.15,2.26-.25,3.25,1,.44,1.86.83,2.68,1.17l.72-.39a13.41,13.41,0,0,0,2.42-2.34Q116.28,138.11,116.4,137Z" style="fill:#fff"></path><path d="M116.6,137a.1.1,0,0,0,0-.09l0,0-2.67-1.55,0,0a.13.13,0,0,0-.12,0l-.05,0c-1,.65-2.12,1.29-3.21,1.92l-.06,0a.11.11,0,0,0-.06.1v.07c0,.42-.05.82-.07,1.23s0,.71-.08,1,0,.66-.08,1l0,0a.17.17,0,0,1,.12,0l0,0c.1-1,.18-2.09.25-3.25,1.09-.62,2.16-1.27,3.2-1.92L116.4,137q-.12,1.08-.3,2.07l.25-.33C116.44,138.19,116.53,137.58,116.6,137Z" style="fill:#263238"></path><path d="M112.83,142c-.82-.33-1.72-.72-2.68-1.15-1.06.54-2.11,1-3.13,1.48,0,.71-.08,1.32-.12,1.82a13.51,13.51,0,0,0,5.92-2.08V142Z" style="fill:#263238"></path><path d="M110.15,140.83c1,.43,1.86.82,2.68,1.15v0a.13.13,0,0,1,.07-.08l0,0c-.82-.34-1.72-.73-2.68-1.17l0,0a.17.17,0,0,0-.12,0l0,0c-1.06.54-2.12,1.05-3.15,1.5l-.06,0a.08.08,0,0,0,0,.07v0h0c0,.49,0,.93-.07,1.32q0,.27,0,.51l.21,0c0-.5.08-1.11.12-1.82C108,141.87,109.09,141.37,110.15,140.83Z" style="fill:#263238"></path><path d="M112.82,142.05h0v0Z" style="fill:#263238"></path><path d="M112.91,141.86a.13.13,0,0,0-.07.08v.11c.29-.19.58-.4.86-.61l-.72.39Z" style="fill:#263238"></path></g><g id="freepik--Character--inject-39"><path d="M389.61,169.45c-.08,0,0,0,0,0l.16.08.35.18c.25.11.51.24.78.35.53.22,1.08.44,1.63.61a16.42,16.42,0,0,0,3.3.68,11.88,11.88,0,0,0,6.32-1.16l-1.6,6.61a28,28,0,0,0-3.12-4.3c-1.27-1.49-2.61-3-4-4.49s-2.83-3-4.28-4.47l-4.35-4.47,0,0a2.66,2.66,0,0,1,3.21-4.18c1.92,1.08,3.71,2.22,5.52,3.42s3.54,2.46,5.28,3.78,3.43,2.72,5.08,4.26a31.51,31.51,0,0,1,4.88,5.45,4.58,4.58,0,0,1-1.22,6.36h0l-.36.25a20.42,20.42,0,0,1-5.57,2.65,21.23,21.23,0,0,1-3.07.66,21.68,21.68,0,0,1-3.11.16,22.19,22.19,0,0,1-6-.95,23.55,23.55,0,0,1-2.8-1c-.46-.2-.91-.42-1.36-.66l-.69-.39-.36-.22-.46-.29a5.32,5.32,0,0,1,5.86-8.88Z" style="fill:#ffc3bd"></path><path d="M362.74,142c-.12.58-.52,1-.9.92s-.6-.62-.48-1.2.52-1,.91-.92S362.86,141.4,362.74,142Z" style="fill:#263238"></path><path d="M362.27,143a21.35,21.35,0,0,1-3.8,4.43,3.4,3.4,0,0,0,2.68,1.09Z" style="fill:#ed847e"></path><path d="M365.54,139.17a.38.38,0,0,0,.24-.09.36.36,0,0,0,0-.5,3.47,3.47,0,0,0-3-1.15.35.35,0,0,0-.29.4.36.36,0,0,0,.4.29h0a2.78,2.78,0,0,1,2.35.94A.36.36,0,0,0,365.54,139.17Z" style="fill:#263238"></path><path d="M378.54,152.29c-1,5.13-1.61,12.24,2,15.67,0,0-1.41,5.21-10.94,5.21-10.49,0-5.05-4.57-5.05-4.57,4.36-1.36,4.32-6.32,3.33-10.31Z" style="fill:#ffc3bd"></path><path d="M382.06,171.47c.86-1.38.58-5.55-.46-6.23-1.67-1.09-8.56-1-17.7,1.7,1.23,4-.78,6.23-.78,6.23Z" style="fill:#263238"></path><path d="M381,167.86c6.05-.78,15,3.31,15,3.31s.32,3.9-1,12.27c-2.81,2.84-12.64,6.71-15.15,1.87S375.6,168.57,381,167.86Z" style="fill:#7AD579"></path><path d="M368,230.55s9.51,59.84,13.88,79.92c4.78,22,34.32,98.07,34.32,98.07l6.1-1.49s-19.68-70-23.7-100.76c-3.08-23.62-7.72-75.74-7.72-75.74Z" style="fill:#ffc3bd"></path><path d="M414.82,408.16c.65-.73-1-5.2-2.6-8.68S394.76,352,392.61,346.63c7.35-2.61,13.56-4.52,13.56-4.52s14.48,52.89,16.2,64.83C419.72,408,414.82,408.16,414.82,408.16Z" style="fill:#7AD579"></path><path d="M390.72,344.5c-.81.62-.17,1.67.45,2.73s15.23-3.37,15.89-4.1-.69-2.86-1.1-3.25S392.09,343.45,390.72,344.5Z" style="fill:#7AD579"></path><path d="M414.8,406.57l7.7-1.67a.62.62,0,0,1,.69.34l2.67,5.8a1,1,0,0,1-.74,1.44c-2.7.54-4,.66-7.43,1.4-2.08.45-6.79,1.59-9.67,2.22s-3.87-2.14-2.74-2.66c5-2.3,7.13-4.32,8.5-6.21A1.68,1.68,0,0,1,414.8,406.57Z" style="fill:#263238"></path><path d="M352.48,230.55s.54,61.34,1.31,82.73c.79,22.26,11,97.26,11,97.26h6s.17-73,.7-94.83c.58-23.83,5.67-85.16,5.67-85.16Z" style="fill:#ffc3bd"></path><path d="M351.53,176.58c-1.44,7.58-4.1,28.78.06,59.6l40.6-.62c.24-5.38-4-34.61-.08-60.56a5.61,5.61,0,0,0-4.81-6.39c-2.05-.28-4.44-.54-6.78-.65a139.2,139.2,0,0,0-16,0c-1.75.16-3.48.41-5,.69A9.91,9.91,0,0,0,351.53,176.58Z" style="fill:#7AD579"></path><path d="M350.68,233.87a379.88,379.88,0,0,1,42.24-2.06,13.89,13.89,0,0,1,0,4.05s4.38,11.59,3.84,34.25c-12.06,4.44-31,4.44-31,4.44Z" style="fill:#263238"></path><path d="M379.71,273.7c-.47-13.19-2.4-25-7.69-26a3.34,3.34,0,0,0-1.26,0c1.27,7.67,2.82,17.07,4.42,26.46,1.42,8.29,2.87,16.55,4.18,23.58C379.73,290.68,380,281.91,379.71,273.7Z" style="opacity:0.30000000000000004"></path><path d="M350.68,233.87l.38,3.43s-1.79,25.76-.38,38.11c5.82,1.82,19.45,2.09,25.1-.65,0,0,4.85-22.34,1.37-39.2C375.55,232.65,350.68,233.87,350.68,233.87Z" style="fill:#263238"></path><path d="M356.11,176.68c-1.65,1.74-3.52,3.81-5.55,6.2-.25,2.11-.51,4.55-.71,7.32,4.41-1.91,8.47-4.52,10.71-8.06Z" style="opacity:0.2"></path><path d="M358.63,182.11l-1.08.09-.95.05c-.63,0-1.25,0-1.87,0-1.23,0-2.45-.08-3.66-.17a48.24,48.24,0,0,1-7.25-1.17,43.88,43.88,0,0,1-7.05-2.28,39.39,39.39,0,0,1-6.64-3.5l-.24-.16a4.67,4.67,0,0,1-1.82-5.54,17.76,17.76,0,0,1,3.4-5.55A25.41,25.41,0,0,1,335.9,160a41.61,41.61,0,0,1,9.57-4.75,70.23,70.23,0,0,1,9.8-2.67c1.64-.33,3.29-.58,4.94-.81s3.27-.41,5-.51a2.64,2.64,0,0,1,.83,5.19l-.09,0c-2.94.77-6,1.67-8.92,2.7a77.11,77.11,0,0,0-8.5,3.47,37.19,37.19,0,0,0-7.32,4.5,11.82,11.82,0,0,0-4.08,5.42l-2.06-5.69a39.69,39.69,0,0,0,11,3.72,57.64,57.64,0,0,0,5.88.77c1,.08,2,.13,3,.15h2.16l.58,0H358a5.31,5.31,0,0,1,.59,10.6Z" style="fill:#ffc3bd"></path><path d="M365.41,168.25c-5.24-1.14-18.2.63-18.2.63a37.83,37.83,0,0,0-4.68,13.79c6.36,3.15,16.45,7.52,21.68,4S373,169.9,365.41,168.25Z" style="fill:#7AD579"></path><path d="M361.91,182.15l10.06.28,0,4.88-6.81-.19-.35,3.3a5.45,5.45,0,0,1,1.4-.68,4.08,4.08,0,0,1,1.37-.21,4.57,4.57,0,0,1,3.72,2.11,8.65,8.65,0,0,1,1.45,5.07,11.45,11.45,0,0,1-.71,4.08,6.3,6.3,0,0,1-2.06,3,5.41,5.41,0,0,1-3.45.94,7.33,7.33,0,0,1-2.59-.49,5,5,0,0,1-1.83-1.28,7.27,7.27,0,0,1-1.24-1.89,12.72,12.72,0,0,1-.79-2.61l4.28-.55a4.82,4.82,0,0,0,.74,2.28,1.77,1.77,0,0,0,1.37.81A1.61,1.61,0,0,0,368,200a5.6,5.6,0,0,0,.56-2.87,5.72,5.72,0,0,0-.6-2.91,1.84,1.84,0,0,0-1.55-1,1.91,1.91,0,0,0-1.19.41,4,4,0,0,0-.93,1.11l-3.61-.85Z" style="fill:#fff"></path><path d="M381.78,200.61l-7.72-.21,0-5,7.66-13,3.69.1.07,13.54,1.92.05,0,4.75-1.91-.05,0,4.11-3.7-.1Zm0-4.74,0-6.94-4,6.82Z" style="fill:#fff"></path><path d="M382.47,144.7c-1.9,7.08-2.65,11.32-7,14.27-6.57,4.43-14.76-.66-15-8.16-.23-6.76,2.91-17.2,10.51-18.63A10,10,0,0,1,382.47,144.7Z" style="fill:#ffc3bd"></path><path d="M367.18,145.74a16.61,16.61,0,0,1-4.27.87s0-7,4.1-7.85c-2.22-.94-4.74-2.9-3.34-6.77,1.09-3,5.39-5.11,9.46-5.16.26.66-.91,1.63-.91,1.63s11.84.15,14.69,3a4.42,4.42,0,0,1-2.08.87s8,7.32,1.85,15.4a4.49,4.49,0,0,1-.94-1.73s-4.8,14.8-9,13.89C367.31,160,367.64,153.72,367.18,145.74Z" style="fill:#263238"></path><path d="M390.08,156.25l-4.16-5.12-5.1,5.85s3.89,4.33,6.92,3.14Z" style="fill:#ffc3bd"></path><polygon points="382.08 148.47 377.57 154.46 380.82 156.98 385.92 151.13 382.08 148.47" style="fill:#ffc3bd"></polygon><path d="M363,157l6-.82-2.45-7.57s-3.77,1.24-4.84,4.46Z" style="fill:#ffc3bd"></path><polygon points="369.05 156.16 374.54 153.86 373.15 146.13 366.6 148.59 369.05 156.16" style="fill:#ffc3bd"></polygon><path d="M369.53,147.18A6.69,6.69,0,0,1,366,151c-2,.68-2-1.57-1.45-3.66.52-1.89,1.22-3.35,2.82-4C369.23,142.62,370.37,145.15,369.53,147.18Z" style="fill:#ffc3bd"></path><path d="M363.37,408.74c.81-.53.35-5.28-.26-9.05s-6.85-47-7.36-55.17A58,58,0,0,1,371.86,346s.47,26.08-.89,63.53C368.15,409.84,363.37,408.74,363.37,408.74Z" style="fill:#7AD579"></path><path d="M355.64,343.17c-1,.31-.75,1.51-.54,2.71s15.75,2.12,16.64,1.66.35-2.92.09-3.43S357.32,342.66,355.64,343.17Z" style="fill:#7AD579"></path><path d="M363.85,408.21h7.66a.62.62,0,0,1,.6.48l1.38,6.23a1,1,0,0,1-1,1.25c-2.76-.05-6.75-.21-10.23-.21-4.06,0-4.26.22-9,.22-2.89,0-3.68-2.91-2.48-3.17,5.49-1.2,6.66-1.33,11.41-4.26A3.28,3.28,0,0,1,363.85,408.21Z" style="fill:#263238"></path></g></svg>