<svg xmlns="http://www.w3.org/2000/svg" viewBox="0 0 500 500"><g id="freepik--background-simple--inject-81"><path d="M98.88,96.88a80.77,80.77,0,0,1,28.25-23c27.93-13.8,64-3.15,80.76,22.85,21.37,33.13,23.11,74.26,40.71,109,7.91,15.6,21.92,32.13,40.94,32.2,20.65.08,34.28-18.79,50.64-28.42,17-10,41.13-10.81,56.53,3.35,18.55,17.07,16.82,47.79,10.41,69.92-8.4,28.95-28.62,55.37-54.65,70.66-43.17,25.34-99.07,25.32-145.33,8.85q-6.4-2.28-12.64-5c-40.57-17.91-76.5-48.63-96.56-88.6C74.7,222.33,63.64,142.07,98.88,96.88Z" style="fill:#7AD579"></path><path d="M98.88,96.88a80.77,80.77,0,0,1,28.25-23c27.93-13.8,64-3.15,80.76,22.85,21.37,33.13,23.11,74.26,40.71,109,7.91,15.6,21.92,32.13,40.94,32.2,20.65.08,34.28-18.79,50.64-28.42,17-10,41.13-10.81,56.53,3.35,18.55,17.07,16.82,47.79,10.41,69.92-8.4,28.95-28.62,55.37-54.65,70.66-43.17,25.34-99.07,25.32-145.33,8.85q-6.4-2.28-12.64-5c-40.57-17.91-76.5-48.63-96.56-88.6C74.7,222.33,63.64,142.07,98.88,96.88Z" style="fill:#fff;opacity:0.9"></path></g><g id="freepik--Shadow--inject-81"><ellipse id="freepik--path--inject-81" cx="250" cy="416.24" rx="193.89" ry="11.32" style="fill:#f5f5f5"></ellipse></g><g id="freepik--Character--inject-81"><g id="freepik--group--inject-81"><path d="M273.73,200.81c-5.21,2.58-16.09,7.15-26.31,6.42a24.35,24.35,0,0,1-7.31-1.6c-3.35-1.33-5.48-4.71-6.75-9.19-4.63-16.19,1.85-46.75,1.85-46.75,9.42,1.54,18.52,38.27,22.08,40.28S276,191.28,276,191.28l.5,4.49A5,5,0,0,1,273.73,200.81Z" style="fill:#7AD579"></path><path d="M247.42,207.23a24.35,24.35,0,0,1-7.31-1.6c-3.35-1.33-5.48-4.71-6.75-9.19.36-2.42.79-4.13.79-4.13l17.32-5S252.19,199.84,247.42,207.23Z" style="opacity:0.30000000000000004;isolation:isolate"></path><polygon points="233.84 408.38 242.21 409.26 243.78 391.21 235.42 390.33 233.84 408.38" style="fill:#b97964"></polygon><polygon points="192.09 407.76 200.2 407.76 200.87 388.98 192.75 388.98 192.09 407.76" style="fill:#b97964"></polygon><path d="M201.33,406.83h-9.85a.72.72,0,0,0-.7.55l-1.59,7.22a1.19,1.19,0,0,0,.92,1.42,1.09,1.09,0,0,0,.26,0c3.19-.05,5.51-.25,9.51-.25,2.47,0,9.9.26,13.31.26s3.84-3.36,2.45-3.67c-6.25-1.37-10.95-3.25-12.95-5.05A2,2,0,0,0,201.33,406.83Z" style="fill:#263238"></path><path d="M201.88,408a.19.19,0,0,1-.14-.16.16.16,0,0,1,.09-.19c.29-.19,2.91-1.79,3.81-1.33a.6.6,0,0,1,.33.54,1.13,1.13,0,0,1-.41,1,2.42,2.42,0,0,1-1.55.41A9.6,9.6,0,0,1,201.88,408Zm.56-.27a4,4,0,0,0,2.89-.14.78.78,0,0,0,.25-.69c0-.16-.07-.23-.12-.23a.42.42,0,0,0-.25-.05A8,8,0,0,0,202.44,407.68Z" style="fill:#7AD579"></path><path d="M201.83,408a.2.2,0,0,1-.09-.17c0-.12.2-2.45,1.14-3.21a1,1,0,0,1,.82-.25.63.63,0,0,1,.62.51c.16.85-1.46,2.64-2.29,3.09h-.1A.17.17,0,0,1,201.83,408Zm1.3-3.15a4.56,4.56,0,0,0-1,2.53c.84-.63,1.87-2,1.76-2.5,0-.05,0-.2-.27-.2h-.1A.63.63,0,0,0,203.13,404.84Z" style="fill:#7AD579"></path><path d="M243.1,406.57h-9.85a.71.71,0,0,0-.69.56l-1.6,7.22a1.18,1.18,0,0,0,.92,1.41l.26,0c3.19-.05,5.51-.25,9.51-.25,2.47,0,9.91.26,13.31.26s3.85-3.36,2.45-3.67c-6.25-1.36-11-3.25-13-5.05A2,2,0,0,0,243.1,406.57Z" style="fill:#263238"></path><path d="M243.65,407.69a.19.19,0,0,1-.14-.16.2.2,0,0,1,.09-.19c.29-.18,2.91-1.79,3.81-1.33a.57.57,0,0,1,.33.54,1.15,1.15,0,0,1-.4,1,2.41,2.41,0,0,1-1.56.41A9.6,9.6,0,0,1,243.65,407.69Zm.56-.27a4,4,0,0,0,2.89-.14.81.81,0,0,0,.26-.69c0-.16-.07-.23-.13-.23a.4.4,0,0,0-.24-.05A8,8,0,0,0,244.21,407.42Z" style="fill:#7AD579"></path><path d="M243.6,407.73a.19.19,0,0,1-.09-.17c0-.11.21-2.45,1.15-3.21a1,1,0,0,1,.81-.25.63.63,0,0,1,.62.51c.16.85-1.46,2.64-2.29,3.09h-.09A.2.2,0,0,1,243.6,407.73Zm1.3-3.15a4.59,4.59,0,0,0-1,2.54c.84-.63,1.87-2,1.77-2.51,0-.05,0-.2-.28-.2h-.09A.66.66,0,0,0,244.9,404.58Z" style="fill:#7AD579"></path><polygon points="235.42 390.33 243.78 391.21 242.97 400.52 234.6 399.64 235.42 390.33" style="opacity:0.2;isolation:isolate"></polygon><polygon points="192.75 388.99 200.87 388.99 200.52 398.68 192.4 398.68 192.75 388.99" style="opacity:0.2;isolation:isolate"></polygon><path d="M196.1,224.24h43c4.09,22.34,16.9,101.41,7.71,171.86l-14.57-1.81s1.35-93.52-11.52-128.1c-1.48,18.5-3.23,38.19-4.76,48.67C212.26,340.65,204.24,397,204.24,397H189.41s3-53.94,4.44-79.28C195.38,290.2,196,229.89,196.1,224.24Z" style="fill:#263238"></path><path d="M220.77,266.19a115.2,115.2,0,0,1,4.8,18.62c1.21-16.47-3.61-33.93-3.61-33.93Z" style="opacity:0.2;isolation:isolate"></path><polygon points="248.51 399.5 230.48 396.81 231.03 391.82 249.79 394.28 248.51 399.5" style="fill:#7AD579"></polygon><polygon points="248.51 399.5 230.48 396.81 231.03 391.82 249.79 394.28 248.51 399.5" style="fill:#fff;opacity:0.6000000000000001;isolation:isolate"></polygon><polygon points="206.03 397.12 188.53 397.12 188.53 391.89 206.69 391.55 206.03 397.12" style="fill:#7AD579"></polygon><polygon points="206.03 397.12 188.53 397.12 188.53 391.89 206.69 391.55 206.03 397.12" style="fill:#fff;opacity:0.6000000000000001;isolation:isolate"></polygon><polygon points="195.19 240.34 195.19 244.99 242.86 242.66 242.86 238.46 195.19 240.34" style="fill:#7AD579"></polygon><path d="M271.8,194s-.27,2.22,3.29,4.16h4.55a7.17,7.17,0,0,0,3,1c1.19-.05,6.89-4.26,7.92-5.17s-1.78-11.09-1.78-11.09Z" style="fill:#b97964"></path><path d="M235.21,149.69s-27.38-1.33-47.77,3.82c0,0,6.59,59,6.63,86.16a2.07,2.07,0,0,0,2.16,2.08l46-1.6a2.08,2.08,0,0,0,2-2.16C243.82,226.78,241.55,173.44,235.21,149.69Z" style="fill:#7AD579"></path><path d="M244.23,238a2.08,2.08,0,0,1-2,2.16l-46,1.6a2.07,2.07,0,0,1-2.16-2.08c0-5.52-.29-12.37-.73-19.77-.21-3.34-.44-6.79-.7-10.29-.29-4.1-.62-8.26-1-12.36-.78-9.36-1.63-18.43-2.37-25.86-1.06-10.61-1.87-17.88-1.87-17.88,20.39-5.15,47.77-3.82,47.77-3.82C241.55,173.44,243.82,226.78,244.23,238Z" style="opacity:0.2;isolation:isolate"></path><path d="M203,150.75c4,3.59,13.63,2.26,13.63,2.26s6-1.66,4.77-3.54c-3.56-.59-5.28-2.25-6-4.38a10.43,10.43,0,0,1-.36-4.06c.06-.75.17-1.52.3-2.27l-12-8.86C205,135.75,206.87,146.51,203,150.75Z" style="fill:#b97964"></path><path d="M206.15,135.53c.48,7.18,6.38,9.16,9.26,9.56a10.43,10.43,0,0,1-.36-4.06Z" style="opacity:0.2;isolation:isolate"></path><path d="M226.8,112.84s1.7,11.17-4.23,15.47-5.93-16.5-5.93-16.5Z" style="fill:#263238"></path><path d="M205.35,137.19A10.13,10.13,0,0,0,217,141.12a11.3,11.3,0,0,0,6.45-5.25,11.89,11.89,0,0,0,.54-1.07c2.91-6.83,3.84-18.77-3.38-23.25a11,11,0,0,0-16.79,8.28C202.92,127.82,202,132.47,205.35,137.19Z" style="fill:#b97964"></path><path d="M215.45,124.1c-.15.63.14,1.22.56,1.29s.86-.39,1-1-.15-1.23-.57-1.3S215.57,123.45,215.45,124.1Z" style="fill:#263238"></path><path d="M222.74,125.34c-.16.64.14,1.23.56,1.3s.85-.4,1-1-.15-1.23-.57-1.3S222.84,124.73,222.74,125.34Z" style="fill:#263238"></path><path d="M220.37,125.27a23.61,23.61,0,0,0,2.13,6,3.82,3.82,0,0,1-3.19.05Z" style="fill:#a24e3f"></path><path d="M213.59,121.35a.37.37,0,0,0,.39-.08,3.12,3.12,0,0,1,2.64-.86.37.37,0,0,0,.46-.27.38.38,0,0,0-.28-.47h0a3.82,3.82,0,0,0-3.34,1,.38.38,0,0,0,0,.54h0A.4.4,0,0,0,213.59,121.35Z" style="fill:#263238"></path><path d="M217.69,134.52h0a5.93,5.93,0,0,1-4.78-2.6.21.21,0,0,1,.08-.28.2.2,0,0,1,.27.06h0a5.63,5.63,0,0,0,4.44,2.39.2.2,0,0,1,.2.2v0a.2.2,0,0,1-.2.2Z" style="fill:#263238"></path><path d="M226.3,123.37a.33.33,0,0,0,.22,0,.38.38,0,0,0,.26-.47h0a3.83,3.83,0,0,0-2.36-2.59.39.39,0,0,0-.48.25h0a.39.39,0,0,0,.26.47h0a3.11,3.11,0,0,1,1.84,2.08A.37.37,0,0,0,226.3,123.37Z" style="fill:#263238"></path><path d="M211.31,111v3.57a2.62,2.62,0,0,0-1.72,3.13c.77,3.1-1.47,7.48-4,9,0,0,.09-1.29-1-1.12s-1.63,6.88.09,10.32c0,0-2.84-3.27-3.78-10.49-.88-6.68-.43-12.1,1.21-14.44Z" style="fill:#263238"></path><path d="M199.24,125.73a7.68,7.68,0,0,0,3.67,4.55c2.36,1.27,4.13-.7,4-3.24-.17-2.25-1.57-5.7-4.18-5.89S198.57,123.34,199.24,125.73Z" style="fill:#b97964"></path><path d="M211.31,114.52s2.31,2.29,4.56.61c0,0,2.55,2.12,4.62.62a4.71,4.71,0,0,0,3,2.15,1.62,1.62,0,0,0,1.87-1.69s2.95,1.69,4,.9-.6-4-.6-4,1.39-.74.5-3.29-5-2-5-2,.16-2.37-2.71-4.84a2.78,2.78,0,0,0-4.57.59s-2.78-3.76-6.23-3.26-3,2.86-3,2.86-4-2.47-5.74,0,0,3.66,0,3.66-4,1.33-3.76,4,2.23,2.3,2.23,2.3-1.14,1.29,1.43,2.38,5-1.59,5-1.59a1.77,1.77,0,0,0,.85,2.58C209.59,117.65,211.31,114.52,211.31,114.52Z" style="fill:#263238"></path><path d="M216.64,153s-14-9.49-18.41-10-3.65,5-3.65,5-3.43,0-2.11,4.22,20.28,6.55,27.28,4.46,11.17-6,10-9.72-4.4-.53-4.4-.53-1.88-3.49-4.59-2.68S216.64,153,216.64,153Z" style="fill:#7AD579"></path><path d="M215.56,179.39a.51.51,0,0,1-.46-.3c-1.56-3.6-.91-7.35-.28-11,.7-4,1.35-7.69-.68-11.19a.5.5,0,1,1,.86-.5c2.22,3.82,1.5,7.9.81,11.86-.64,3.64-1.24,7.08.21,10.4a.51.51,0,0,1-.26.66A.79.79,0,0,1,215.56,179.39Z" style="fill:#fff"></path><path d="M225.31,177.31a.63.63,0,0,1-.19,0,.51.51,0,0,1-.28-.65c0-.06,2.43-6.19.83-12.16a17.9,17.9,0,0,0-5.08-8.83.5.5,0,0,1,.63-.78,18.68,18.68,0,0,1,5.41,9.35c1.69,6.3-.75,12.53-.86,12.79A.48.48,0,0,1,225.31,177.31Z" style="fill:#fff"></path><path d="M242,146.1h2.78a.66.66,0,0,1,.66.66v3.43a0,0,0,0,1,0,0h-4.09a0,0,0,0,1,0,0v-3.43A.66.66,0,0,1,242,146.1Z" transform="translate(-26.51 56.81) rotate(-12.63)" style="fill:#7AD579"></path><path d="M249.61,144.38h2.78a.66.66,0,0,1,.66.66v3.43a0,0,0,0,1,0,0H249a0,0,0,0,1,0,0V145A.66.66,0,0,1,249.61,144.38Z" transform="translate(-25.95 58.44) rotate(-12.63)" style="fill:#7AD579"></path><path d="M257.27,142.66h2.78a.66.66,0,0,1,.66.66v3.43a0,0,0,0,1,0,0h-4.09a0,0,0,0,1,0,0v-3.43A.66.66,0,0,1,257.27,142.66Z" transform="translate(-25.39 60.08) rotate(-12.63)" style="fill:#7AD579"></path><path d="M264.94,140.95h2.78a.66.66,0,0,1,.66.66V145a0,0,0,0,1,0,0h-4.09a0,0,0,0,1,0,0v-3.43A.66.66,0,0,1,264.94,140.95Z" transform="translate(-24.83 61.71) rotate(-12.63)" style="fill:#7AD579"></path><path d="M272.6,139.23h2.78a.66.66,0,0,1,.66.66v3.43a0,0,0,0,1,0,0h-4.09a0,0,0,0,1,0,0v-3.43a.66.66,0,0,1,.66-.66Z" transform="translate(-24.27 63.34) rotate(-12.63)" style="fill:#7AD579"></path><path d="M280.26,137.51H283a.66.66,0,0,1,.66.66v3.43a0,0,0,0,1,0,0H279.6a0,0,0,0,1,0,0v-3.43a.66.66,0,0,1,.66-.66Z" transform="translate(-23.7 64.98) rotate(-12.63)" style="fill:#7AD579"></path><path d="M291.85,189.23h2.78a.66.66,0,0,1,.66.66v3.43a0,0,0,0,1,0,0h-4.09a0,0,0,0,1,0,0v-3.43a.66.66,0,0,1,.66-.66Z" transform="translate(621.21 313.78) rotate(167.37)" style="fill:#7AD579"></path><path d="M284.19,190.95H287a.66.66,0,0,1,.66.66V195a0,0,0,0,1,0,0h-4.09a0,0,0,0,1,0,0V191.6A.66.66,0,0,1,284.19,190.95Z" transform="translate(606.45 318.85) rotate(167.37)" style="fill:#7AD579"></path><path d="M276.53,192.66h2.78a.66.66,0,0,1,.66.66v3.43a0,0,0,0,1,0,0h-4.09a0,0,0,0,1,0,0v-3.43a.66.66,0,0,1,.66-.66Z" transform="translate(591.69 323.92) rotate(167.37)" style="fill:#7AD579"></path><path d="M268.87,194.38h2.78a.66.66,0,0,1,.66.66v3.43a0,0,0,0,1,0,0h-4.09a0,0,0,0,1,0,0V195a.66.66,0,0,1,.66-.66Z" transform="translate(576.93 328.99) rotate(167.37)" style="fill:#7AD579"></path><path d="M261.2,196.1H264a.66.66,0,0,1,.66.66v3.43a0,0,0,0,1,0,0h-4.09a0,0,0,0,1,0,0v-3.43A.66.66,0,0,1,261.2,196.1Z" transform="translate(562.16 334.06) rotate(167.37)" style="fill:#7AD579"></path><path d="M253.54,197.82h2.78a.66.66,0,0,1,.66.66v3.43a0,0,0,0,1,0,0h-4.09a0,0,0,0,1,0,0v-3.43A.66.66,0,0,1,253.54,197.82Z" transform="translate(547.4 339.13) rotate(167.37)" style="fill:#7AD579"></path><g style="opacity:0.4;isolation:isolate"><path d="M242,146.1h2.78a.66.66,0,0,1,.66.66v3.43a0,0,0,0,1,0,0h-4.09a0,0,0,0,1,0,0v-3.43A.66.66,0,0,1,242,146.1Z" transform="translate(-26.51 56.81) rotate(-12.63)"></path><path d="M249.61,144.38h2.78a.66.66,0,0,1,.66.66v3.43a0,0,0,0,1,0,0H249a0,0,0,0,1,0,0V145A.66.66,0,0,1,249.61,144.38Z" transform="translate(-25.95 58.44) rotate(-12.63)"></path><path d="M257.27,142.66h2.78a.66.66,0,0,1,.66.66v3.43a0,0,0,0,1,0,0h-4.09a0,0,0,0,1,0,0v-3.43A.66.66,0,0,1,257.27,142.66Z" transform="translate(-25.39 60.08) rotate(-12.63)"></path><path d="M264.94,140.95h2.78a.66.66,0,0,1,.66.66V145a0,0,0,0,1,0,0h-4.09a0,0,0,0,1,0,0v-3.43A.66.66,0,0,1,264.94,140.95Z" transform="translate(-24.83 61.71) rotate(-12.63)"></path><path d="M272.6,139.23h2.78a.66.66,0,0,1,.66.66v3.43a0,0,0,0,1,0,0h-4.09a0,0,0,0,1,0,0v-3.43a.66.66,0,0,1,.66-.66Z" transform="translate(-24.27 63.34) rotate(-12.63)"></path><path d="M280.26,137.51H283a.66.66,0,0,1,.66.66v3.43a0,0,0,0,1,0,0H279.6a0,0,0,0,1,0,0v-3.43a.66.66,0,0,1,.66-.66Z" transform="translate(-23.7 64.98) rotate(-12.63)"></path><path d="M291.85,189.23h2.78a.66.66,0,0,1,.66.66v3.43a0,0,0,0,1,0,0h-4.09a0,0,0,0,1,0,0v-3.43a.66.66,0,0,1,.66-.66Z" transform="translate(621.21 313.78) rotate(167.37)"></path><path d="M284.19,190.95H287a.66.66,0,0,1,.66.66V195a0,0,0,0,1,0,0h-4.09a0,0,0,0,1,0,0V191.6A.66.66,0,0,1,284.19,190.95Z" transform="translate(606.45 318.85) rotate(167.37)"></path><path d="M276.53,192.66h2.78a.66.66,0,0,1,.66.66v3.43a0,0,0,0,1,0,0h-4.09a0,0,0,0,1,0,0v-3.43a.66.66,0,0,1,.66-.66Z" transform="translate(591.69 323.92) rotate(167.37)"></path><path d="M268.87,194.38h2.78a.66.66,0,0,1,.66.66v3.43a0,0,0,0,1,0,0h-4.09a0,0,0,0,1,0,0V195a.66.66,0,0,1,.66-.66Z" transform="translate(576.93 328.99) rotate(167.37)"></path><path d="M261.2,196.1H264a.66.66,0,0,1,.66.66v3.43a0,0,0,0,1,0,0h-4.09a0,0,0,0,1,0,0v-3.43A.66.66,0,0,1,261.2,196.1Z" transform="translate(562.16 334.06) rotate(167.37)"></path><path d="M253.54,197.82h2.78a.66.66,0,0,1,.66.66v3.43a0,0,0,0,1,0,0h-4.09a0,0,0,0,1,0,0v-3.43A.66.66,0,0,1,253.54,197.82Z" transform="translate(547.4 339.13) rotate(167.37)"></path></g><rect x="240.02" y="143.61" width="58.81" height="51.69" rx="3.56" transform="translate(-30.54 63.03) rotate(-12.63)" style="fill:#263238"></rect><path d="M254.74,199.23l-4.88,1.1a3.56,3.56,0,0,1-4.25-2.7l-9.75-43.49a3.56,3.56,0,0,1,2.7-4.25l4.88-1.1a3.57,3.57,0,0,0-2.7,4.26l9.75,43.49A3.55,3.55,0,0,0,254.74,199.23Z" style="opacity:0.4;isolation:isolate"></path><path d="M267.25,160.17l1.08,19.31-3.77.84L257.3,162.4l2.87-.65,5.41,14.15-1.15-15.1Z" style="fill:#fff"></path><path d="M273.64,177.1l2.78-.62.3,1.32-4.45,1-.27-1.22,1.32-3.72a4.81,4.81,0,0,0,.42-2.79c-.15-.65-.53-.94-1.08-.82s-.76.55-.62,1.2l.13.54-1.35.3-.1-.43a2.19,2.19,0,0,1,1.66-2.93,2.14,2.14,0,0,1,2.75,1.79,6.09,6.09,0,0,1-.5,3.59Z" style="fill:#fff"></path><path d="M277.7,176.12l1.4-.31.31,1.39-1.4.31Z" style="fill:#fff"></path><path d="M280.42,174.77l-1.13-5.06a2.3,2.3,0,0,1,4.49-1l1.13,5a2.3,2.3,0,0,1-4.49,1Zm3.09-.7-1.13-5a.87.87,0,1,0-1.69.38l1.13,5a.87.87,0,1,0,1.69-.38Z" style="fill:#fff"></path><path d="M243.87,192.94h2.78a.66.66,0,0,1,.66.66V197a0,0,0,0,1,0,0h-4.09a0,0,0,0,1,0,0V193.6A.66.66,0,0,1,243.87,192.94Z" transform="translate(108.64 476.96) rotate(-102.63)" style="fill:#7AD579"></path><path d="M242.16,185.28h2.78a.66.66,0,0,1,.66.66v3.43a0,0,0,0,1,0,0H241.5a0,0,0,0,1,0,0v-3.43A.66.66,0,0,1,242.16,185.28Z" transform="translate(114.02 465.95) rotate(-102.63)" style="fill:#7AD579"></path><path d="M240.44,177.62h2.78a.66.66,0,0,1,.66.66v3.43a0,0,0,0,1,0,0h-4.09a0,0,0,0,1,0,0v-3.43A.66.66,0,0,1,240.44,177.62Z" transform="translate(119.41 454.93) rotate(-102.63)" style="fill:#7AD579"></path><path d="M238.72,170h2.78a.66.66,0,0,1,.66.66V174a0,0,0,0,1,0,0h-4.09a0,0,0,0,1,0,0v-3.43A.66.66,0,0,1,238.72,170Z" transform="translate(124.79 443.92) rotate(-102.63)" style="fill:#7AD579"></path><path d="M237,162.3h2.78a.66.66,0,0,1,.66.66v3.43a0,0,0,0,1,0,0h-4.09a0,0,0,0,1,0,0V163A.66.66,0,0,1,237,162.3Z" transform="translate(130.17 432.91) rotate(-102.63)" style="fill:#7AD579"></path><path d="M235.29,154.63h2.78a.66.66,0,0,1,.66.66v3.43a0,0,0,0,1,0,0h-4.09a0,0,0,0,1,0,0v-3.43A.66.66,0,0,1,235.29,154.63Z" transform="translate(135.56 421.89) rotate(-102.63)" style="fill:#7AD579"></path><g style="opacity:0.4;isolation:isolate"><path d="M243.87,192.94h2.78a.66.66,0,0,1,.66.66V197a0,0,0,0,1,0,0h-4.09a0,0,0,0,1,0,0V193.6A.66.66,0,0,1,243.87,192.94Z" transform="translate(108.64 476.96) rotate(-102.63)"></path><path d="M242.16,185.28h2.78a.66.66,0,0,1,.66.66v3.43a0,0,0,0,1,0,0H241.5a0,0,0,0,1,0,0v-3.43A.66.66,0,0,1,242.16,185.28Z" transform="translate(114.02 465.95) rotate(-102.63)"></path><path d="M240.44,177.62h2.78a.66.66,0,0,1,.66.66v3.43a0,0,0,0,1,0,0h-4.09a0,0,0,0,1,0,0v-3.43A.66.66,0,0,1,240.44,177.62Z" transform="translate(119.41 454.93) rotate(-102.63)"></path><path d="M238.72,170h2.78a.66.66,0,0,1,.66.66V174a0,0,0,0,1,0,0h-4.09a0,0,0,0,1,0,0v-3.43A.66.66,0,0,1,238.72,170Z" transform="translate(124.79 443.92) rotate(-102.63)"></path><path d="M237,162.3h2.78a.66.66,0,0,1,.66.66v3.43a0,0,0,0,1,0,0h-4.09a0,0,0,0,1,0,0V163A.66.66,0,0,1,237,162.3Z" transform="translate(130.17 432.91) rotate(-102.63)"></path><path d="M235.29,154.63h2.78a.66.66,0,0,1,.66.66v3.43a0,0,0,0,1,0,0h-4.09a0,0,0,0,1,0,0v-3.43A.66.66,0,0,1,235.29,154.63Z" transform="translate(135.56 421.89) rotate(-102.63)"></path></g><path d="M211.31,212.27l2,1.07s-2.15,15.43-7.18,18.79l-2.06-2.37S211.21,220.49,211.31,212.27Z" style="fill:#7AD579"></path><path d="M236.67,211l-2.52,1.3s4.67,14.92,7.68,18.28l1.71-2.37S237.81,218.68,236.67,211Z" style="fill:#7AD579"></path><path d="M211.06,203.12s-6.45,13.08-17.72,16.78c-.21-3.34-.44-6.79-.7-10.29-.29-4.1-.62-8.26-1-12.36Z" style="opacity:0.2;isolation:isolate"></path><path d="M219.75,193l13-4.37s11.67-10.4,14.24-10.35,4.75,6.58,5.93,9.06-11,7.49-12.82,8.54-4.33,0-4.33,0l-13.28,5.8Z" style="fill:#b97964"></path><path d="M187.44,153.51c-12.11,1.61-5.84,47.24,2,56.2,6.52,7.49,30.31-3.51,38-7.33a3.12,3.12,0,0,0,1.55-3.76l-2.24-6.72a3.11,3.11,0,0,0-3.71-2c-6.45,1.65-22,5.33-23.9,3.12-2.39-2.79-5.55-16.5-5-25.21S187.44,153.51,187.44,153.51Z" style="fill:#7AD579"></path><polygon points="224.8 189.97 228.97 200.41 232.7 198.15 229.09 188.96 224.8 189.97" style="fill:#7AD579"></polygon><polygon points="224.8 189.97 228.97 200.41 232.7 198.15 229.09 188.96 224.8 189.97" style="opacity:0.30000000000000004;isolation:isolate"></polygon></g></g><g id="freepik--Screen--inject-81"><path d="M426.42,69v288a4.21,4.21,0,0,1-4.27,4.21h-134a3.71,3.71,0,0,1-2.68-1.08,3.84,3.84,0,0,1-1.14-2.79V68.62a3.39,3.39,0,0,1,3.27-3.53h38.06a2.68,2.68,0,0,1,2.45,1.71l1.57,3.88a2.68,2.68,0,0,0,2.45,1.69H378.7a2.65,2.65,0,0,0,2.45-1.66l1.57-3.9a2.69,2.69,0,0,1,2.45-1.72h37.51A3.84,3.84,0,0,1,426.42,69Z" style="fill:#7AD579;isolation:isolate"></path><path d="M432.42,69v288a4.21,4.21,0,0,1-4.27,4.21h-134a3.71,3.71,0,0,1-2.68-1.08,3.84,3.84,0,0,1-1.14-2.79V68.62a3.39,3.39,0,0,1,3.27-3.53h38.06a2.68,2.68,0,0,1,2.45,1.71l1.57,3.88a2.68,2.68,0,0,0,2.45,1.69H384.7a2.65,2.65,0,0,0,2.45-1.66l1.57-3.9a2.69,2.69,0,0,1,2.45-1.72h37.51A3.84,3.84,0,0,1,432.42,69Z" style="fill:#7AD579"></path><path d="M432.42,69v288a4.21,4.21,0,0,1-4.27,4.21h-134a3.71,3.71,0,0,1-2.68-1.08,3.84,3.84,0,0,1-1.14-2.79V68.62a3.39,3.39,0,0,1,3.27-3.53h38.06a2.68,2.68,0,0,1,2.45,1.71l1.57,3.88a2.68,2.68,0,0,0,2.45,1.69H384.7a2.65,2.65,0,0,0,2.45-1.66l1.57-3.9a2.69,2.69,0,0,1,2.45-1.72h37.51A3.84,3.84,0,0,1,432.42,69Z" style="fill:#fff;opacity:0.4"></path><rect x="307.99" y="74.05" width="1.98" height="2.64" transform="translate(617.95 150.73) rotate(180)" style="fill:#fff;opacity:0.6000000000000001;isolation:isolate"></rect><rect x="304.76" y="73.17" width="1.98" height="3.52" transform="translate(611.5 149.85) rotate(180)" style="fill:#fff;opacity:0.6000000000000001;isolation:isolate"></rect><rect x="301.53" y="72.28" width="1.98" height="4.4" transform="translate(605.04 148.97) rotate(180)" style="fill:#fff;opacity:0.6000000000000001;isolation:isolate"></rect><rect x="298.3" y="71.4" width="1.98" height="5.28" transform="translate(598.59 148.09) rotate(180)" style="fill:#fff;opacity:0.6000000000000001;isolation:isolate"></rect><rect x="413.1" y="73.08" width="1.17" height="2.64" style="fill:#fff;opacity:0.6000000000000001;isolation:isolate"></rect><rect x="415.08" y="72.12" width="9.35" height="4.57" transform="translate(839.51 148.81) rotate(180)" style="fill:#fff;opacity:0.6000000000000001;isolation:isolate"></rect><path d="M316.31,284.64h90.12a5.09,5.09,0,0,1,5.09,5.09h0a5.09,5.09,0,0,1-5.09,5.09H316.31a5.09,5.09,0,0,1-5.09-5.09h0A5.09,5.09,0,0,1,316.31,284.64Z" style="fill:#7AD579"></path><path d="M316.31,284.64h90.12a5.09,5.09,0,0,1,5.09,5.09h0a5.09,5.09,0,0,1-5.09,5.09H316.31a5.09,5.09,0,0,1-5.09-5.09h0A5.09,5.09,0,0,1,316.31,284.64Z" style="opacity:0.30000000000000004;isolation:isolate"></path><path d="M345.44,285.55a4.18,4.18,0,1,1,0,8.35H316.31a4.18,4.18,0,1,1,0-8.35Z" style="fill:#7AD579"></path><path d="M337.34,133.22a3.06,3.06,0,0,1-2.22-.91,3,3,0,0,1-.91-2.22V119.93h1.94v10.14a1.08,1.08,0,0,0,.33.8,1.13,1.13,0,0,0,.81.33,1.09,1.09,0,0,0,.8-.33,1.08,1.08,0,0,0,.33-.8V119.93h2.07v10.16a3,3,0,0,1-.92,2.23A3.09,3.09,0,0,1,337.34,133.22Z" style="fill:#7AD579"></path><path d="M345.38,119.93a3,3,0,0,1,2.3.91,3.18,3.18,0,0,1,.8,2.23V125a3.06,3.06,0,0,1-.91,2.23,3,3,0,0,1-2.19.92h-1.15v4.95h-2V119.93Zm1.18,3.17a1.08,1.08,0,0,0-1.13-1.15h-1.2v4.21h1.2a1.07,1.07,0,0,0,.8-.34,1.09,1.09,0,0,0,.33-.8Z" style="fill:#7AD579"></path><path d="M353,133.24a3.14,3.14,0,0,1-3.15-3.14v-7.17a3.14,3.14,0,1,1,6.28,0v1.5h-2.05v-1.54a1.07,1.07,0,0,0-.34-.81,1.14,1.14,0,0,0-1.94.81v7.19a1.08,1.08,0,0,0,.33.8,1.1,1.1,0,0,0,.81.33,1.13,1.13,0,0,0,.8-.32,1.07,1.07,0,0,0,.34-.81V127.5H353v-2h3.15v4.59a3,3,0,0,1-.92,2.23A3.05,3.05,0,0,1,353,133.24Z" style="fill:#7AD579"></path><path d="M361,119.93a3,3,0,0,1,2.43.91,3.3,3.3,0,0,1,.68,2.23V125a3.05,3.05,0,0,1-1.06,2.36l1.47,5.74h-2.14l-1.2-4.95h-1.32v4.95h-2V119.93Zm1.18,3.17A1,1,0,0,0,361,122h-1.19v4.21H361a1.05,1.05,0,0,0,.8-.34,1.09,1.09,0,0,0,.33-.8Z" style="fill:#7AD579"></path><path d="M368.63,130.05l-.48,3h-2.06l2.23-13.14h2.73l2.2,13.14h-2.08l-.47-3Zm1-7.11-.73,5.18h1.47Z" style="fill:#7AD579"></path><path d="M381.15,129.92a3.07,3.07,0,0,1-.92,2.23,3,3,0,0,1-2.2.92h-3.11V119.92H378a3,3,0,0,1,2.21.92,3.09,3.09,0,0,1,.91,2.22Zm-4.25,1.19h1.19a1.05,1.05,0,0,0,.8-.34,1.13,1.13,0,0,0,.33-.8v-6.88a1.14,1.14,0,0,0-1.13-1.15H376.9Z" style="fill:#7AD579"></path><path d="M382.89,133.07V119.92h5.64v2h-3.66v3.59h2.67v2h-2.67v3.59h3.66v2Z" style="fill:#7AD579"></path><g style="opacity:0.1;isolation:isolate"><path d="M354.24,72.37,313.34,225.6h0l-.46,1.72h0l-.74,2.76h0l-.46,1.72-21.36,80V215l40-149.92h1.31a2.68,2.68,0,0,1,2.45,1.71l1.57,3.88a2.68,2.68,0,0,0,2.45,1.69Z" style="fill:#fff"></path><polygon points="432.42 150.63 432.42 247.47 406.9 343.04 406.28 345.36 402.08 361.13 376.23 361.13 380.43 345.37 381.11 342.83 384.49 330.17 385.16 327.64 386.52 322.58 387.19 320.05 388.54 314.98 389.21 312.45 410.48 232.79 410.48 232.78 411.47 229.1 411.47 229.09 432.42 150.63" style="fill:#fff"></polygon><path d="M368.25,72.37,327.6,224.65l-.24.91-2.23,8.34-.24.91L291.46,360.05a3.84,3.84,0,0,1-1.14-2.79V342.53l28.76-107.72.24-.91,2.22-8.34.25-.91L362.44,72.37Z" style="fill:#fff"></path></g><path d="M405.25,206.32a43.9,43.9,0,0,1-34.89,43,44.38,44.38,0,0,1-18,0,43.89,43.89,0,1,1,52.87-43Z" style="fill:#7AD579;isolation:isolate"></path><path d="M383.9,202.67H372a1.65,1.65,0,0,0-1.65,1.65v45a44.38,44.38,0,0,1-18,0v-45a1.65,1.65,0,0,0-1.66-1.65H338.83a1.66,1.66,0,0,1-1.17-2.83l22.54-22.53a1.65,1.65,0,0,1,2.34,0l22.53,22.53A1.66,1.66,0,0,1,383.9,202.67Z" style="fill:#fff;opacity:0.6000000000000001"></path></g></svg>