<svg xmlns="http://www.w3.org/2000/svg" viewBox="0 0 500 500"><g id="freepik--background-simple--inject-1"><path d="M164.61,314.42c18.72,5.39,33.17,21.57,50.17,30.54s36.4,15.46,55.65,16.77c47.11,3.22,65.7-33.1,88.91-67,18.46-27,64.89-55.67,51.91-92.06-13.14-36.85-63.81-57.43-97-70.44-30.66-12-84.15-31.7-113.35-6.45-33.34,28.81,5.1,86.26-44.09,95.56C117.52,228.77,71,248.76,77,295.67,83.36,345.4,133.71,305.51,164.61,314.42Z" style="fill:#7AD579"></path><path d="M164.61,314.42c18.72,5.39,33.17,21.57,50.17,30.54s36.4,15.46,55.65,16.77c47.11,3.22,65.7-33.1,88.91-67,18.46-27,64.89-55.67,51.91-92.06-13.14-36.85-63.81-57.43-97-70.44-30.66-12-84.15-31.7-113.35-6.45-33.34,28.81,5.1,86.26-44.09,95.56C117.52,228.77,71,248.76,77,295.67,83.36,345.4,133.71,305.51,164.61,314.42Z" style="fill:#fff;opacity:0.9"></path></g><g id="freepik--Shadow--inject-1"><ellipse id="freepik--path--inject-1" cx="250" cy="416.24" rx="193.89" ry="11.32" style="fill:#f5f5f5"></ellipse></g><g id="freepik--Upvote--inject-1"><rect x="98.59" y="235.01" width="60.59" height="30.03" rx="4.88" transform="translate(-148.74 295.24) rotate(-71.98)" style="fill:#263238"></rect><rect x="98.59" y="235.01" width="60.59" height="30.03" rx="4.88" transform="translate(-148.74 295.24) rotate(-71.98)" style="opacity:0.3"></rect><path d="M203.14,242.91l-18.77-6.11.72.23c1.3-2.68.82-4.32,2.38-6.86,2-3.09,5.29-6.73,7.95-12.61,2-4.4,1.74-20.62,1.74-20.62s-3.27-1.1-3.88-1.25c-3.79-1-5.87,2.69-7.39,8-1.77,6.17-13.42,13.57-20.9,17.39s-16.17,9.46-16.22,9.5h0L135.09,274h0l5.9,5.66a44.4,44.4,0,0,0,14,8.54L185.21,298Z" style="fill:#263238"></path><path d="M215.14,250.68a3.68,3.68,0,0,0-2.36-4.64l-24.07-7.82v0c1.3-2.68,1.54-4.08,3.1-6.62,2-3.09,5.29-6.73,7.95-12.61s4.14-18.4-.92-21.29-6.85,1.26-8.62,7.44-13.41,13.57-20.9,17.39S153.16,232,153.11,232h0L139.43,275.4h0l5.9,5.66a44.54,44.54,0,0,0,14,8.55l33.38,10.85a3.67,3.67,0,0,0,4.64-2.36l.82-2.52a3.67,3.67,0,0,0-1.56-4.27l-1.12-1.1a.79.79,0,0,1,.52-1.42l2.87.2c1.72.17,4-.65,4.58-2.29l1.59-4.9a3.68,3.68,0,0,0-1.51-4.24l-2.78-1.9a.79.79,0,0,1,.44-1.44l4.52-.06a3.68,3.68,0,0,0,3.45-2.54l1.72-5.3a3.69,3.69,0,0,0-1.4-4.17L206,259.74a.79.79,0,0,1,.45-1.44l3.4,0a3.69,3.69,0,0,0,3.66-2.54Z" style="fill:#7AD579"></path><path d="M215.14,250.68a3.68,3.68,0,0,0-2.36-4.64l-24.07-7.82v0c1.3-2.68,1.54-4.08,3.1-6.62,2-3.09,5.29-6.73,7.95-12.61s4.14-18.4-.92-21.29-6.85,1.26-8.62,7.44-13.41,13.57-20.9,17.39S153.16,232,153.11,232h0L139.43,275.4h0l5.9,5.66a44.54,44.54,0,0,0,14,8.55l33.38,10.85a3.67,3.67,0,0,0,4.64-2.36l.82-2.52a3.67,3.67,0,0,0-1.56-4.27l-1.12-1.1a.79.79,0,0,1,.52-1.42l2.87.2c1.72.17,4-.65,4.58-2.29l1.59-4.9a3.68,3.68,0,0,0-1.51-4.24l-2.78-1.9a.79.79,0,0,1,.44-1.44l4.52-.06a3.68,3.68,0,0,0,3.45-2.54l1.72-5.3a3.69,3.69,0,0,0-1.4-4.17L206,259.74a.79.79,0,0,1,.45-1.44l3.4,0a3.69,3.69,0,0,0,3.66-2.54Z" style="opacity:0.4"></path><rect x="102.21" y="236.18" width="60.59" height="30.03" rx="4.88" transform="translate(-147.36 299.49) rotate(-71.98)" style="fill:#263238"></rect><rect x="170.03" y="292.42" width="1.06" height="6.02" transform="translate(-161.49 373.62) rotate(-73.25)" style="fill:#7AD579"></rect><rect x="170.03" y="292.42" width="1.06" height="6.02" transform="translate(-161.49 373.62) rotate(-73.25)" style="opacity:0.4"></rect><rect x="185.29" y="292.83" width="1.06" height="14.4" transform="translate(-155.04 391.48) rotate(-73.25)" style="fill:#7AD579"></rect><rect x="185.29" y="292.83" width="1.06" height="14.4" transform="translate(-155.04 391.48) rotate(-73.25)" style="opacity:0.4"></rect></g><g id="freepik--Character--inject-1"><path d="M239.27,123.37c-4.9,1.51-8.13,21,2,27.3s32.38-3.13,32.38-3.13-3.37-4-2.25-14.63c1.1-10.41,1.55-24-15.75-21C244.37,113.81,238.49,120,239.27,123.37Z" style="fill:#263238"></path><path d="M282.31,171.34c.23,2.44.52,5.11.89,7.66s.75,5.15,1.26,7.69a99,99,0,0,0,4,14.84l.67,1.76c.12.32.2.48.3.72s.23.46.35.7a26.08,26.08,0,0,0,1.87,2.95,72.25,72.25,0,0,0,4.86,5.9c1.73,1.94,3.54,3.85,5.41,5.72s3.77,3.76,5.66,5.59l-2.68,3.45a113.84,113.84,0,0,1-13.15-10,64.48,64.48,0,0,1-6-6,30.21,30.21,0,0,1-2.74-3.65c-.21-.36-.42-.69-.62-1.07s-.43-.8-.55-1.1l-.88-2a72.13,72.13,0,0,1-2.92-8c-.86-2.68-1.5-5.4-2.11-8.12s-1.11-5.45-1.5-8.19-.73-5.45-.89-8.37Z" style="fill:#ffb573"></path><path d="M279.52,161.39c3.55.9,6,15.52,6,15.52L272,186.15s-5.59-17.33-2.86-21.23C272,160.85,274.33,160.07,279.52,161.39Z" style="fill:#263238"></path><polygon points="279.2 164.65 281.93 179.39 276.42 183.12 279.2 164.65" style="opacity:0.2"></polygon><polygon points="271.22 187.65 286.49 176.71 286.18 175.3 270.19 186.05 271.22 187.65" style="fill:#7AD579"></polygon><polygon points="260.3 407.44 268.92 407.44 269.49 387.48 260.87 387.48 260.3 407.44" style="fill:#ffb573"></polygon><polygon points="200.69 382.04 208.67 385.29 218.78 367.86 210.8 364.6 200.69 382.04" style="fill:#ffb573"></polygon><path d="M210.17,384.1l-8.32-5a.67.67,0,0,0-.89.16l-4.86,6a1.37,1.37,0,0,0,.4,2c2.93,1.68,4.43,2.34,8.09,4.51,2.26,1.34,7.55,5.93,10.66,7.77s5.1-1.12,4-2.17a29.59,29.59,0,0,1-8.08-12.17A2.17,2.17,0,0,0,210.17,384.1Z" style="fill:#263238"></path><path d="M269.21,406.44h-9.68a.68.68,0,0,0-.69.59l-1.1,7.66a1.38,1.38,0,0,0,1.38,1.53c3.37-.06,5-.25,9.26-.25,2.62,0,8,.27,11.66.27s3.81-3.58,2.3-3.9c-6.75-1.46-9.41-3.46-11.69-5.37A2.21,2.21,0,0,0,269.21,406.44Z" style="fill:#263238"></path><g style="opacity:0.2"><polygon points="269.49 387.48 269.19 397.77 260.57 397.77 260.87 387.48 269.49 387.48"></polygon><polygon points="210.8 364.61 218.78 367.87 213.56 376.85 205.58 373.59 210.8 364.61"></polygon></g><path d="M279.52,161.39s4.1,1.44-4.12,52h-35c.59-14.25.61-23-6.2-52.27a102.59,102.59,0,0,1,14.86-2,112.37,112.37,0,0,1,15.9,0C271.77,159.8,279.52,161.39,279.52,161.39Z" style="fill:#263238"></path><path d="M250.63,141.28c1,5.12,2,14.49-1.58,17.9a37,37,0,0,0,14.05,14c7.1-5.67,1.85-14,1.85-14-5.71-1.36-5.56-5.59-4.57-9.57Z" style="fill:#ffb573"></path><path d="M254.6,144.68l5.78,4.93a16.5,16.5,0,0,0-.49,2.82c-2.18-.31-5.61-2.17-6.07-4.54C253.6,146.77,254.42,145.21,254.6,144.68Z" style="opacity:0.2"></path><path d="M242.05,133.07c2.37,8.22,3.19,11.75,8.35,15.09,7.76,5,17.34.33,17.48-8.44.13-7.88-3.76-20-12.65-21.5A11.67,11.67,0,0,0,242.05,133.07Z" style="fill:#ffb573"></path><path d="M246.68,127.45c2.06,2.94-.21,11-3.59,11.76-2.71.56-4.18-3.91-4.66-5.71a3.47,3.47,0,0,1-.07-1.4l.89-5.82a3.49,3.49,0,0,1,1.17-2.12l6.35-5.48a3.47,3.47,0,0,1,1.71-.8l9-1.49a3.48,3.48,0,0,1,1.94.23h0a3.49,3.49,0,0,1,1,5.79A18.71,18.71,0,0,1,246.68,127.45Z" style="fill:#263238"></path><path d="M275.4,213.41s6.8,66.39,6.23,92.68C281,333.43,271,395.78,271,395.78H259.37s1.84-60.76.81-87.61c-1.12-29.27-10.42-94.76-10.42-94.76Z" style="fill:#7AD579"></path><path d="M275.4,213.41s6.8,66.39,6.23,92.68C281,333.43,271,395.78,271,395.78H259.37s1.84-60.76.81-87.61c-1.12-29.27-10.42-94.76-10.42-94.76Z" style="fill:#fff;opacity:0.4"></path><polygon points="258.36 396.2 272.04 396.2 273.04 391.83 257.73 391.3 258.36 396.2" style="fill:#263238"></polygon><path d="M260.3,229.93c8.6,17.29,1.72,48.85-1.32,60.58-1.56-17.63-4.18-39.18-6.23-55C254.05,226.55,256.33,222,260.3,229.93Z" style="opacity:0.2"></path><path d="M266.15,213.41s-7.93,69-13.91,91.18c-7.11,26.31-36,71.2-36,71.2l-10.89-4.44s18.65-51.11,24.09-65c11.6-29.58,1.67-73.67,10.94-93Z" style="fill:#7AD579"></path><path d="M266.15,213.41s-7.93,69-13.91,91.18c-7.11,26.31-36,71.2-36,71.2l-10.89-4.44s18.65-51.11,24.09-65c11.6-29.58,1.67-73.67,10.94-93Z" style="fill:#fff;opacity:0.4"></path><polygon points="203.88 371.41 217.38 376.92 220.55 373.26 204.96 366.06 203.88 371.41" style="fill:#263238"></polygon><path d="M255.84,132.33c.15.67.63,1.14,1.07,1s.68-.73.53-1.41-.63-1.15-1.07-1.05S255.69,131.65,255.84,132.33Z" style="fill:#263238"></path><path d="M263.51,130.62c.15.68.63,1.15,1.07,1s.68-.73.53-1.41-.63-1.15-1.07-1S263.36,129.94,263.51,130.62Z" style="fill:#263238"></path><path d="M263.85,129.29l1.52-.83S264.82,129.92,263.85,129.29Z" style="fill:#263238"></path><path d="M261.41,132.37a18.49,18.49,0,0,0,3.39,3.79,3,3,0,0,1-2.32,1Z" style="fill:#ed893e"></path><path d="M259.37,140.63a6.27,6.27,0,0,0,1-.14.22.22,0,0,0,.16-.25.2.2,0,0,0-.24-.15,5.51,5.51,0,0,1-4.86-1.13.19.19,0,0,0-.28,0,.21.21,0,0,0,0,.29A5.67,5.67,0,0,0,259.37,140.63Z" style="fill:#263238"></path><path d="M241.51,141.27a6.24,6.24,0,0,0,4,2.62c2.16.4,3-1.58,2.28-3.51-.69-1.74-2.64-4-4.73-3.56A2.81,2.81,0,0,0,241.51,141.27Z" style="fill:#ffb573"></path><path d="M252.64,129.33a.42.42,0,0,0,.46-.15c1.11-1.53,3.54-1.51,3.56-1.51a.41.41,0,0,0,.42-.4.42.42,0,0,0-.4-.42c-.12,0-2.89,0-4.24,1.85a.4.4,0,0,0,.09.57A.24.24,0,0,0,252.64,129.33Z" style="fill:#263238"></path><path d="M265.1,125a.42.42,0,0,0,.34-.22.41.41,0,0,0-.18-.55,4,4,0,0,0-3.72-.06.4.4,0,0,0-.15.56.41.41,0,0,0,.55.15,3.2,3.2,0,0,1,2.95.08A.39.39,0,0,0,265.1,125Z" style="fill:#263238"></path><path d="M213.48,387.37l.1,0a1.15,1.15,0,0,0,.85-.76.7.7,0,0,0-.06-.7c-.63-.9-3.74-.79-4.09-.77a.21.21,0,0,0-.19.13.2.2,0,0,0,0,.22C210.94,386.24,212.41,387.49,213.48,387.37Zm-2.69-1.86c1.24,0,2.92.14,3.25.61a.29.29,0,0,1,0,.31.75.75,0,0,1-.55.52C212.92,387.08,211.93,386.54,210.79,385.51Z" style="fill:#7AD579"></path><path d="M210.6,385.51c1.06-.12,3-.85,3.25-1.7a.72.72,0,0,0-.3-.84,1.06,1.06,0,0,0-.88-.2c-1.23.23-2.51,2.36-2.56,2.45a.18.18,0,0,0,0,.2.18.18,0,0,0,.17.11Zm2.21-2.35a.63.63,0,0,1,.49.14c.21.16.2.28.17.38-.2.57-1.76,1.27-2.8,1.41.47-.68,1.34-1.78,2.08-1.92Z" style="fill:#7AD579"></path><path d="M272.45,408a3.31,3.31,0,0,0,2.09-.53,1.17,1.17,0,0,0,.37-1,.69.69,0,0,0-.35-.54c-1.06-.58-4.49,1.17-4.88,1.38a.2.2,0,0,0-.11.21.21.21,0,0,0,.16.17A15.33,15.33,0,0,0,272.45,408Zm1.53-1.79a.8.8,0,0,1,.38.08.24.24,0,0,1,.14.22.74.74,0,0,1-.23.65c-.53.47-1.95.55-3.86.24A11.17,11.17,0,0,1,274,406.16Z" style="fill:#7AD579"></path><path d="M269.77,407.64a.15.15,0,0,0,.09,0c1-.46,3.06-2.32,2.9-3.3,0-.23-.2-.51-.77-.57a1.44,1.44,0,0,0-1.13.35c-1.08.9-1.28,3.22-1.29,3.32a.21.21,0,0,0,.09.18A.15.15,0,0,0,269.77,407.64Zm2.06-3.49H272c.37,0,.4.19.41.24.09.59-1.29,2.05-2.34,2.68a4.85,4.85,0,0,1,1.1-2.66A1.13,1.13,0,0,1,271.83,404.15Z" style="fill:#7AD579"></path><path d="M256.18,131l1.52-.83S257.15,131.63,256.18,131Z" style="fill:#263238"></path><path d="M239.87,211.35l-.9,3.14c-.12.24.17.49.57.49h36c.32,0,.58-.16.6-.35l.31-3.14c0-.21-.25-.4-.59-.4H240.44A.65.65,0,0,0,239.87,211.35Z" style="fill:#7AD579"></path><path d="M239.87,211.35l-.9,3.14c-.12.24.17.49.57.49h36c.32,0,.58-.16.6-.35l.31-3.14c0-.21-.25-.4-.59-.4H240.44A.65.65,0,0,0,239.87,211.35Z" style="opacity:0.2"></path><path d="M244.75,215.32h-.95c-.19,0-.34-.1-.32-.22l.44-4.07c0-.12.18-.22.37-.22h1c.19,0,.33.1.32.22l-.45,4.07C245.1,215.22,244.93,215.32,244.75,215.32Z" style="fill:#7AD579"></path><path d="M244.75,215.32h-.95c-.19,0-.34-.1-.32-.22l.44-4.07c0-.12.18-.22.37-.22h1c.19,0,.33.1.32.22l-.45,4.07C245.1,215.22,244.93,215.32,244.75,215.32Z" style="fill:#fff;opacity:0.4"></path><path d="M272.9,215.32H272c-.19,0-.33-.1-.32-.22l.45-4.07c0-.12.18-.22.37-.22h.94c.19,0,.34.1.32.22l-.44,4.07C273.26,215.22,273.09,215.32,272.9,215.32Z" style="fill:#7AD579"></path><path d="M272.9,215.32H272c-.19,0-.33-.1-.32-.22l.45-4.07c0-.12.18-.22.37-.22h.94c.19,0,.34.1.32.22l-.44,4.07C273.26,215.22,273.09,215.32,272.9,215.32Z" style="fill:#fff;opacity:0.4"></path><path d="M258.88,215.32h-.95c-.19,0-.33-.1-.32-.22l.45-4.07c0-.12.18-.22.37-.22h.95c.18,0,.33.1.32.22l-.45,4.07C259.24,215.22,259.07,215.32,258.88,215.32Z" style="fill:#7AD579"></path><path d="M258.88,215.32h-.95c-.19,0-.33-.1-.32-.22l.45-4.07c0-.12.18-.22.37-.22h.95c.18,0,.33.1.32.22l-.45,4.07C259.24,215.22,259.07,215.32,258.88,215.32Z" style="fill:#fff;opacity:0.4"></path><rect x="273.12" y="180.05" width="28.34" height="57.17" rx="4.61" transform="translate(-67.75 205.78) rotate(-35.53)" style="fill:#263238"></rect><path d="M323.52,148.29l-15.16,10.82.58-.42c-1.31-2.49-2.82-3-3.87-5.65-1.22-3.26-2.15-7.78-5.12-13.1-2.22-4-14.67-12.88-14.67-12.88s-2.67,1.87-3.13,2.24c-2.85,2.34-1.25,6,2,10.11,3.7,4.8,2.78,17.79,1.48,25.61s-1.88,17.58-1.88,17.63h0L309,217.36h0l7.6-1.3a41.82,41.82,0,0,0,14.31-5.81l24.44-17.45Z" style="fill:#263238"></path><path d="M336.15,143.54a3.47,3.47,0,0,0-4.85-.8l-19.43,13.87h0c-1.31-2.49-2.24-3.46-3.29-6.07-1.22-3.26-2.14-7.78-5.11-13.1S291.81,124,286.78,126.2s-2.88,5.91.82,10.71,2.78,17.79,1.48,25.61-1.88,17.57-1.88,17.63h0l25.26,34.71h0l7.59-1.3a41.92,41.92,0,0,0,14.32-5.81l26.95-19.25a3.46,3.46,0,0,0,.81-4.84l-1.45-2a3.48,3.48,0,0,0-4.12-1.21l-1.46.24a.74.74,0,0,1-.79-1.19l1.76-2.07c1.09-1.21,1.78-3.44.83-4.77l-2.82-4a3.48,3.48,0,0,0-4.07-1.22l-3,1a.75.75,0,0,1-.85-1.14l2.49-3.46a3.48,3.48,0,0,0,0-4l-3.06-4.28a3.48,3.48,0,0,0-3.95-1.27l-3.78,1.29a.75.75,0,0,1-.84-1.15l1.93-2.57a3.45,3.45,0,0,0,.12-4.19Z" style="fill:#7AD579"></path><rect x="276.04" y="177.96" width="28.34" height="57.17" rx="4.61" transform="translate(-66 207.08) rotate(-35.53)" style="fill:#7AD579"></rect><rect x="276.04" y="177.96" width="28.34" height="57.17" rx="4.61" transform="translate(-66 207.08) rotate(-35.53)" style="opacity:0.6"></rect><rect x="342.28" y="201.96" width="5.68" height="1" transform="translate(-52.51 247.07) rotate(-36.8)" style="fill:#7AD579"></rect><rect x="350.37" y="192.96" width="13.59" height="1" transform="translate(-44.72 252.45) rotate(-36.79)" style="fill:#7AD579"></rect><polygon points="304.94 228.27 298.52 232.51 299.63 236.51 306.86 231.56 304.94 228.27" style="fill:#ffb573"></polygon><path d="M254.42,199.77l5.11-7.79,2.5,8.4s-3.88,4-7.32,2.94Z" style="fill:#ffb573"></path><path d="M238.86,172.52c-.52,5.19-1.15,10.38-1.82,15.56s-1.37,10.36-2.12,15.53l-.14,1-.05.33a.27.27,0,0,0,0,.1c0,.05,0,0-.07-.11a1.25,1.25,0,0,0-.29-.45.82.82,0,0,0-.37-.27c-.06,0-.09,0,0,0a2.77,2.77,0,0,0,.93.16,15.9,15.9,0,0,0,3.14-.26c1.14-.19,2.33-.47,3.52-.78,2.39-.6,4.81-1.37,7.22-2.22s4.84-1.74,7.21-2.65l2,3.87a87,87,0,0,1-14.38,7.38c-1.29.49-2.61.94-4,1.33a21.38,21.38,0,0,1-4.6.79,11,11,0,0,1-3-.24,7.47,7.47,0,0,1-1.82-.68,6.25,6.25,0,0,1-3.08-3.68,7.22,7.22,0,0,1-.35-2,6.36,6.36,0,0,1,0-.88l.05-.65.08-1q.63-7.81,1.43-15.6c.52-5.2,1.07-10.39,1.74-15.57Z" style="fill:#ffb573"></path><path d="M234.19,161.14c-3.51,1.07-7.72,13.14-7.72,13.14l13.6,9.73s5-10.08,3.49-14.61C242,164.67,238.19,159.92,234.19,161.14Z" style="fill:#263238"></path><polygon points="240.19 185.21 225.52 174.59 225.83 173.18 241.47 183.78 240.19 185.21" style="fill:#7AD579"></polygon><polygon points="266.39 189.66 268.11 196.81 262.03 200.38 259.53 191.99 266.39 189.66" style="fill:#ffb573"></polygon></g></svg>